<svg width="87" height="37" viewBox="0 0 87 37" fill="none" xmlns="http://www.w3.org/2000/svg">
<path d="M52.418 9.86719V20.1797C52.418 21.6172 52.1445 22.8672 51.5977 23.9297C51.0508 24.9844 50.2305 25.8008 49.1367 26.3789C48.043 26.9492 46.6719 27.2344 45.0234 27.2344C42.6641 27.2344 40.8633 26.6289 39.6211 25.418C38.3789 24.207 37.7578 22.4961 37.7578 20.2852V9.86719H42.4102V19.9219C42.4102 21.1328 42.6367 22.0117 43.0898 22.5586C43.543 23.1055 44.2109 23.3789 45.0938 23.3789C45.7266 23.3789 46.2422 23.2617 46.6406 23.0273C47.0391 22.7852 47.3281 22.4062 47.5078 21.8906C47.6953 21.375 47.7891 20.7109 47.7891 19.8984V9.86719H52.418Z" fill="#881C1C"/>
<path d="M61.6289 9.86719C63.1836 9.86719 64.4766 10.0586 65.5078 10.4414C66.5391 10.8164 67.3125 11.3789 67.8281 12.1289C68.3516 12.8789 68.6133 13.8125 68.6133 14.9297C68.6133 15.625 68.4961 16.2578 68.2617 16.8281C68.0273 17.3984 67.6914 17.9102 67.2539 18.3633C66.8242 18.8086 66.3086 19.1992 65.707 19.5352L70.6992 27H65.4492L61.8164 20.7656H60.6445V27H56.0156V9.86719H61.6289ZM61.5586 13.3711H60.6445V17.2852H61.5117C62.2227 17.2852 62.8047 17.1289 63.2578 16.8164C63.7109 16.5039 63.9375 15.9453 63.9375 15.1406C63.9375 14.5859 63.75 14.1523 63.375 13.8398C63 13.5273 62.3945 13.3711 61.5586 13.3711ZM77.8711 9.86719C79.4258 9.86719 80.7188 10.0586 81.75 10.4414C82.7812 10.8164 83.5547 11.3789 84.0703 12.1289C84.5938 12.8789 84.8555 13.8125 84.8555 14.9297C84.8555 15.625 84.7383 16.2578 84.5039 16.8281C84.2695 17.3984 83.9336 17.9102 83.4961 18.3633C83.0664 18.8086 82.5508 19.1992 81.9492 19.5352L86.9414 27H81.6914L78.0586 20.7656H76.8867V27H72.2578V9.86719H77.8711ZM77.8008 13.3711H76.8867V17.2852H77.7539C78.4648 17.2852 79.0469 17.1289 79.5 16.8164C79.9531 16.5039 80.1797 15.9453 80.1797 15.1406C80.1797 14.5859 79.9922 14.1523 79.6172 13.8398C79.2422 13.5273 78.6367 13.3711 77.8008 13.3711Z" fill="#151515"/>
<path d="M1 32.7769L2.75961 5.33504L7.89447 1H8.47034L8.92624 1.39991L9.32615 1H9.93401L15.0209 5.33504L16.7245 32.7769L8.92624 33.7847L1 32.7769Z" fill="black" stroke="black" stroke-width="0.0159964"/>
<path fill-rule="evenodd" clip-rule="evenodd" d="M14.6585 8.4801L14.565 6.53473L14.7089 6.61471L14.8036 8.58972L14.6585 8.4801ZM14.8171 8.87185L15.8687 30.8093L15.7327 30.8253L14.672 8.76151L14.8171 8.87185Z" fill="white"/>
<path d="M14.6585 8.4801L14.651 8.49006L14.6505 8.48048L14.6585 8.4801ZM14.565 6.53473L14.5801 6.534L14.5689 6.52774L14.565 6.53473ZM14.7089 6.61471L14.7163 6.60144L14.7169 6.61433L14.7089 6.61471ZM14.8036 8.58972L14.8116 8.58934L14.8124 8.60639L14.7988 8.5961L14.8036 8.58972ZM14.8171 8.87185L14.8247 8.86195L14.8251 8.87147L14.8171 8.87185ZM15.8687 30.8093L15.9842 30.8038L15.8696 30.8173L15.8687 30.8093ZM15.7327 30.8253L15.7192 30.7102L15.7247 30.8257L15.7327 30.8253ZM14.672 8.76151L14.664 8.7619L14.6632 8.74476L14.6769 8.75515L14.672 8.76151ZM14.6505 8.48048L14.557 6.53511L14.573 6.53434L14.6665 8.47971L14.6505 8.48048ZM14.5689 6.52774L14.7128 6.60772L14.7051 6.6217L14.5611 6.54172L14.5689 6.52774ZM14.7169 6.61433L14.8116 8.58934L14.7956 8.5901L14.701 6.61509L14.7169 6.61433ZM14.7988 8.5961L14.6537 8.48648L14.6633 8.47371L14.8084 8.58334L14.7988 8.5961ZM14.8251 8.87147L15.8767 30.8089L15.8607 30.8097L14.8091 8.87224L14.8251 8.87147ZM15.8696 30.8173L15.7336 30.8333L15.7318 30.8174L15.8677 30.8014L15.8696 30.8173ZM15.7247 30.8257L14.664 8.7619L14.68 8.76113L15.7407 30.8249L15.7247 30.8257ZM14.6769 8.75515L14.822 8.86549L14.8123 8.87822L14.6672 8.76788L14.6769 8.75515Z" fill="black"/>
<path fill-rule="evenodd" clip-rule="evenodd" d="M13.8863 7.89654L13.7971 5.96692L14.0211 6.11089L14.1081 8.06412L13.8863 7.89654ZM14.1205 8.34216L15.1248 30.8814L14.9489 30.8974L13.8991 8.1738L14.1205 8.34216Z" fill="white"/>
<path d="M13.8863 7.89654L13.8787 7.90653L13.8783 7.89691L13.8863 7.89654ZM13.7971 5.96692L13.7892 5.96729L13.7884 5.95181L13.8015 5.96019L13.7971 5.96692ZM14.0211 6.11089L14.0286 6.09924L14.0291 6.11053L14.0211 6.11089ZM14.1081 8.06412L14.1161 8.06377L14.1169 8.08075L14.1033 8.0705L14.1081 8.06412ZM14.1205 8.34216L14.1281 8.33222L14.1285 8.34181L14.1205 8.34216ZM15.1248 30.8814L15.2981 30.8737L15.1256 30.8893L15.1248 30.8814ZM14.9489 30.8974L14.9326 30.7183L14.9409 30.8977L14.9489 30.8974ZM13.8991 8.1738L13.8911 8.17416L13.8903 8.15707L13.9039 8.16743L13.8991 8.1738ZM13.8783 7.89691L13.7892 5.96729L13.8051 5.96655L13.8943 7.89617L13.8783 7.89691ZM13.8015 5.96019L14.0254 6.10416L14.0168 6.11761L13.7928 5.97365L13.8015 5.96019ZM14.0291 6.11053L14.1161 8.06377L14.1001 8.06448L14.0131 6.11124L14.0291 6.11053ZM14.1033 8.0705L13.8815 7.90292L13.8911 7.89016L14.1129 8.05774L14.1033 8.0705ZM14.1285 8.34181L15.1328 30.881L15.1169 30.8817L14.1125 8.34252L14.1285 8.34181ZM15.1256 30.8893L14.9496 30.9053L14.9482 30.8894L15.1241 30.8734L15.1256 30.8893ZM14.9409 30.8977L13.8911 8.17416L13.9071 8.17343L14.9569 30.897L14.9409 30.8977ZM13.9039 8.16743L14.1254 8.3358L14.1157 8.34853L13.8943 8.18016L13.9039 8.16743Z" fill="black"/>
<path fill-rule="evenodd" clip-rule="evenodd" d="M13.1841 7.36608L13.1093 5.40704L13.2932 5.54301L13.3712 7.50743L13.1841 7.36608ZM13.382 7.78061L14.301 30.9454L14.0851 30.9694L13.1945 7.63798L13.382 7.78061Z" fill="white"/>
<path d="M13.1841 7.36608L13.1765 7.37617L13.1761 7.36639L13.1841 7.36608ZM13.1093 5.40704L13.1013 5.40735L13.1007 5.39072L13.114 5.40061L13.1093 5.40704ZM13.2932 5.54301L13.3008 5.53274L13.3012 5.5427L13.2932 5.54301ZM13.3712 7.50743L13.3792 7.50711L13.3798 7.52399L13.3664 7.51381L13.3712 7.50743ZM13.382 7.78061L13.3896 7.77061L13.39 7.78029L13.382 7.78061ZM14.301 30.9454L14.4137 30.9409L14.3019 30.9533L14.301 30.9454ZM14.0851 30.9694L14.0729 30.8596L14.0771 30.9697L14.0851 30.9694ZM13.1945 7.63798L13.1865 7.63829L13.1858 7.62137L13.1993 7.63162L13.1945 7.63798ZM13.1761 7.36639L13.1013 5.40735L13.1173 5.40674L13.1921 7.36578L13.1761 7.36639ZM13.114 5.40061L13.298 5.53658L13.2885 5.54945L13.1045 5.41348L13.114 5.40061ZM13.3012 5.5427L13.3792 7.50711L13.3632 7.50774L13.2853 5.54333L13.3012 5.5427ZM13.3664 7.51381L13.1793 7.37246L13.1889 7.3597L13.376 7.50105L13.3664 7.51381ZM13.39 7.78029L14.309 30.945L14.293 30.9457L13.374 7.78093L13.39 7.78029ZM14.3019 30.9533L14.086 30.9773L14.0842 30.9614L14.3001 30.9374L14.3019 30.9533ZM14.0771 30.9697L13.1865 7.63829L13.2024 7.63768L14.0931 30.9691L14.0771 30.9697ZM13.1993 7.63162L13.3869 7.77424L13.3772 7.78698L13.1896 7.64435L13.1993 7.63162Z" fill="black"/>
<path fill-rule="evenodd" clip-rule="evenodd" d="M12.5814 5.04712L12.3655 4.85516L12.4258 6.7933L12.6426 6.95703L12.5814 5.04712ZM12.6512 7.22486L13.4132 31.0253L13.1813 31.0493L12.4341 7.05984L12.6512 7.22486Z" fill="white"/>
<path d="M12.3655 4.85516L12.3575 4.85541L12.3569 4.83684L12.3708 4.84919L12.3655 4.85516ZM12.5814 5.04712L12.5891 5.03843L12.5894 5.04686L12.5814 5.04712ZM12.4258 6.7933L12.4181 6.80348L12.4178 6.79355L12.4258 6.7933ZM12.6426 6.95703L12.6506 6.95678L12.6511 6.9735L12.6378 6.96342L12.6426 6.95703ZM12.6512 7.22486L12.6588 7.21476L12.6591 7.2246L12.6512 7.22486ZM13.4132 31.0253L13.5258 31.0217L13.4141 31.0333L13.4132 31.0253ZM13.1813 31.0493L13.1698 30.9387L13.1733 31.0496L13.1813 31.0493ZM12.4341 7.05984L12.4261 7.06009L12.4256 7.04332L12.439 7.05347L12.4341 7.05984ZM12.3708 4.84919L12.5867 5.04114L12.5761 5.0531L12.3602 4.86114L12.3708 4.84919ZM12.4178 6.79355L12.3575 4.85541L12.3735 4.85491L12.4338 6.79306L12.4178 6.79355ZM12.6378 6.96342L12.421 6.79969L12.4307 6.78692L12.6474 6.95065L12.6378 6.96342ZM12.5894 5.04686L12.6506 6.95678L12.6346 6.95729L12.5734 5.04738L12.5894 5.04686ZM12.6591 7.2246L13.4212 31.0251L13.4052 31.0256L12.6432 7.22512L12.6591 7.2246ZM13.4141 31.0333L13.1821 31.0573L13.1805 31.0414L13.4124 31.0174L13.4141 31.0333ZM13.1733 31.0496L12.4261 7.06009L12.4421 7.05959L13.1893 31.0491L13.1733 31.0496ZM12.439 7.05347L12.656 7.21849L12.6463 7.23123L12.4293 7.06621L12.439 7.05347Z" fill="black"/>
<path fill-rule="evenodd" clip-rule="evenodd" d="M11.8216 4.44721L11.5976 4.24725L11.646 6.20417L11.8701 6.37352L11.8216 4.44721ZM11.8768 6.63599L12.4934 31.1053L12.2615 31.1293L11.6524 6.46541L11.8768 6.63599Z" fill="white"/>
<path d="M11.5976 4.24725L11.5896 4.24745L11.5892 4.22898L11.603 4.24129L11.5976 4.24725ZM11.8216 4.44721L11.8294 4.43849L11.8296 4.44701L11.8216 4.44721ZM11.646 6.20417L11.6382 6.21443L11.638 6.20437L11.646 6.20417ZM11.8701 6.37352L11.8781 6.37331L11.8785 6.38989L11.8653 6.3799L11.8701 6.37352ZM11.8768 6.63599L11.8845 6.62581L11.8847 6.63579L11.8768 6.63599ZM12.4934 31.1053L12.5962 31.1027L12.4943 31.1132L12.4934 31.1053ZM12.2615 31.1293L12.251 31.0277L12.2535 31.1295L12.2615 31.1293ZM11.6524 6.46541L11.6444 6.46561L11.644 6.44897L11.6573 6.45904L11.6524 6.46541ZM11.603 4.24129L11.8269 4.44124L11.8163 4.45318L11.5923 4.25322L11.603 4.24129ZM11.638 6.20437L11.5896 4.24745L11.6056 4.24706L11.654 6.20398L11.638 6.20437ZM11.8653 6.3799L11.6411 6.21056L11.6508 6.19779L11.875 6.36713L11.8653 6.3799ZM11.8296 4.44701L11.8781 6.37331L11.8621 6.37372L11.8136 4.44741L11.8296 4.44701ZM11.8847 6.63579L12.5014 31.1051L12.4854 31.1055L11.8688 6.6362L11.8847 6.63579ZM12.4943 31.1132L12.2623 31.1372L12.2607 31.1213L12.4926 31.0973L12.4943 31.1132ZM12.2535 31.1295L11.6444 6.46561L11.6604 6.46521L12.2695 31.1291L12.2535 31.1295ZM11.6573 6.45904L11.8816 6.62963L11.8719 6.64236L11.6476 6.47178L11.6573 6.45904Z" fill="black"/>
<path fill-rule="evenodd" clip-rule="evenodd" d="M11.0298 3.80738L10.7818 3.59943L10.8168 5.5778L11.0635 5.76416L11.0298 3.80738ZM11.0679 6.02094L11.5016 31.2013L11.2697 31.2173L10.8213 5.83342L11.0679 6.02094Z" fill="white"/>
<path d="M10.7818 3.59943L10.7738 3.59957L10.7735 3.58202L10.7869 3.5933L10.7818 3.59943ZM11.0298 3.80738L11.0376 3.79803L11.0377 3.80724L11.0298 3.80738ZM10.8168 5.5778L10.8089 5.58814L10.8088 5.57794L10.8168 5.5778ZM11.0635 5.76416L11.0715 5.76402L11.0717 5.78044L11.0586 5.77054L11.0635 5.76416ZM11.0679 6.02094L11.0757 6.01066L11.0759 6.02081L11.0679 6.02094ZM11.5016 31.2013L11.6566 31.1986L11.5022 31.2093L11.5016 31.2013ZM11.2697 31.2173L11.2589 31.0614L11.2617 31.2174L11.2697 31.2173ZM10.8213 5.83342L10.8133 5.83356L10.813 5.81707L10.8261 5.82705L10.8213 5.83342ZM10.7869 3.5933L11.0349 3.80125L11.0246 3.81351L10.7767 3.60555L10.7869 3.5933ZM10.8088 5.57794L10.7738 3.59957L10.7898 3.59928L10.8248 5.57765L10.8088 5.57794ZM11.0586 5.77054L10.8119 5.58418L10.8216 5.57141L11.0683 5.75777L11.0586 5.77054ZM11.0377 3.80724L11.0715 5.76402L11.0555 5.76429L11.0218 3.80752L11.0377 3.80724ZM11.0759 6.02081L11.5096 31.2012L11.4937 31.2014L11.0599 6.02108L11.0759 6.02081ZM11.5022 31.2093L11.2702 31.2253L11.2691 31.2093L11.5011 31.1933L11.5022 31.2093ZM11.2617 31.2174L10.8133 5.83356L10.8293 5.83328L11.2777 31.2171L11.2617 31.2174ZM10.8261 5.82705L11.0727 6.01458L11.063 6.02731L10.8164 5.83979L10.8261 5.82705Z" fill="black"/>
<path fill-rule="evenodd" clip-rule="evenodd" d="M10.2139 3.18355L9.95 2.9436L9.96911 4.93748L10.2306 5.13501L10.2139 3.18355ZM10.2327 5.38591L10.4539 31.2813L10.2219 31.3133L9.97151 5.18726L10.2327 5.38591Z" fill="white"/>
<path d="M9.95 2.9436L9.942 2.94368L9.94183 2.92536L9.95538 2.93769L9.95 2.9436ZM10.2139 3.18355L10.2219 3.17483L10.2219 3.18348L10.2139 3.18355ZM9.96911 4.93748L9.96121 4.94793L9.96111 4.93755L9.96911 4.93748ZM10.2306 5.13501L10.2386 5.13494L10.2387 5.15118L10.2258 5.14139L10.2306 5.13501ZM10.2327 5.38591L10.2407 5.3755L10.2407 5.38584L10.2327 5.38591ZM10.4539 31.2813L10.5163 31.2808L10.455 31.2892L10.4539 31.2813ZM10.2219 31.3133L10.2133 31.251L10.2139 31.3134L10.2219 31.3133ZM9.97151 5.18726L9.96351 5.18734L9.96335 5.17101L9.97635 5.18089L9.97151 5.18726ZM9.95538 2.93769L10.2193 3.17763L10.2086 3.18947L9.94462 2.94952L9.95538 2.93769ZM9.96111 4.93755L9.942 2.94368L9.958 2.94353L9.97711 4.9374L9.96111 4.93755ZM10.2258 5.14139L9.96429 4.94386L9.97393 4.9311L10.2354 5.12863L10.2258 5.14139ZM10.2219 3.18348L10.2386 5.13494L10.2226 5.13508L10.2059 3.18362L10.2219 3.18348ZM10.2407 5.38584L10.4619 31.2812L10.4459 31.2814L10.2248 5.38597L10.2407 5.38584ZM10.455 31.2892L10.223 31.3212L10.2208 31.3054L10.4528 31.2734L10.455 31.2892ZM10.2139 31.3134L9.96351 5.18734L9.9795 5.18718L10.2299 31.3132L10.2139 31.3134ZM9.97635 5.18089L10.2376 5.37954L10.2279 5.39227L9.96667 5.19363L9.97635 5.18089Z" fill="black"/>
<path fill-rule="evenodd" clip-rule="evenodd" d="M2.99658 8.64281L1.74384 30.7454L1.87981 30.7613L3.14066 8.54252L2.99658 8.64281ZM3.15254 8.33306L3.2555 6.51874L3.11153 6.61472L3.0082 8.43789L3.15254 8.33306Z" fill="white"/>
<path d="M2.99658 8.64281L2.98917 8.63217L2.9886 8.64236L2.99658 8.64281ZM1.74384 30.7454L1.61172 30.7379L1.7429 30.7533L1.74384 30.7454ZM1.87981 30.7613L1.89528 30.6298L1.88779 30.7618L1.87981 30.7613ZM3.14066 8.54252L3.14864 8.54298L3.14957 8.52657L3.13609 8.53596L3.14066 8.54252ZM3.15254 8.33306L3.15997 8.34329L3.16053 8.33351L3.15254 8.33306ZM3.2555 6.51874L3.26348 6.51919L3.26439 6.5032L3.25106 6.51208L3.2555 6.51874ZM3.11153 6.61472L3.10415 6.60364L3.10355 6.61426L3.11153 6.61472ZM3.0082 8.43789L3.00021 8.43744L2.99926 8.45426L3.0129 8.44436L3.0082 8.43789ZM2.9886 8.64236L1.73585 30.7449L1.75182 30.7458L3.00457 8.64326L2.9886 8.64236ZM1.7429 30.7533L1.87887 30.7693L1.88074 30.7534L1.74477 30.7374L1.7429 30.7533ZM1.88779 30.7618L3.14864 8.54298L3.13267 8.54207L1.87182 30.7609L1.88779 30.7618ZM3.13609 8.53596L2.99201 8.63625L3.00115 8.64938L3.14523 8.54909L3.13609 8.53596ZM3.16053 8.33351L3.26348 6.51919L3.24751 6.51828L3.14456 8.33261L3.16053 8.33351ZM3.25106 6.51208L3.10709 6.60806L3.11597 6.62137L3.25994 6.52539L3.25106 6.51208ZM3.10355 6.61426L3.00021 8.43744L3.01618 8.43834L3.11952 6.61517L3.10355 6.61426ZM3.0129 8.44436L3.15724 8.33953L3.14784 8.32659L3.0035 8.43142L3.0129 8.44436Z" fill="black"/>
<path fill-rule="evenodd" clip-rule="evenodd" d="M3.69748 8.15493L2.56766 30.8174L2.70363 30.8334L3.91526 8.00334L3.69748 8.15493ZM3.92763 7.77017L4.02333 5.96692L3.79938 6.11089L3.70874 7.92913L3.92763 7.77017Z" fill="white"/>
<path d="M3.69748 8.15493L3.69001 8.1442L3.68949 8.15453L3.69748 8.15493ZM2.56766 30.8174L2.44885 30.8115L2.56672 30.8253L2.56766 30.8174ZM2.70363 30.8334L2.71822 30.7093L2.71161 30.8338L2.70363 30.8334ZM3.91526 8.00334L3.92324 8.00376L3.92411 7.98743L3.91069 7.99678L3.91526 8.00334ZM3.92763 7.77017L3.9351 7.78044L3.93562 7.77059L3.92763 7.77017ZM4.02333 5.96692L4.03132 5.96734L4.03215 5.95174L4.01901 5.96019L4.02333 5.96692ZM3.79938 6.11089L3.79195 6.09933L3.7914 6.11049L3.79938 6.11089ZM3.70874 7.92913L3.70075 7.92874L3.69992 7.94543L3.71344 7.93561L3.70874 7.92913ZM3.68949 8.15453L2.55967 30.817L2.57565 30.8178L3.70547 8.15533L3.68949 8.15453ZM2.56672 30.8253L2.70269 30.8413L2.70456 30.8254L2.56859 30.8095L2.56672 30.8253ZM2.71161 30.8338L3.92324 8.00376L3.90727 8.00292L2.69564 30.833L2.71161 30.8338ZM3.91069 7.99678L3.69291 8.14837L3.70205 8.1615L3.91983 8.0099L3.91069 7.99678ZM3.93562 7.77059L4.03132 5.96734L4.01535 5.9665L3.91965 7.76974L3.93562 7.77059ZM4.01901 5.96019L3.79506 6.10416L3.80371 6.11761L4.02766 5.97365L4.01901 5.96019ZM3.7914 6.11049L3.70075 7.92874L3.71672 7.92953L3.80737 6.11129L3.7914 6.11049ZM3.71344 7.93561L3.93233 7.77664L3.92293 7.76369L3.70404 7.92266L3.71344 7.93561Z" fill="black"/>
<path fill-rule="evenodd" clip-rule="evenodd" d="M4.43521 7.64141L3.41547 30.8974L3.55943 30.9054L4.61594 7.51561L4.43521 7.64141ZM4.62739 7.26198L4.71118 5.40704L4.52722 5.54301L4.44607 7.39366L4.62739 7.26198Z" fill="white"/>
<path d="M4.43521 7.64141L4.42768 7.63059L4.42722 7.64106L4.43521 7.64141ZM3.41547 30.8974L2.7317 30.8674L3.41502 30.9054L3.41547 30.8974ZM3.55943 30.9054L3.60223 30.1351L3.56742 30.9057L3.55943 30.9054ZM4.61594 7.51561L4.62393 7.51597L4.62466 7.4998L4.61137 7.50905L4.61594 7.51561ZM4.62739 7.26198L4.63493 7.27236L4.63538 7.26234L4.62739 7.26198ZM4.71118 5.40704L4.71917 5.4074L4.71993 5.39063L4.70642 5.40061L4.71118 5.40704ZM4.52722 5.54301L4.51966 5.53279L4.51923 5.54266L4.52722 5.54301ZM4.44607 7.39366L4.43808 7.39331L4.43735 7.40988L4.45077 7.40013L4.44607 7.39366ZM4.42722 7.64106L3.40748 30.897L3.42346 30.8977L4.4432 7.64176L4.42722 7.64106ZM3.41502 30.9054L3.55899 30.9134L3.55988 30.8974L3.41591 30.8894L3.41502 30.9054ZM3.56742 30.9057L4.62393 7.51597L4.60795 7.51525L3.55144 30.905L3.56742 30.9057ZM4.61137 7.50905L4.43064 7.63485L4.43978 7.64798L4.6205 7.52218L4.61137 7.50905ZM4.63538 7.26234L4.71917 5.4074L4.70319 5.40668L4.6194 7.26162L4.63538 7.26234ZM4.70642 5.40061L4.52247 5.53658L4.53197 5.54945L4.71593 5.41348L4.70642 5.40061ZM4.51923 5.54266L4.43808 7.39331L4.45406 7.39401L4.53521 5.54336L4.51923 5.54266ZM4.45077 7.40013L4.63209 7.26845L4.62269 7.25551L4.44137 7.38719L4.45077 7.40013Z" fill="black"/>
<path fill-rule="evenodd" clip-rule="evenodd" d="M5.23906 5.04712L5.45501 4.85516L5.38392 6.71258L5.17109 6.86714L5.23906 5.04712ZM5.16104 7.13619L4.27127 30.9614L4.45523 30.9774L5.37336 6.98839L5.16104 7.13619Z" fill="white"/>
<path d="M5.45501 4.85516L5.463 4.85547L5.46372 4.83672L5.44969 4.84919L5.45501 4.85516ZM5.23906 5.04712L5.23137 5.03848L5.23106 5.04682L5.23906 5.04712ZM5.38392 6.71258L5.39152 6.72305L5.39191 6.71288L5.38392 6.71258ZM5.17109 6.86714L5.16309 6.86684L5.16248 6.88328L5.17579 6.87361L5.17109 6.86714ZM5.16104 7.13619L5.15344 7.12528L5.15305 7.13589L5.16104 7.13619ZM4.27127 30.9614L4.10945 30.9553L4.27058 30.9693L4.27127 30.9614ZM4.45523 30.9774L4.46953 30.813L4.46322 30.9777L4.45523 30.9774ZM5.37336 6.98839L5.38135 6.9887L5.38197 6.97266L5.36879 6.98183L5.37336 6.98839ZM5.44969 4.84919L5.23374 5.04114L5.24437 5.0531L5.46032 4.86114L5.44969 4.84919ZM5.39191 6.71288L5.463 4.85547L5.44702 4.85486L5.37593 6.71227L5.39191 6.71288ZM5.17579 6.87361L5.38862 6.71905L5.37922 6.70611L5.16639 6.86067L5.17579 6.87361ZM5.23106 5.04682L5.16309 6.86684L5.17908 6.86744L5.24705 5.04742L5.23106 5.04682ZM5.15305 7.13589L4.26328 30.9611L4.27926 30.9617L5.16903 7.13649L5.15305 7.13589ZM4.27058 30.9693L4.45454 30.9853L4.45592 30.9694L4.27196 30.9534L4.27058 30.9693ZM4.46322 30.9777L5.38135 6.9887L5.36537 6.98809L4.44724 30.9771L4.46322 30.9777ZM5.36879 6.98183L5.15647 7.12962L5.16561 7.14275L5.37793 6.99496L5.36879 6.98183Z" fill="black"/>
<path fill-rule="evenodd" clip-rule="evenodd" d="M5.99889 4.44721L6.22284 4.24725L6.16508 6.14525L5.94297 6.30656L5.99889 4.44721ZM5.9342 6.59799L5.19907 31.0413L5.40702 31.0573L6.156 6.44359L5.9342 6.59799Z" fill="white"/>
<path d="M6.22284 4.24725L6.23083 4.2475L6.2314 4.22889L6.21751 4.24129L6.22284 4.24725ZM5.99889 4.44721L5.99115 4.43854L5.99089 4.44697L5.99889 4.44721ZM6.16508 6.14525L6.17276 6.15583L6.17308 6.1455L6.16508 6.14525ZM5.94297 6.30656L5.93497 6.30632L5.93448 6.32261L5.94767 6.31303L5.94297 6.30656ZM5.9342 6.59799L5.92653 6.58697L5.92621 6.59775L5.9342 6.59799ZM5.19907 31.0413L5.02784 31.0361L5.19845 31.0493L5.19907 31.0413ZM5.40702 31.0573L5.42026 30.8852L5.41501 31.0575L5.40702 31.0573ZM6.156 6.44359L6.164 6.44384L6.16448 6.42795L6.15144 6.43703L6.156 6.44359ZM6.21751 4.24129L5.99356 4.44124L6.00422 4.45318L6.22817 4.25322L6.21751 4.24129ZM6.17308 6.1455L6.23083 4.2475L6.21484 4.24701L6.15709 6.14501L6.17308 6.1455ZM5.94767 6.31303L6.16978 6.15173L6.16038 6.13878L5.93827 6.30009L5.94767 6.31303ZM5.99089 4.44697L5.93497 6.30632L5.95096 6.3068L6.00688 4.44745L5.99089 4.44697ZM5.92621 6.59775L5.19107 31.0411L5.20706 31.0415L5.9422 6.59823L5.92621 6.59775ZM5.19845 31.0493L5.40641 31.0653L5.40763 31.0493L5.19968 31.0333L5.19845 31.0493ZM5.41501 31.0575L6.164 6.44384L6.14801 6.44335L5.39903 31.057L5.41501 31.0575ZM6.15144 6.43703L5.92963 6.59142L5.93877 6.60455L6.16057 6.45016L6.15144 6.43703Z" fill="black"/>
<path fill-rule="evenodd" clip-rule="evenodd" d="M6.79069 3.80738L7.03864 3.59943L6.99405 5.54324L6.74867 5.72145L6.79069 3.80738ZM6.74177 6.03587L6.19083 31.1293L6.40678 31.1453L6.98666 5.8654L6.74177 6.03587Z" fill="white"/>
<path d="M7.03864 3.59943L7.04663 3.59961L7.04704 3.58194L7.0335 3.5933L7.03864 3.59943ZM6.79069 3.80738L6.7829 3.79808L6.7827 3.8072L6.79069 3.80738ZM6.99405 5.54324L7.00181 5.55392L7.00205 5.54343L6.99405 5.54324ZM6.74867 5.72145L6.74067 5.72127L6.74032 5.7374L6.75337 5.72792L6.74867 5.72145ZM6.74177 6.03587L6.73401 6.02473L6.73377 6.03569L6.74177 6.03587ZM6.19083 31.1293L6.03695 31.1259L6.19024 31.1373L6.19083 31.1293ZM6.40678 31.1453L6.41837 30.9889L6.41477 31.1455L6.40678 31.1453ZM6.98666 5.8654L6.99466 5.86559L6.99502 5.84984L6.98209 5.85884L6.98666 5.8654ZM7.0335 3.5933L6.78555 3.80125L6.79583 3.81351L7.04378 3.60555L7.0335 3.5933ZM7.00205 5.54343L7.04663 3.59961L7.03064 3.59924L6.98605 5.54306L7.00205 5.54343ZM6.75337 5.72792L6.99875 5.54971L6.98935 5.53677L6.74397 5.71497L6.75337 5.72792ZM6.7827 3.8072L6.74067 5.72127L6.75667 5.72162L6.79869 3.80756L6.7827 3.8072ZM6.73377 6.03569L6.18283 31.1291L6.19882 31.1295L6.74976 6.03604L6.73377 6.03569ZM6.19024 31.1373L6.40619 31.1533L6.40737 31.1373L6.19142 31.1213L6.19024 31.1373ZM6.41477 31.1455L6.99466 5.86559L6.97866 5.86522L6.39878 31.1451L6.41477 31.1455ZM6.98209 5.85884L6.7372 6.0293L6.74633 6.04243L6.99123 5.87197L6.98209 5.85884Z" fill="black"/>
<path fill-rule="evenodd" clip-rule="evenodd" d="M7.60654 3.18355L7.87048 2.9436L7.83962 4.92917L7.58006 5.11766L7.60654 3.18355ZM7.57543 5.45557L7.22263 31.2253L7.43058 31.2413L7.83423 5.27543L7.57543 5.45557Z" fill="white"/>
<path d="M7.87048 2.9436L7.87848 2.94373L7.87877 2.92526L7.8651 2.93769L7.87048 2.9436ZM7.60654 3.18355L7.59866 3.17488L7.59854 3.18344L7.60654 3.18355ZM7.83962 4.92917L7.84745 4.93995L7.84761 4.92929L7.83962 4.92917ZM7.58006 5.11766L7.57206 5.11755L7.57184 5.13352L7.58476 5.12414L7.58006 5.11766ZM7.57543 5.45557L7.56759 5.4443L7.56744 5.45546L7.57543 5.45557ZM7.22263 31.2253L7.09577 31.2236L7.22201 31.2333L7.22263 31.2253ZM7.43058 31.2413L7.4406 31.111L7.43858 31.2414L7.43058 31.2413ZM7.83423 5.27543L7.84223 5.27555L7.84247 5.25995L7.82966 5.26886L7.83423 5.27543ZM7.8651 2.93769L7.60116 3.17763L7.61192 3.18947L7.87586 2.94952L7.8651 2.93769ZM7.84761 4.92929L7.87848 2.94373L7.86248 2.94348L7.83162 4.92904L7.84761 4.92929ZM7.58476 5.12414L7.84432 4.93564L7.83492 4.9227L7.57536 5.11119L7.58476 5.12414ZM7.59854 3.18344L7.57206 5.11755L7.58806 5.11777L7.61454 3.18366L7.59854 3.18344ZM7.56744 5.45546L7.21463 31.2252L7.23062 31.2254L7.58343 5.45568L7.56744 5.45546ZM7.22201 31.2333L7.42997 31.2493L7.43119 31.2333L7.22324 31.2173L7.22201 31.2333ZM7.43858 31.2414L7.84223 5.27555L7.82624 5.2753L7.42258 31.2412L7.43858 31.2414ZM7.82966 5.26886L7.57087 5.44901L7.58 5.46213L7.8388 5.28199L7.82966 5.26886Z" fill="black"/>
<circle cx="19.4914" cy="26.5086" r="7.2633" fill="white"/>
<path fill-rule="evenodd" clip-rule="evenodd" d="M19.5 34.9C24.1392 34.9 27.9 31.1392 27.9 26.5C27.9 21.8608 24.1392 18.1 19.5 18.1C14.8608 18.1 11.1 21.8608 11.1 26.5C11.1 31.1392 14.8608 34.9 19.5 34.9ZM23.3925 25.1424C23.8025 24.7324 23.8025 24.0676 23.3925 23.6575C22.9824 23.2475 22.3176 23.2475 21.9076 23.6575L18.45 27.1151L17.0925 25.7575C16.6824 25.3475 16.0176 25.3475 15.6076 25.7575C15.1975 26.1676 15.1975 26.8324 15.6076 27.2424L17.7076 29.3425C18.1176 29.7525 18.7824 29.7525 19.1925 29.3425L23.3925 25.1424Z" fill="#881C1C"/>
</svg>
