<svg width="72" height="14" viewBox="0 0 72 14" fill="none" xmlns="http://www.w3.org/2000/svg">
<mask id="path-1-outside-1_129_127" maskUnits="userSpaceOnUse" x="0" y="0" width="72" height="14" fill="black">
<rect fill="white" width="72" height="14"/>
<path d="M4.67928 3.232V8.544C4.67928 9.29067 4.85528 9.81867 5.20728 10.128C5.56995 10.4267 6.08195 10.576 6.74328 10.576C7.41528 10.576 7.93261 10.4107 8.29528 10.08C8.66861 9.74933 8.85528 9.264 8.85528 8.624V2.768L7.92728 2.72V1.36H11.7193V2.656L11.1913 2.704C10.8819 2.736 10.7273 2.896 10.7273 3.184V8.896C10.7273 9.93067 10.3646 10.7413 9.63928 11.328C8.91395 11.9147 7.91128 12.208 6.63128 12.208C5.35128 12.208 4.38061 11.9253 3.71928 11.36C3.06861 10.784 2.74328 9.87733 2.74328 8.64V2.768L1.81528 2.72V1.36H5.68728V2.656L5.15928 2.704C4.98861 2.72533 4.86595 2.77333 4.79128 2.848C4.71661 2.912 4.67928 3.04 4.67928 3.232ZM15.7862 4.02L17.8262 9.444H17.8502L19.9022 4.02H22.2782V4.992L21.8822 5.028C21.6422 5.052 21.5262 5.192 21.5342 5.448L21.8342 10.944L22.5782 10.98V12H19.6862V11.028L20.1182 10.992C20.3342 10.976 20.4382 10.872 20.4302 10.68L20.2022 6.444H20.1782L18.3302 11.232H17.1902L15.3662 6.492H15.3422L15.1022 10.944L15.8822 10.98V12H13.0502V11.028L13.4822 10.992C13.6662 10.976 13.7662 10.868 13.7822 10.668L14.1062 5.088L13.3742 5.04V4.02H15.7862ZM24.234 10.656L26.166 5.064L25.41 4.992V4.02H28.158L30.606 10.944H30.618L31.302 10.98V12H28.206V11.028L28.662 10.992C28.798 10.976 28.89 10.944 28.938 10.896C28.986 10.848 28.99 10.76 28.95 10.632L28.698 9.888H25.89L25.53 10.944L26.25 10.98V12H23.478V11.028L23.874 10.992C24.042 10.976 24.162 10.864 24.234 10.656ZM27.294 5.364L26.178 8.784H28.41L27.33 5.364H27.294ZM34.8553 10.92C35.8153 10.92 36.2953 10.536 36.2953 9.768C36.2953 9.368 36.0833 9.072 35.6593 8.88C35.4353 8.768 35.1433 8.664 34.7833 8.568C34.4313 8.472 34.1353 8.376 33.8953 8.28C33.6633 8.176 33.4273 8.036 33.1873 7.86C32.7153 7.508 32.4793 6.968 32.4793 6.24C32.4793 5.504 32.7313 4.928 33.2353 4.512C33.7473 4.088 34.4113 3.876 35.2273 3.876C36.0513 3.876 36.8153 4.04 37.5193 4.368V6.168L36.2953 6.252V5.556C36.2953 5.436 36.2793 5.348 36.2473 5.292C36.1593 5.14 35.8753 5.064 35.3953 5.064C34.9233 5.064 34.5713 5.148 34.3393 5.316C34.1153 5.484 34.0033 5.744 34.0033 6.096C34.0033 6.352 34.0993 6.576 34.2913 6.768C34.4193 6.896 34.6073 7.004 34.8553 7.092C35.1113 7.172 35.3793 7.256 35.6593 7.344C35.9473 7.432 36.1993 7.528 36.4153 7.632C36.6393 7.736 36.8713 7.88 37.1113 8.064C37.5993 8.424 37.8433 8.98 37.8433 9.732C37.8433 10.484 37.5713 11.076 37.0273 11.508C36.4913 11.94 35.7793 12.156 34.8913 12.156C34.0113 12.156 33.2193 11.992 32.5153 11.664V9.768L33.7393 9.684V10.416C33.7393 10.536 33.7553 10.624 33.7873 10.68C33.8193 10.736 33.9153 10.792 34.0753 10.848C34.2433 10.896 34.5033 10.92 34.8553 10.92ZM41.7248 10.92C42.6848 10.92 43.1648 10.536 43.1648 9.768C43.1648 9.368 42.9528 9.072 42.5288 8.88C42.3048 8.768 42.0128 8.664 41.6528 8.568C41.3008 8.472 41.0048 8.376 40.7648 8.28C40.5328 8.176 40.2968 8.036 40.0568 7.86C39.5848 7.508 39.3488 6.968 39.3488 6.24C39.3488 5.504 39.6008 4.928 40.1048 4.512C40.6168 4.088 41.2808 3.876 42.0968 3.876C42.9208 3.876 43.6848 4.04 44.3888 4.368V6.168L43.1648 6.252V5.556C43.1648 5.436 43.1488 5.348 43.1168 5.292C43.0288 5.14 42.7448 5.064 42.2648 5.064C41.7928 5.064 41.4408 5.148 41.2088 5.316C40.9848 5.484 40.8728 5.744 40.8728 6.096C40.8728 6.352 40.9688 6.576 41.1608 6.768C41.2888 6.896 41.4768 7.004 41.7248 7.092C41.9808 7.172 42.2488 7.256 42.5288 7.344C42.8168 7.432 43.0688 7.528 43.2848 7.632C43.5088 7.736 43.7408 7.88 43.9808 8.064C44.4688 8.424 44.7128 8.98 44.7128 9.732C44.7128 10.484 44.4408 11.076 43.8968 11.508C43.3608 11.94 42.6488 12.156 41.7608 12.156C40.8808 12.156 40.0888 11.992 39.3848 11.664V9.768L40.6088 9.684V10.416C40.6088 10.536 40.6248 10.624 40.6568 10.68C40.6888 10.736 40.7848 10.792 40.9448 10.848C41.1128 10.896 41.3728 10.92 41.7248 10.92ZM50.2175 12V10.704L50.7455 10.656C51.0548 10.624 51.2095 10.4747 51.2095 10.208V2.768L50.2975 2.72V1.36H54.6655C55.9028 1.36 56.8521 1.58933 57.5135 2.048C58.1748 2.50667 58.5055 3.25867 58.5055 4.304C58.5055 5.02933 58.3135 5.62667 57.9295 6.096C57.5561 6.56533 57.1081 6.90667 56.5855 7.12C56.9695 7.25867 57.2735 7.584 57.4975 8.096L58.6495 10.608L59.5615 10.64V12H55.6095V10.704L56.0735 10.656C56.3188 10.624 56.4415 10.528 56.4415 10.368C56.4415 10.304 56.4201 10.2293 56.3775 10.144L55.6255 8.544C55.5081 8.27733 55.3748 8.09067 55.2255 7.984C55.0868 7.86667 54.8841 7.808 54.6175 7.808H53.1615V10.592L54.2015 10.64V12H50.2175ZM53.1615 6.288H54.5535C55.8655 6.288 56.5215 5.70133 56.5215 4.528C56.5215 3.856 56.3455 3.41867 55.9935 3.216C55.6521 3.01333 55.0975 2.912 54.3295 2.912H53.1615V6.288ZM61.0331 12V10.704L61.5611 10.656C61.8704 10.624 62.0251 10.4747 62.0251 10.208V2.768L61.1131 2.72V1.36H65.4811C66.7184 1.36 67.6678 1.58933 68.3291 2.048C68.9904 2.50667 69.3211 3.25867 69.3211 4.304C69.3211 5.02933 69.1291 5.62667 68.7451 6.096C68.3718 6.56533 67.9238 6.90667 67.4011 7.12C67.7851 7.25867 68.0891 7.584 68.3131 8.096L69.4651 10.608L70.3771 10.64V12H66.4251V10.704L66.8891 10.656C67.1344 10.624 67.2571 10.528 67.2571 10.368C67.2571 10.304 67.2358 10.2293 67.1931 10.144L66.4411 8.544C66.3238 8.27733 66.1904 8.09067 66.0411 7.984C65.9024 7.86667 65.6998 7.808 65.4331 7.808H63.9771V10.592L65.0171 10.64V12H61.0331ZM63.9771 6.288H65.3691C66.6811 6.288 67.3371 5.70133 67.3371 4.528C67.3371 3.856 67.1611 3.41867 66.8091 3.216C66.4678 3.01333 65.9131 2.912 65.1451 2.912H63.9771V6.288Z"/>
</mask>
<path d="M4.67928 3.232V8.544C4.67928 9.29067 4.85528 9.81867 5.20728 10.128C5.56995 10.4267 6.08195 10.576 6.74328 10.576C7.41528 10.576 7.93261 10.4107 8.29528 10.08C8.66861 9.74933 8.85528 9.264 8.85528 8.624V2.768L7.92728 2.72V1.36H11.7193V2.656L11.1913 2.704C10.8819 2.736 10.7273 2.896 10.7273 3.184V8.896C10.7273 9.93067 10.3646 10.7413 9.63928 11.328C8.91395 11.9147 7.91128 12.208 6.63128 12.208C5.35128 12.208 4.38061 11.9253 3.71928 11.36C3.06861 10.784 2.74328 9.87733 2.74328 8.64V2.768L1.81528 2.72V1.36H5.68728V2.656L5.15928 2.704C4.98861 2.72533 4.86595 2.77333 4.79128 2.848C4.71661 2.912 4.67928 3.04 4.67928 3.232ZM15.7862 4.02L17.8262 9.444H17.8502L19.9022 4.02H22.2782V4.992L21.8822 5.028C21.6422 5.052 21.5262 5.192 21.5342 5.448L21.8342 10.944L22.5782 10.98V12H19.6862V11.028L20.1182 10.992C20.3342 10.976 20.4382 10.872 20.4302 10.68L20.2022 6.444H20.1782L18.3302 11.232H17.1902L15.3662 6.492H15.3422L15.1022 10.944L15.8822 10.98V12H13.0502V11.028L13.4822 10.992C13.6662 10.976 13.7662 10.868 13.7822 10.668L14.1062 5.088L13.3742 5.04V4.02H15.7862ZM24.234 10.656L26.166 5.064L25.41 4.992V4.02H28.158L30.606 10.944H30.618L31.302 10.98V12H28.206V11.028L28.662 10.992C28.798 10.976 28.89 10.944 28.938 10.896C28.986 10.848 28.99 10.76 28.95 10.632L28.698 9.888H25.89L25.53 10.944L26.25 10.98V12H23.478V11.028L23.874 10.992C24.042 10.976 24.162 10.864 24.234 10.656ZM27.294 5.364L26.178 8.784H28.41L27.33 5.364H27.294ZM34.8553 10.92C35.8153 10.92 36.2953 10.536 36.2953 9.768C36.2953 9.368 36.0833 9.072 35.6593 8.88C35.4353 8.768 35.1433 8.664 34.7833 8.568C34.4313 8.472 34.1353 8.376 33.8953 8.28C33.6633 8.176 33.4273 8.036 33.1873 7.86C32.7153 7.508 32.4793 6.968 32.4793 6.24C32.4793 5.504 32.7313 4.928 33.2353 4.512C33.7473 4.088 34.4113 3.876 35.2273 3.876C36.0513 3.876 36.8153 4.04 37.5193 4.368V6.168L36.2953 6.252V5.556C36.2953 5.436 36.2793 5.348 36.2473 5.292C36.1593 5.14 35.8753 5.064 35.3953 5.064C34.9233 5.064 34.5713 5.148 34.3393 5.316C34.1153 5.484 34.0033 5.744 34.0033 6.096C34.0033 6.352 34.0993 6.576 34.2913 6.768C34.4193 6.896 34.6073 7.004 34.8553 7.092C35.1113 7.172 35.3793 7.256 35.6593 7.344C35.9473 7.432 36.1993 7.528 36.4153 7.632C36.6393 7.736 36.8713 7.88 37.1113 8.064C37.5993 8.424 37.8433 8.98 37.8433 9.732C37.8433 10.484 37.5713 11.076 37.0273 11.508C36.4913 11.94 35.7793 12.156 34.8913 12.156C34.0113 12.156 33.2193 11.992 32.5153 11.664V9.768L33.7393 9.684V10.416C33.7393 10.536 33.7553 10.624 33.7873 10.68C33.8193 10.736 33.9153 10.792 34.0753 10.848C34.2433 10.896 34.5033 10.92 34.8553 10.92ZM41.7248 10.92C42.6848 10.92 43.1648 10.536 43.1648 9.768C43.1648 9.368 42.9528 9.072 42.5288 8.88C42.3048 8.768 42.0128 8.664 41.6528 8.568C41.3008 8.472 41.0048 8.376 40.7648 8.28C40.5328 8.176 40.2968 8.036 40.0568 7.86C39.5848 7.508 39.3488 6.968 39.3488 6.24C39.3488 5.504 39.6008 4.928 40.1048 4.512C40.6168 4.088 41.2808 3.876 42.0968 3.876C42.9208 3.876 43.6848 4.04 44.3888 4.368V6.168L43.1648 6.252V5.556C43.1648 5.436 43.1488 5.348 43.1168 5.292C43.0288 5.14 42.7448 5.064 42.2648 5.064C41.7928 5.064 41.4408 5.148 41.2088 5.316C40.9848 5.484 40.8728 5.744 40.8728 6.096C40.8728 6.352 40.9688 6.576 41.1608 6.768C41.2888 6.896 41.4768 7.004 41.7248 7.092C41.9808 7.172 42.2488 7.256 42.5288 7.344C42.8168 7.432 43.0688 7.528 43.2848 7.632C43.5088 7.736 43.7408 7.88 43.9808 8.064C44.4688 8.424 44.7128 8.98 44.7128 9.732C44.7128 10.484 44.4408 11.076 43.8968 11.508C43.3608 11.94 42.6488 12.156 41.7608 12.156C40.8808 12.156 40.0888 11.992 39.3848 11.664V9.768L40.6088 9.684V10.416C40.6088 10.536 40.6248 10.624 40.6568 10.68C40.6888 10.736 40.7848 10.792 40.9448 10.848C41.1128 10.896 41.3728 10.92 41.7248 10.92ZM50.2175 12V10.704L50.7455 10.656C51.0548 10.624 51.2095 10.4747 51.2095 10.208V2.768L50.2975 2.72V1.36H54.6655C55.9028 1.36 56.8521 1.58933 57.5135 2.048C58.1748 2.50667 58.5055 3.25867 58.5055 4.304C58.5055 5.02933 58.3135 5.62667 57.9295 6.096C57.5561 6.56533 57.1081 6.90667 56.5855 7.12C56.9695 7.25867 57.2735 7.584 57.4975 8.096L58.6495 10.608L59.5615 10.64V12H55.6095V10.704L56.0735 10.656C56.3188 10.624 56.4415 10.528 56.4415 10.368C56.4415 10.304 56.4201 10.2293 56.3775 10.144L55.6255 8.544C55.5081 8.27733 55.3748 8.09067 55.2255 7.984C55.0868 7.86667 54.8841 7.808 54.6175 7.808H53.1615V10.592L54.2015 10.64V12H50.2175ZM53.1615 6.288H54.5535C55.8655 6.288 56.5215 5.70133 56.5215 4.528C56.5215 3.856 56.3455 3.41867 55.9935 3.216C55.6521 3.01333 55.0975 2.912 54.3295 2.912H53.1615V6.288ZM61.0331 12V10.704L61.5611 10.656C61.8704 10.624 62.0251 10.4747 62.0251 10.208V2.768L61.1131 2.72V1.36H65.4811C66.7184 1.36 67.6678 1.58933 68.3291 2.048C68.9904 2.50667 69.3211 3.25867 69.3211 4.304C69.3211 5.02933 69.1291 5.62667 68.7451 6.096C68.3718 6.56533 67.9238 6.90667 67.4011 7.12C67.7851 7.25867 68.0891 7.584 68.3131 8.096L69.4651 10.608L70.3771 10.64V12H66.4251V10.704L66.8891 10.656C67.1344 10.624 67.2571 10.528 67.2571 10.368C67.2571 10.304 67.2358 10.2293 67.1931 10.144L66.4411 8.544C66.3238 8.27733 66.1904 8.09067 66.0411 7.984C65.9024 7.86667 65.6998 7.808 65.4331 7.808H63.9771V10.592L65.0171 10.64V12H61.0331ZM63.9771 6.288H65.3691C66.6811 6.288 67.3371 5.70133 67.3371 4.528C67.3371 3.856 67.1611 3.41867 66.8091 3.216C66.4678 3.01333 65.9131 2.912 65.1451 2.912H63.9771V6.288Z" fill="#881C1C"/>
<path d="M5.20728 10.128L4.54717 10.8792L4.5592 10.8897L4.57157 10.8999L5.20728 10.128ZM8.29528 10.08L7.63224 9.33141L7.62685 9.33619L7.62153 9.34104L8.29528 10.08ZM8.85528 2.768H9.85528V1.81839L8.90694 1.76933L8.85528 2.768ZM7.92728 2.72H6.92728V3.66961L7.87562 3.71866L7.92728 2.72ZM7.92728 1.36V0.36H6.92728V1.36H7.92728ZM11.7193 1.36H12.7193V0.36H11.7193V1.36ZM11.7193 2.656L11.8098 3.65189L12.7193 3.56921V2.656H11.7193ZM11.1913 2.704L11.1007 1.70803L11.0884 1.70931L11.1913 2.704ZM9.63928 11.328L9.01041 10.5505L9.01041 10.5505L9.63928 11.328ZM3.71928 11.36L3.05644 12.1088L3.06292 12.1145L3.0695 12.1201L3.71928 11.36ZM2.74328 2.768H3.74328V1.81839L2.79494 1.76933L2.74328 2.768ZM1.81528 2.72H0.81528V3.66961L1.76362 3.71866L1.81528 2.72ZM1.81528 1.36V0.36H0.81528V1.36H1.81528ZM5.68728 1.36H6.68728V0.36H5.68728V1.36ZM5.68728 2.656L5.77782 3.65189L6.68728 3.56921V2.656H5.68728ZM5.15928 2.704L5.06874 1.70811L5.05196 1.70963L5.03525 1.71172L5.15928 2.704ZM4.79128 2.848L5.44207 3.60726L5.47123 3.58226L5.49839 3.5551L4.79128 2.848ZM3.67928 3.232V8.544H5.67928V3.232H3.67928ZM3.67928 8.544C3.67928 9.41038 3.87883 10.2918 4.54717 10.8792L5.86739 9.37684C5.83173 9.34549 5.67928 9.17095 5.67928 8.544H3.67928ZM4.57157 10.8999C5.17397 11.396 5.94316 11.576 6.74328 11.576V9.576C6.22074 9.576 5.96592 9.45731 5.84299 9.35607L4.57157 10.8999ZM6.74328 11.576C7.57166 11.576 8.36344 11.3711 8.96903 10.819L7.62153 9.34104C7.50179 9.45022 7.2589 9.576 6.74328 9.576V11.576ZM8.95832 10.8286C9.60319 10.2574 9.85528 9.46367 9.85528 8.624H7.85528C7.85528 9.06433 7.73404 9.24125 7.63224 9.33141L8.95832 10.8286ZM9.85528 8.624V2.768H7.85528V8.624H9.85528ZM8.90694 1.76933L7.97894 1.72133L7.87562 3.71866L8.80362 3.76666L8.90694 1.76933ZM8.92728 2.72V1.36H6.92728V2.72H8.92728ZM7.92728 2.36H11.7193V0.36H7.92728V2.36ZM10.7193 1.36V2.656H12.7193V1.36H10.7193ZM11.6287 1.66011L11.1007 1.70811L11.2818 3.69989L11.8098 3.65189L11.6287 1.66011ZM11.0884 1.70931C10.7917 1.74 10.4199 1.84719 10.1243 2.15298C9.81827 2.46956 9.72728 2.85989 9.72728 3.184H11.7273C11.7273 3.22011 11.7136 3.38644 11.5623 3.54302C11.4213 3.68881 11.2815 3.7 11.2942 3.69869L11.0884 1.70931ZM9.72728 3.184V8.896H11.7273V3.184H9.72728ZM9.72728 8.896C9.72728 9.66617 9.47339 10.176 9.01041 10.5505L10.2681 12.1055C11.2558 11.3066 11.7273 10.1952 11.7273 8.896H9.72728ZM9.01041 10.5505C8.51921 10.9478 7.76688 11.208 6.63128 11.208V13.208C8.05568 13.208 9.30868 12.8816 10.2681 12.1055L9.01041 10.5505ZM6.63128 11.208C5.48023 11.208 4.78066 10.9517 4.36906 10.5999L3.0695 12.1201C3.98057 12.8989 5.22233 13.208 6.63128 13.208V11.208ZM4.38212 10.6112C4.02431 10.2945 3.74328 9.7158 3.74328 8.64H1.74328C1.74328 10.0389 2.11292 11.2735 3.05644 12.1088L4.38212 10.6112ZM3.74328 8.64V2.768H1.74328V8.64H3.74328ZM2.79494 1.76933L1.86694 1.72133L1.76362 3.71866L2.69162 3.76666L2.79494 1.76933ZM2.81528 2.72V1.36H0.81528V2.72H2.81528ZM1.81528 2.36H5.68728V0.36H1.81528V2.36ZM4.68728 1.36V2.656H6.68728V1.36H4.68728ZM5.59674 1.66011L5.06874 1.70811L5.24982 3.69989L5.77782 3.65189L5.59674 1.66011ZM5.03525 1.71172C4.772 1.74463 4.38788 1.83718 4.08417 2.14089L5.49839 3.5551C5.41721 3.63628 5.34001 3.67303 5.30368 3.68724C5.26838 3.70106 5.25677 3.6996 5.28331 3.69628L5.03525 1.71172ZM4.14049 2.08874C3.70688 2.46041 3.67928 2.99801 3.67928 3.232H5.67928C5.67928 3.19294 5.68398 3.21474 5.66728 3.272C5.65039 3.3299 5.59598 3.47533 5.44207 3.60726L4.14049 2.08874ZM15.7862 4.02L16.7221 3.66797L16.4784 3.02H15.7862V4.02ZM17.8262 9.444L16.8902 9.79603L17.1339 10.444H17.8262V9.444ZM17.8502 9.444V10.444H18.541L18.7855 9.79784L17.8502 9.444ZM19.9022 4.02V3.02H19.2113L18.9669 3.66616L19.9022 4.02ZM22.2782 4.02H23.2782V3.02H22.2782V4.02ZM22.2782 4.992L22.3687 5.98789L23.2782 5.90521V4.992H22.2782ZM21.8822 5.028L21.7916 4.03207L21.7827 4.03296L21.8822 5.028ZM21.5342 5.448L20.5346 5.47924L20.535 5.49088L20.5356 5.5025L21.5342 5.448ZM21.8342 10.944L20.8356 10.9985L20.8848 11.8992L21.7858 11.9428L21.8342 10.944ZM22.5782 10.98H23.5782V10.0272L22.6265 9.98117L22.5782 10.98ZM22.5782 12V13H23.5782V12H22.5782ZM19.6862 12H18.6862V13H19.6862V12ZM19.6862 11.028L19.6031 10.0315L18.6862 10.1079V11.028H19.6862ZM20.1182 10.992L20.0443 9.99469L20.0351 9.99545L20.1182 10.992ZM20.4302 10.68L21.4294 10.6384L21.4287 10.6263L20.4302 10.68ZM20.2022 6.444L21.2007 6.39025L21.1498 5.444H20.2022V6.444ZM20.1782 6.444V5.444H19.4922L19.2452 6.08392L20.1782 6.444ZM18.3302 11.232V12.232H19.0161L19.2631 11.5921L18.3302 11.232ZM17.1902 11.232L16.2569 11.5911L16.5035 12.232H17.1902V11.232ZM15.3662 6.492L16.2994 6.13286L16.0528 5.492H15.3662V6.492ZM15.3422 6.492V5.492H14.3946L14.3436 6.43817L15.3422 6.492ZM15.1022 10.944L14.1036 10.8902L14.0494 11.8965L15.0561 11.9429L15.1022 10.944ZM15.8822 10.98H16.8822V10.0251L15.9283 9.98106L15.8822 10.98ZM15.8822 12V13H16.8822V12H15.8822ZM13.0502 12H12.0502V13H13.0502V12ZM13.0502 11.028L12.9671 10.0315L12.0502 10.1079V11.028H13.0502ZM13.4822 10.992L13.5652 11.9886L13.5688 11.9882L13.4822 10.992ZM13.7822 10.668L14.779 10.7477L14.7798 10.7369L14.7805 10.726L13.7822 10.668ZM14.1062 5.088L15.1045 5.14597L15.162 4.15509L14.1716 4.09014L14.1062 5.088ZM13.3742 5.04H12.3742V5.97657L13.3087 6.03786L13.3742 5.04ZM13.3742 4.02V3.02H12.3742V4.02H13.3742ZM14.8502 4.37203L16.8902 9.79603L18.7621 9.09197L16.7221 3.66797L14.8502 4.37203ZM17.8262 10.444H17.8502V8.444H17.8262V10.444ZM18.7855 9.79784L20.8375 4.37384L18.9669 3.66616L16.9149 9.09016L18.7855 9.79784ZM19.9022 5.02H22.2782V3.02H19.9022V5.02ZM21.2782 4.02V4.992H23.2782V4.02H21.2782ZM22.1876 3.99611L21.7916 4.03211L21.9727 6.02389L22.3687 5.98789L22.1876 3.99611ZM21.7827 4.03296C21.4892 4.06231 21.1202 4.18102 20.8451 4.51298C20.5783 4.83499 20.5261 5.20663 20.5346 5.47924L22.5337 5.41676C22.5342 5.43337 22.536 5.60701 22.3852 5.78902C22.2261 5.98098 22.0351 6.01769 21.9817 6.02304L21.7827 4.03296ZM20.5356 5.5025L20.8356 10.9985L22.8327 10.8895L22.5327 5.3935L20.5356 5.5025ZM21.7858 11.9428L22.5298 11.9788L22.6265 9.98117L21.8825 9.94517L21.7858 11.9428ZM21.5782 10.98V12H23.5782V10.98H21.5782ZM22.5782 11H19.6862V13H22.5782V11ZM20.6862 12V11.028H18.6862V12H20.6862ZM19.7692 12.0245L20.2012 11.9885L20.0351 9.99545L19.6031 10.0315L19.7692 12.0245ZM20.192 11.9893C20.429 11.9717 20.7793 11.895 21.0653 11.6091C21.371 11.3034 21.4412 10.9235 21.4293 10.6384L19.431 10.7216C19.4271 10.6285 19.4493 10.3966 19.651 10.1949C19.833 10.013 20.0233 9.99628 20.0443 9.99473L20.192 11.9893ZM21.4287 10.6263L21.2007 6.39025L19.2036 6.49775L19.4316 10.7337L21.4287 10.6263ZM20.2022 5.444H20.1782V7.444H20.2022V5.444ZM19.2452 6.08392L17.3972 10.8719L19.2631 11.5921L21.1111 6.80408L19.2452 6.08392ZM18.3302 10.232H17.1902V12.232H18.3302V10.232ZM18.1234 10.8729L16.2994 6.13286L14.4329 6.85114L16.2569 11.5911L18.1234 10.8729ZM15.3662 5.492H15.3422V7.492H15.3662V5.492ZM14.3436 6.43817L14.1036 10.8902L16.1007 10.9978L16.3407 6.54583L14.3436 6.43817ZM15.0561 11.9429L15.8361 11.9789L15.9283 9.98106L15.1483 9.94506L15.0561 11.9429ZM14.8822 10.98V12H16.8822V10.98H14.8822ZM15.8822 11H13.0502V13H15.8822V11ZM14.0502 12V11.028H12.0502V12H14.0502ZM13.1332 12.0245L13.5652 11.9885L13.3991 9.99545L12.9671 10.0315L13.1332 12.0245ZM13.5688 11.9882C13.8428 11.9644 14.1701 11.8579 14.4289 11.5784C14.6785 11.3089 14.7595 10.991 14.779 10.7477L12.7853 10.5883C12.7888 10.545 12.8118 10.3811 12.9614 10.2196C13.1202 10.0481 13.3055 10.0036 13.3955 9.99576L13.5688 11.9882ZM14.7805 10.726L15.1045 5.14597L13.1078 5.03003L12.7838 10.61L14.7805 10.726ZM14.1716 4.09014L13.4396 4.04214L13.3087 6.03786L14.0407 6.08586L14.1716 4.09014ZM14.3742 5.04V4.02H12.3742V5.04H14.3742ZM13.3742 5.02H15.7862V3.02H13.3742V5.02ZM24.234 10.656L25.179 10.9831L25.1791 10.9826L24.234 10.656ZM26.166 5.064L27.1111 5.39055L27.5263 4.18903L26.2608 4.0685L26.166 5.064ZM25.41 4.992H24.41V5.90129L25.3152 5.98749L25.41 4.992ZM25.41 4.02V3.02H24.41V4.02H25.41ZM28.158 4.02L29.1008 3.68667L28.8651 3.02H28.158V4.02ZM30.606 10.944L29.6632 11.2773L29.8989 11.944H30.606V10.944ZM30.618 10.944L30.6705 9.94538L30.6443 9.944H30.618V10.944ZM31.302 10.98H32.302V10.0312L31.3545 9.98138L31.302 10.98ZM31.302 12V13H32.302V12H31.302ZM28.206 12H27.206V13H28.206V12ZM28.206 11.028L28.1273 10.0311L27.206 10.1038V11.028H28.206ZM28.662 10.992L28.7407 11.9889L28.7598 11.9874L28.7788 11.9852L28.662 10.992ZM28.938 10.896L28.2309 10.1889L28.2309 10.1889L28.938 10.896ZM28.95 10.632L29.9044 10.3337L29.9009 10.3224L29.8971 10.3112L28.95 10.632ZM28.698 9.888L29.6451 9.56719L29.4151 8.888H28.698V9.888ZM25.89 9.888V8.888H25.1744L24.9435 9.56533L25.89 9.888ZM25.53 10.944L24.5835 10.6213L24.1555 11.8765L25.48 11.9428L25.53 10.944ZM26.25 10.98H27.25V10.0288L26.2999 9.98125L26.25 10.98ZM26.25 12V13H27.25V12H26.25ZM23.478 12H22.478V13H23.478V12ZM23.478 11.028L23.3874 10.0321L22.478 10.1148V11.028H23.478ZM23.874 10.992L23.9645 11.9879L23.9688 11.9875L23.874 10.992ZM27.294 5.364V4.364H26.5684L26.3433 5.05378L27.294 5.364ZM26.178 8.784L25.2273 8.47378L24.7998 9.784H26.178V8.784ZM28.41 8.784V9.784H29.7744L29.3635 8.48287L28.41 8.784ZM27.33 5.364L28.2835 5.06287L28.0629 4.364H27.33V5.364ZM25.1791 10.9826L27.1111 5.39055L25.2208 4.73745L23.2888 10.3294L25.1791 10.9826ZM26.2608 4.0685L25.5048 3.9965L25.3152 5.98749L26.0712 6.0595L26.2608 4.0685ZM26.41 4.992V4.02H24.41V4.992H26.41ZM25.41 5.02H28.158V3.02H25.41V5.02ZM27.2152 4.35333L29.6632 11.2773L31.5488 10.6107L29.1008 3.68667L27.2152 4.35333ZM30.606 11.944H30.618V9.944H30.606V11.944ZM30.5654 11.9426L31.2494 11.9786L31.3545 9.98138L30.6705 9.94538L30.5654 11.9426ZM30.302 10.98V12H32.302V10.98H30.302ZM31.302 11H28.206V13H31.302V11ZM29.206 12V11.028H27.206V12H29.206ZM28.2847 12.0249L28.7407 11.9889L28.5833 9.9951L28.1273 10.0311L28.2847 12.0249ZM28.7788 11.9852C28.9478 11.9653 29.3415 11.9066 29.6451 11.6031L28.2309 10.1889C28.3496 10.0702 28.4655 10.025 28.5044 10.0115C28.5484 9.99621 28.5676 9.9962 28.5451 9.99885L28.7788 11.9852ZM29.6451 11.6031C29.893 11.3552 29.9661 11.0563 29.9759 10.8394C29.9852 10.635 29.9429 10.4569 29.9044 10.3337L27.9955 10.9303C27.9947 10.9278 27.9898 10.9119 27.9853 10.8849C27.9809 10.8586 27.9751 10.8113 27.978 10.7486C27.9839 10.6197 28.031 10.3888 28.2309 10.1889L29.6451 11.6031ZM29.8971 10.3112L29.6451 9.56719L27.7508 10.2088L28.0028 10.9528L29.8971 10.3112ZM28.698 8.888H25.89V10.888H28.698V8.888ZM24.9435 9.56533L24.5835 10.6213L26.4765 11.2667L26.8365 10.2107L24.9435 9.56533ZM25.48 11.9428L26.2 11.9788L26.2999 9.98125L25.5799 9.94525L25.48 11.9428ZM25.25 10.98V12H27.25V10.98H25.25ZM26.25 11H23.478V13H26.25V11ZM24.478 12V11.028H22.478V12H24.478ZM23.5685 12.0239L23.9645 11.9879L23.7834 9.99611L23.3874 10.0321L23.5685 12.0239ZM23.9688 11.9875C24.2658 11.9592 24.5462 11.8381 24.7723 11.6271C24.9851 11.4284 25.107 11.1908 25.179 10.9831L23.289 10.3289C23.2897 10.3269 23.2962 10.3082 23.3135 10.2795C23.331 10.2502 23.3609 10.2086 23.4076 10.1649C23.5138 10.0659 23.6502 10.0088 23.7792 9.9965L23.9688 11.9875ZM26.3433 5.05378L25.2273 8.47378L27.1286 9.09422L28.2446 5.67422L26.3433 5.05378ZM26.178 9.784H28.41V7.784H26.178V9.784ZM29.3635 8.48287L28.2835 5.06287L26.3764 5.66513L27.4564 9.08513L29.3635 8.48287ZM27.33 4.364H27.294V6.364H27.33V4.364ZM35.6593 8.88L35.2121 9.77443L35.2293 9.78302L35.2468 9.79095L35.6593 8.88ZM34.7833 8.568L34.5202 9.53278L34.5256 9.53423L34.7833 8.568ZM33.8953 8.28L33.4862 9.19251L33.5049 9.20088L33.5239 9.20848L33.8953 8.28ZM33.1873 7.86L32.5894 8.66165L32.5959 8.6664L33.1873 7.86ZM33.2353 4.512L33.8718 5.28322L33.8731 5.28219L33.2353 4.512ZM37.5193 4.368H38.5193V3.7307L37.9416 3.46155L37.5193 4.368ZM37.5193 6.168L37.5877 7.16565L38.5193 7.10172V6.168H37.5193ZM36.2953 6.252H35.2953V7.32298L36.3637 7.24965L36.2953 6.252ZM36.2473 5.292L37.1155 4.79585L37.1127 4.79096L36.2473 5.292ZM34.3393 5.316L33.7528 4.50606L33.746 4.51097L33.7393 4.516L34.3393 5.316ZM34.2913 6.768L34.9984 6.06089L34.9984 6.06089L34.2913 6.768ZM34.8553 7.092L34.5209 8.03443L34.5388 8.0408L34.557 8.04648L34.8553 7.092ZM35.6593 7.344L35.3594 8.29802L35.3671 8.30035L35.6593 7.344ZM36.4153 7.632L35.9814 8.53309L35.9942 8.53901L36.4153 7.632ZM37.1113 8.064L36.5028 8.85761L36.5102 8.86323L36.5176 8.86872L37.1113 8.064ZM37.0273 11.508L36.4054 10.7249L36.3998 10.7294L37.0273 11.508ZM32.5153 11.664H31.5153V12.3013L32.093 12.5704L32.5153 11.664ZM32.5153 9.768L32.4468 8.77035L31.5153 8.83428V9.768H32.5153ZM33.7393 9.684H34.7393V8.61302L33.6708 8.68635L33.7393 9.684ZM33.7873 10.68L34.6555 10.1839L34.6555 10.1839L33.7873 10.68ZM34.0753 10.848L33.7449 11.7919L33.7725 11.8015L33.8006 11.8095L34.0753 10.848ZM34.8553 11.92C35.4421 11.92 36.0673 11.807 36.56 11.4129C37.0953 10.9846 37.2953 10.3727 37.2953 9.768H35.2953C35.2953 9.85756 35.2812 9.88987 35.2822 9.88738C35.2858 9.87879 35.2974 9.86171 35.3106 9.85113C35.3233 9.841 35.2284 9.92 34.8553 9.92V11.92ZM37.2953 9.768C37.2953 9.38077 37.1889 8.9983 36.9493 8.66372C36.7162 8.33837 36.4001 8.11773 36.0718 7.96905L35.2468 9.79095C35.3424 9.83427 35.3443 9.85763 35.3233 9.82828C35.3186 9.82173 35.3137 9.81375 35.3092 9.80463C35.3047 9.7955 35.3013 9.78671 35.2989 9.77888C35.2939 9.76254 35.2953 9.75699 35.2953 9.768H37.2953ZM36.1065 7.98557C35.8003 7.83248 35.438 7.70765 35.0409 7.60176L34.5256 9.53423C34.8486 9.62035 35.0702 9.70352 35.2121 9.77443L36.1065 7.98557ZM35.0464 7.60324C34.7175 7.51354 34.4602 7.42895 34.2667 7.35152L33.5239 9.20848C33.8103 9.32305 34.1451 9.43046 34.5202 9.53276L35.0464 7.60324ZM34.3043 7.36749C34.1465 7.29672 33.9712 7.19477 33.7786 7.05359L32.5959 8.6664C32.8834 8.87723 33.1801 9.05527 33.4862 9.19251L34.3043 7.36749ZM33.7851 7.05837C33.6262 6.93985 33.4793 6.73546 33.4793 6.24H31.4793C31.4793 7.20054 31.8044 8.07615 32.5895 8.66163L33.7851 7.05837ZM33.4793 6.24C33.4793 5.75998 33.6288 5.48379 33.8718 5.28322L32.5987 3.74078C31.8337 4.3722 31.4793 5.24802 31.4793 6.24H33.4793ZM33.8731 5.28219C34.1676 5.03827 34.5894 4.876 35.2273 4.876V2.876C34.2332 2.876 33.3269 3.13773 32.5975 3.74181L33.8731 5.28219ZM35.2273 4.876C35.9144 4.876 36.5332 5.01179 37.097 5.27445L37.9416 3.46155C37.0973 3.06821 36.1881 2.876 35.2273 2.876V4.876ZM36.5193 4.368V6.168H38.5193V4.368H36.5193ZM37.4508 5.17035L36.2268 5.25435L36.3637 7.24965L37.5877 7.16565L37.4508 5.17035ZM37.2953 6.252V5.556H35.2953V6.252H37.2953ZM37.2953 5.556C37.2953 5.38833 37.2802 5.08402 37.1155 4.79586L35.379 5.78814C35.3217 5.68776 35.3044 5.60651 35.2994 5.57889C35.2938 5.5478 35.2953 5.5371 35.2953 5.556H37.2953ZM37.1127 4.79096C36.8704 4.37248 36.462 4.21793 36.2268 4.15499C35.9644 4.08477 35.675 4.064 35.3953 4.064V6.064C35.49 6.064 35.5639 6.0678 35.6195 6.07334C35.6765 6.079 35.7041 6.08549 35.7098 6.08701C35.7178 6.08916 35.6804 6.08068 35.622 6.04485C35.5605 6.00719 35.461 5.92969 35.3819 5.79304L37.1127 4.79096ZM35.3953 4.064C34.8369 4.064 34.2341 4.15748 33.7528 4.50606L34.9258 6.12594C34.9115 6.13629 34.9287 6.11894 35.0094 6.09969C35.0904 6.08035 35.2152 6.064 35.3953 6.064V4.064ZM33.7393 4.516C33.1995 4.92083 33.0033 5.51884 33.0033 6.096H35.0033C35.0033 6.02395 35.0149 6.01122 35.0057 6.03262C35.0009 6.04374 34.9923 6.05959 34.9789 6.07675C34.9653 6.09396 34.9511 6.10711 34.9393 6.116L33.7393 4.516ZM33.0033 6.096C33.0033 6.63455 33.2173 7.1082 33.5842 7.47511L34.9984 6.06089C34.9897 6.05224 34.9869 6.04802 34.9875 6.04879C34.9881 6.04974 34.9911 6.05426 34.9944 6.06208C34.9978 6.06999 35.0003 6.07829 35.0019 6.08588C35.0034 6.09335 35.0033 6.09716 35.0033 6.096H33.0033ZM33.5842 7.47511C33.854 7.74491 34.1914 7.91753 34.5209 8.03443L35.1897 6.14957C35.1109 6.1216 35.0586 6.09637 35.0264 6.07789C34.9943 6.05943 34.9892 6.05174 34.9984 6.06089L33.5842 7.47511ZM34.557 8.04648C34.8124 8.1263 35.0799 8.21014 35.3595 8.29799L35.9591 6.39001C35.6786 6.30186 35.4101 6.2177 35.1536 6.13752L34.557 8.04648ZM35.3671 8.30035C35.6182 8.3771 35.821 8.45575 35.9815 8.533L36.8491 6.731C36.5775 6.60025 36.2763 6.4869 35.9515 6.38765L35.3671 8.30035ZM35.9942 8.53901C36.1389 8.60622 36.3085 8.70862 36.5028 8.85761L37.7197 7.27039C37.434 7.05138 37.1396 6.86578 36.8364 6.72499L35.9942 8.53901ZM36.5176 8.86872C36.6886 8.99486 36.8433 9.21251 36.8433 9.732H38.8433C38.8433 8.74749 38.5099 7.85314 37.7049 7.25928L36.5176 8.86872ZM36.8433 9.732C36.8433 10.2078 36.6888 10.4999 36.4054 10.7249L37.6492 12.2911C38.4538 11.6521 38.8433 10.7602 38.8433 9.732H36.8433ZM36.3998 10.7294C36.0875 10.981 35.618 11.156 34.8913 11.156V13.156C35.9405 13.156 36.895 12.899 37.6548 12.2866L36.3998 10.7294ZM34.8913 11.156C34.1377 11.156 33.4928 11.0162 32.9376 10.7576L32.093 12.5704C32.9458 12.9678 33.8848 13.156 34.8913 13.156V11.156ZM33.5153 11.664V9.768H31.5153V11.664H33.5153ZM32.5837 10.7657L33.8077 10.6817L33.6708 8.68635L32.4468 8.77035L32.5837 10.7657ZM32.7393 9.684V10.416H34.7393V9.684H32.7393ZM32.7393 10.416C32.7393 10.5837 32.7544 10.888 32.919 11.1761L34.6555 10.1839C34.7129 10.2842 34.7301 10.3655 34.7351 10.3931C34.7408 10.4242 34.7393 10.4349 34.7393 10.416H32.7393ZM32.919 11.1761C33.0643 11.4303 33.2756 11.5672 33.3794 11.6278C33.5033 11.7 33.6325 11.7525 33.7449 11.7919L34.4056 9.90414C34.358 9.88748 34.3593 9.88398 34.3872 9.90022C34.4024 9.90912 34.4379 9.93104 34.4818 9.96942C34.5244 10.0067 34.5939 10.0761 34.6555 10.1839L32.919 11.1761ZM33.8006 11.8095C34.1086 11.8975 34.4844 11.92 34.8553 11.92V9.92C34.7002 9.92 34.5792 9.91464 34.4882 9.90623C34.4432 9.90208 34.4091 9.8975 34.3844 9.89336C34.3593 9.88912 34.3489 9.88616 34.35 9.88648L33.8006 11.8095ZM42.5288 8.88L42.0816 9.77443L42.0988 9.78302L42.1163 9.79095L42.5288 8.88ZM41.6528 8.568L41.3897 9.53278L41.3951 9.53423L41.6528 8.568ZM40.7648 8.28L40.3558 9.19251L40.3744 9.20088L40.3934 9.20848L40.7648 8.28ZM40.0568 7.86L39.459 8.66165L39.4654 8.6664L40.0568 7.86ZM40.1048 4.512L40.7414 5.28322L40.7426 5.28219L40.1048 4.512ZM44.3888 4.368H45.3888V3.7307L44.8111 3.46155L44.3888 4.368ZM44.3888 6.168L44.4573 7.16565L45.3888 7.10172V6.168H44.3888ZM43.1648 6.252H42.1648V7.32298L43.2333 7.24965L43.1648 6.252ZM43.1168 5.292L43.9851 4.79585L43.9822 4.79096L43.1168 5.292ZM41.2088 5.316L40.6223 4.50606L40.6155 4.51097L40.6088 4.516L41.2088 5.316ZM41.1608 6.768L41.8679 6.06089L41.8679 6.06089L41.1608 6.768ZM41.7248 7.092L41.3904 8.03443L41.4084 8.0408L41.4265 8.04648L41.7248 7.092ZM42.5288 7.344L42.229 8.29802L42.2366 8.30035L42.5288 7.344ZM43.2848 7.632L42.851 8.53309L42.8637 8.53901L43.2848 7.632ZM43.9808 8.064L43.3724 8.85761L43.3797 8.86323L43.3872 8.86872L43.9808 8.064ZM43.8968 11.508L43.2749 10.7249L43.2693 10.7294L43.8968 11.508ZM39.3848 11.664H38.3848V12.3013L38.9625 12.5704L39.3848 11.664ZM39.3848 9.768L39.3163 8.77035L38.3848 8.83428V9.768H39.3848ZM40.6088 9.684H41.6088V8.61302L40.5403 8.68635L40.6088 9.684ZM40.6568 10.68L41.5251 10.1839L41.5251 10.1839L40.6568 10.68ZM40.9448 10.848L40.6145 11.7919L40.642 11.8015L40.6701 11.8095L40.9448 10.848ZM41.7248 11.92C42.3117 11.92 42.9368 11.807 43.4295 11.4129C43.9648 10.9846 44.1648 10.3727 44.1648 9.768H42.1648C42.1648 9.85756 42.1507 9.88987 42.1517 9.88738C42.1553 9.87879 42.1669 9.86171 42.1801 9.85113C42.1928 9.841 42.098 9.92 41.7248 9.92V11.92ZM44.1648 9.768C44.1648 9.38077 44.0584 8.9983 43.8188 8.66372C43.5858 8.33837 43.2697 8.11773 42.9413 7.96905L42.1163 9.79095C42.212 9.83427 42.2138 9.85763 42.1928 9.82828C42.1881 9.82173 42.1832 9.81375 42.1787 9.80463C42.1742 9.7955 42.1708 9.78671 42.1685 9.77888C42.1635 9.76254 42.1648 9.75699 42.1648 9.768H44.1648ZM42.976 7.98557C42.6698 7.83248 42.3075 7.70765 41.9105 7.60176L41.3951 9.53423C41.7181 9.62035 41.9398 9.70352 42.0816 9.77443L42.976 7.98557ZM41.9159 7.60324C41.587 7.51354 41.3298 7.42895 41.1362 7.35152L40.3934 9.20848C40.6799 9.32305 41.0146 9.43046 41.3897 9.53276L41.9159 7.60324ZM41.1739 7.36749C41.016 7.29672 40.8407 7.19477 40.6482 7.05359L39.4654 8.6664C39.7529 8.87723 40.0496 9.05527 40.3558 9.19251L41.1739 7.36749ZM40.6546 7.05837C40.4957 6.93985 40.3488 6.73546 40.3488 6.24H38.3488C38.3488 7.20054 38.6739 8.07615 39.459 8.66163L40.6546 7.05837ZM40.3488 6.24C40.3488 5.75998 40.4984 5.48379 40.7414 5.28322L39.4682 3.74078C38.7032 4.3722 38.3488 5.24802 38.3488 6.24H40.3488ZM40.7426 5.28219C41.0372 5.03827 41.4589 4.876 42.0968 4.876V2.876C41.1027 2.876 40.1964 3.13773 39.467 3.74181L40.7426 5.28219ZM42.0968 4.876C42.784 4.876 43.4027 5.01179 43.9665 5.27445L44.8111 3.46155C43.9669 3.06821 43.0576 2.876 42.0968 2.876V4.876ZM43.3888 4.368V6.168H45.3888V4.368H43.3888ZM44.3203 5.17035L43.0963 5.25435L43.2333 7.24965L44.4573 7.16565L44.3203 5.17035ZM44.1648 6.252V5.556H42.1648V6.252H44.1648ZM44.1648 5.556C44.1648 5.38833 44.1497 5.08402 43.9851 4.79586L42.2486 5.78814C42.1912 5.68776 42.174 5.60651 42.1689 5.57889C42.1633 5.5478 42.1648 5.5371 42.1648 5.556H44.1648ZM43.9822 4.79096C43.74 4.37248 43.3315 4.21793 43.0963 4.15499C42.8339 4.08477 42.5445 4.064 42.2648 4.064V6.064C42.3595 6.064 42.4334 6.0678 42.4891 6.07334C42.546 6.079 42.5736 6.08549 42.5793 6.08701C42.5873 6.08916 42.55 6.08068 42.4915 6.04485C42.4301 6.00719 42.3305 5.92969 42.2514 5.79304L43.9822 4.79096ZM42.2648 4.064C41.7065 4.064 41.1037 4.15748 40.6223 4.50606L41.7953 6.12594C41.781 6.13629 41.7982 6.11894 41.8789 6.09969C41.9599 6.08035 42.0847 6.064 42.2648 6.064V4.064ZM40.6088 4.516C40.069 4.92083 39.8728 5.51884 39.8728 6.096H41.8728C41.8728 6.02395 41.8844 6.01122 41.8752 6.03262C41.8704 6.04374 41.8619 6.05959 41.8484 6.07675C41.8349 6.09396 41.8207 6.10711 41.8088 6.116L40.6088 4.516ZM39.8728 6.096C39.8728 6.63455 40.0868 7.1082 40.4537 7.47511L41.8679 6.06089C41.8593 6.05224 41.8565 6.04802 41.857 6.04879C41.8577 6.04974 41.8606 6.05426 41.864 6.06208C41.8673 6.06999 41.8699 6.07829 41.8714 6.08588C41.8729 6.09335 41.8728 6.09716 41.8728 6.096H39.8728ZM40.4537 7.47511C40.7235 7.74491 41.061 7.91753 41.3904 8.03443L42.0592 6.14957C41.9804 6.1216 41.9281 6.09637 41.8959 6.07789C41.8638 6.05943 41.8588 6.05174 41.8679 6.06089L40.4537 7.47511ZM41.4265 8.04648C41.682 8.1263 41.9495 8.21014 42.229 8.29799L42.8286 6.39001C42.5482 6.30186 42.2796 6.2177 42.0231 6.13752L41.4265 8.04648ZM42.2366 8.30035C42.4878 8.3771 42.6906 8.45575 42.851 8.533L43.7186 6.731C43.4471 6.60025 43.1459 6.4869 42.821 6.38765L42.2366 8.30035ZM42.8637 8.53901C43.0085 8.60622 43.178 8.70862 43.3724 8.85761L44.5892 7.27039C44.3036 7.05138 44.0092 6.86578 43.7059 6.72499L42.8637 8.53901ZM43.3872 8.86872C43.5582 8.99486 43.7128 9.21251 43.7128 9.732H45.7128C45.7128 8.74749 45.3795 7.85314 44.5745 7.25928L43.3872 8.86872ZM43.7128 9.732C43.7128 10.2078 43.5583 10.4999 43.2749 10.7249L44.5187 12.2911C45.3233 11.6521 45.7128 10.7602 45.7128 9.732H43.7128ZM43.2693 10.7294C42.9571 10.981 42.4876 11.156 41.7608 11.156V13.156C42.81 13.156 43.7646 12.899 44.5243 12.2866L43.2693 10.7294ZM41.7608 11.156C41.0073 11.156 40.3623 11.0162 39.8071 10.7576L38.9625 12.5704C39.8153 12.9678 40.7544 13.156 41.7608 13.156V11.156ZM40.3848 11.664V9.768H38.3848V11.664H40.3848ZM39.4533 10.7657L40.6773 10.6817L40.5403 8.68635L39.3163 8.77035L39.4533 10.7657ZM39.6088 9.684V10.416H41.6088V9.684H39.6088ZM39.6088 10.416C39.6088 10.5837 39.6239 10.888 39.7886 11.1761L41.5251 10.1839C41.5824 10.2842 41.5997 10.3655 41.6047 10.3931C41.6103 10.4242 41.6088 10.4349 41.6088 10.416H39.6088ZM39.7886 11.1761C39.9338 11.4303 40.1452 11.5672 40.2489 11.6278C40.3728 11.7 40.5021 11.7525 40.6145 11.7919L41.2752 9.90414C41.2276 9.88748 41.2288 9.88398 41.2567 9.90022C41.2719 9.90912 41.3075 9.93104 41.3513 9.96942C41.3939 10.0067 41.4635 10.0761 41.5251 10.1839L39.7886 11.1761ZM40.6701 11.8095C40.9781 11.8975 41.3539 11.92 41.7248 11.92V9.92C41.5697 9.92 41.4488 9.91464 41.3577 9.90623C41.3127 9.90208 41.2786 9.8975 41.254 9.89336C41.2288 9.88912 41.2184 9.88616 41.2195 9.88648L40.6701 11.8095ZM50.2175 12H49.2175V13H50.2175V12ZM50.2175 10.704L50.1269 9.70811L49.2175 9.79079V10.704H50.2175ZM50.7455 10.656L50.836 11.652L50.8484 11.6507L50.7455 10.656ZM51.2095 2.768H52.2095V1.81925L51.262 1.76938L51.2095 2.768ZM50.2975 2.72H49.2975V3.66875L50.2449 3.71862L50.2975 2.72ZM50.2975 1.36V0.36H49.2975V1.36H50.2975ZM57.5135 2.048L58.0834 1.22628L58.0834 1.22628L57.5135 2.048ZM57.9295 6.096L57.1554 5.4627L57.1469 5.47348L57.9295 6.096ZM56.5855 7.12L56.2076 6.19415L53.7993 7.1771L56.2458 8.06055L56.5855 7.12ZM57.4975 8.096L56.5813 8.49682L56.5848 8.50487L56.5885 8.51285L57.4975 8.096ZM58.6495 10.608L57.7405 11.0249L57.9977 11.5857L58.6144 11.6074L58.6495 10.608ZM59.5615 10.64H60.5615V9.67447L59.5965 9.64061L59.5615 10.64ZM59.5615 12V13H60.5615V12H59.5615ZM55.6095 12H54.6095V13H55.6095V12ZM55.6095 10.704L55.5066 9.70931L54.6095 9.80211V10.704H55.6095ZM56.0735 10.656L56.1764 11.6507L56.1896 11.6493L56.2028 11.6476L56.0735 10.656ZM56.3775 10.144L55.4724 10.5694L55.4776 10.5804L55.483 10.5912L56.3775 10.144ZM55.6255 8.544L54.7102 8.94674L54.7152 8.95811L54.7204 8.96936L55.6255 8.544ZM55.2255 7.984L54.5795 8.74739L54.6108 8.77389L54.6442 8.79773L55.2255 7.984ZM53.1615 7.808V6.808H52.1615V7.808H53.1615ZM53.1615 10.592H52.1615V11.5469L53.1154 11.5909L53.1615 10.592ZM54.2015 10.64H55.2015V9.68509L54.2476 9.64106L54.2015 10.64ZM54.2015 12V13H55.2015V12H54.2015ZM53.1615 6.288H52.1615V7.288H53.1615V6.288ZM55.9935 3.216L55.4829 4.07593L55.4945 4.08262L55.9935 3.216ZM53.1615 2.912V1.912H52.1615V2.912H53.1615ZM51.2175 12V10.704H49.2175V12H51.2175ZM50.308 11.6999L50.836 11.6519L50.6549 9.66011L50.1269 9.70811L50.308 11.6999ZM50.8484 11.6507C51.1292 11.6216 51.4918 11.5254 51.7881 11.2394C52.1054 10.933 52.2095 10.5432 52.2095 10.208H50.2095C50.2095 10.1395 50.2362 9.9577 50.3989 9.8006C50.5404 9.66393 50.671 9.65836 50.6426 9.66131L50.8484 11.6507ZM52.2095 10.208V2.768H50.2095V10.208H52.2095ZM51.262 1.76938L50.35 1.72138L50.2449 3.71862L51.1569 3.76662L51.262 1.76938ZM51.2975 2.72V1.36H49.2975V2.72H51.2975ZM50.2975 2.36H54.6655V0.36H50.2975V2.36ZM54.6655 2.36C55.8012 2.36 56.5175 2.5742 56.9436 2.86971L58.0834 1.22628C57.1868 0.604466 56.0044 0.36 54.6655 0.36V2.36ZM56.9436 2.86971C57.257 3.0871 57.5055 3.47772 57.5055 4.304H59.5055C59.5055 3.03961 59.0926 1.92623 58.0834 1.22628L56.9436 2.86971ZM57.5055 4.304C57.5055 4.84561 57.366 5.20544 57.1555 5.46276L58.7034 6.72924C59.2609 6.04789 59.5055 5.21305 59.5055 4.304H57.5055ZM57.1469 5.47348C56.8733 5.81734 56.5616 6.04963 56.2076 6.19415L56.9634 8.04585C57.6546 7.7637 58.2389 7.31332 58.7121 6.71852L57.1469 5.47348ZM56.2458 8.06055C56.2877 8.07567 56.4254 8.14052 56.5813 8.49682L58.4136 7.69518C58.1215 7.02748 57.6512 6.44166 56.9251 6.17945L56.2458 8.06055ZM56.5885 8.51285L57.7405 11.0249L59.5584 10.1911L58.4064 7.67915L56.5885 8.51285ZM58.6144 11.6074L59.5264 11.6394L59.5965 9.64061L58.6845 9.60861L58.6144 11.6074ZM58.5615 10.64V12H60.5615V10.64H58.5615ZM59.5615 11H55.6095V13H59.5615V11ZM56.6095 12V10.704H54.6095V12H56.6095ZM55.7124 11.6987L56.1764 11.6507L55.9706 9.66131L55.5066 9.70931L55.7124 11.6987ZM56.2028 11.6476C56.4084 11.6208 56.7034 11.5528 56.9658 11.3475C57.2769 11.104 57.4415 10.7458 57.4415 10.368H55.4415C55.4415 10.2776 55.4596 10.163 55.5167 10.0439C55.5741 9.9239 55.6546 9.834 55.7332 9.77249C55.8729 9.66317 55.9839 9.65921 55.9441 9.6644L56.2028 11.6476ZM57.4415 10.368C57.4415 10.0914 57.3527 9.85844 57.2719 9.69679L55.483 10.5912C55.4827 10.5906 55.4736 10.5725 55.4639 10.5387C55.4543 10.505 55.4415 10.4462 55.4415 10.368H57.4415ZM57.2825 9.71864L56.5305 8.11864L54.7204 8.96936L55.4724 10.5694L57.2825 9.71864ZM56.5408 8.14126C56.3896 7.79776 56.1644 7.42576 55.8067 7.17027L54.6442 8.79773C54.6099 8.77319 54.6059 8.7602 54.6237 8.78524C54.6415 8.81012 54.6721 8.86027 54.7102 8.94674L56.5408 8.14126ZM55.8714 7.22061C55.4842 6.89296 55.0129 6.808 54.6175 6.808V8.808C54.6803 8.808 54.7006 8.81522 54.6914 8.81256C54.6793 8.80905 54.6336 8.79311 54.5795 8.74739L55.8714 7.22061ZM54.6175 6.808H53.1615V8.808H54.6175V6.808ZM52.1615 7.808V10.592H54.1615V7.808H52.1615ZM53.1154 11.5909L54.1554 11.6389L54.2476 9.64106L53.2076 9.59306L53.1154 11.5909ZM53.2015 10.64V12H55.2015V10.64H53.2015ZM54.2015 11H50.2175V13H54.2015V11ZM53.1615 7.288H54.5535V5.288H53.1615V7.288ZM54.5535 7.288C55.3378 7.288 56.1128 7.11507 56.6961 6.5934C57.3007 6.05272 57.5215 5.2995 57.5215 4.528H55.5215C55.5215 4.92983 55.4143 5.05662 55.3629 5.1026C55.2902 5.1676 55.0812 5.288 54.5535 5.288V7.288ZM57.5215 4.528C57.5215 3.7423 57.3197 2.82566 56.4924 2.34938L55.4945 4.08262C55.4461 4.05477 55.4434 4.0236 55.4618 4.06934C55.4863 4.1303 55.5215 4.26977 55.5215 4.528H57.5215ZM56.504 2.35614C55.9211 2.01004 55.1376 1.912 54.3295 1.912V3.912C55.0574 3.912 55.3832 4.01663 55.4829 4.07585L56.504 2.35614ZM54.3295 1.912H53.1615V3.912H54.3295V1.912ZM52.1615 2.912V6.288H54.1615V2.912H52.1615ZM61.0331 12H60.0331V13H61.0331V12ZM61.0331 10.704L60.9426 9.70811L60.0331 9.79079V10.704H61.0331ZM61.5611 10.656L61.6516 11.652L61.664 11.6507L61.5611 10.656ZM62.0251 2.768H63.0251V1.81925L62.0777 1.76938L62.0251 2.768ZM61.1131 2.72H60.1131V3.66875L61.0605 3.71862L61.1131 2.72ZM61.1131 1.36V0.36H60.1131V1.36H61.1131ZM68.3291 2.048L68.899 1.22628L68.899 1.22628L68.3291 2.048ZM68.7451 6.096L67.9711 5.4627L67.9625 5.47348L68.7451 6.096ZM67.4011 7.12L67.0232 6.19415L64.615 7.1771L67.0614 8.06055L67.4011 7.12ZM68.3131 8.096L67.3969 8.49682L67.4005 8.50487L67.4041 8.51285L68.3131 8.096ZM69.4651 10.608L68.5561 11.0249L68.8133 11.5857L69.43 11.6074L69.4651 10.608ZM70.3771 10.64H71.3771V9.67447L70.4122 9.64061L70.3771 10.64ZM70.3771 12V13H71.3771V12H70.3771ZM66.4251 12H65.4251V13H66.4251V12ZM66.4251 10.704L66.3222 9.70931L65.4251 9.80211V10.704H66.4251ZM66.8891 10.656L66.992 11.6507L67.0052 11.6493L67.0184 11.6476L66.8891 10.656ZM67.1931 10.144L66.2881 10.5694L66.2932 10.5804L66.2987 10.5912L67.1931 10.144ZM66.4411 8.544L65.5258 8.94674L65.5308 8.95811L65.5361 8.96936L66.4411 8.544ZM66.0411 7.984L65.3951 8.74739L65.4265 8.77389L65.4599 8.79773L66.0411 7.984ZM63.9771 7.808V6.808H62.9771V7.808H63.9771ZM63.9771 10.592H62.9771V11.5469L63.931 11.5909L63.9771 10.592ZM65.0171 10.64H66.0171V9.68509L65.0632 9.64106L65.0171 10.64ZM65.0171 12V13H66.0171V12H65.0171ZM63.9771 6.288H62.9771V7.288H63.9771V6.288ZM66.8091 3.216L66.2985 4.07593L66.3101 4.08262L66.8091 3.216ZM63.9771 2.912V1.912H62.9771V2.912H63.9771ZM62.0331 12V10.704H60.0331V12H62.0331ZM61.1236 11.6999L61.6516 11.6519L61.4706 9.66011L60.9426 9.70811L61.1236 11.6999ZM61.664 11.6507C61.9449 11.6216 62.3075 11.5254 62.6037 11.2394C62.9211 10.933 63.0251 10.5432 63.0251 10.208H61.0251C61.0251 10.1395 61.0518 9.9577 61.2145 9.8006C61.356 9.66393 61.4866 9.65836 61.4582 9.66131L61.664 11.6507ZM63.0251 10.208V2.768H61.0251V10.208H63.0251ZM62.0777 1.76938L61.1657 1.72138L61.0605 3.71862L61.9725 3.76662L62.0777 1.76938ZM62.1131 2.72V1.36H60.1131V2.72H62.1131ZM61.1131 2.36H65.4811V0.36H61.1131V2.36ZM65.4811 2.36C66.6169 2.36 67.3331 2.5742 67.7592 2.86971L68.899 1.22628C68.0024 0.604466 66.82 0.36 65.4811 0.36V2.36ZM67.7592 2.86971C68.0726 3.0871 68.3211 3.47772 68.3211 4.304H70.3211C70.3211 3.03961 69.9082 1.92623 68.899 1.22628L67.7592 2.86971ZM68.3211 4.304C68.3211 4.84561 68.1817 5.20544 67.9711 5.46276L69.519 6.72924C70.0765 6.04789 70.3211 5.21305 70.3211 4.304H68.3211ZM67.9625 5.47348C67.689 5.81734 67.3773 6.04963 67.0232 6.19415L67.779 8.04585C68.4702 7.7637 69.0546 7.31332 69.5277 6.71852L67.9625 5.47348ZM67.0614 8.06055C67.1033 8.07567 67.2411 8.14052 67.3969 8.49682L69.2292 7.69518C68.9371 7.02748 68.4669 6.44166 67.7407 6.17945L67.0614 8.06055ZM67.4041 8.51285L68.5561 11.0249L70.3741 10.1911L69.2221 7.67915L67.4041 8.51285ZM69.43 11.6074L70.342 11.6394L70.4122 9.64061L69.5002 9.60861L69.43 11.6074ZM69.3771 10.64V12H71.3771V10.64H69.3771ZM70.3771 11H66.4251V13H70.3771V11ZM67.4251 12V10.704H65.4251V12H67.4251ZM66.528 11.6987L66.992 11.6507L66.7862 9.66131L66.3222 9.70931L66.528 11.6987ZM67.0184 11.6476C67.224 11.6208 67.519 11.5528 67.7814 11.3475C68.0925 11.104 68.2571 10.7458 68.2571 10.368H66.2571C66.2571 10.2776 66.2752 10.163 66.3323 10.0439C66.3898 9.9239 66.4702 9.834 66.5488 9.77249C66.6885 9.66317 66.7995 9.65921 66.7598 9.6644L67.0184 11.6476ZM68.2571 10.368C68.2571 10.0914 68.1683 9.85844 68.0875 9.69679L66.2987 10.5912C66.2983 10.5906 66.2892 10.5725 66.2796 10.5387C66.2699 10.505 66.2571 10.4462 66.2571 10.368H68.2571ZM68.0981 9.71864L67.3461 8.11864L65.5361 8.96936L66.2881 10.5694L68.0981 9.71864ZM67.3564 8.14126C67.2053 7.79776 66.98 7.42576 66.6223 7.17027L65.4599 8.79773C65.4255 8.77319 65.4215 8.7602 65.4394 8.78524C65.4571 8.81012 65.4877 8.86027 65.5258 8.94674L67.3564 8.14126ZM66.687 7.22061C66.2998 6.89296 65.8286 6.808 65.4331 6.808V8.808C65.4959 8.808 65.5162 8.81522 65.507 8.81256C65.4949 8.80905 65.4492 8.79311 65.3951 8.74739L66.687 7.22061ZM65.4331 6.808H63.9771V8.808H65.4331V6.808ZM62.9771 7.808V10.592H64.9771V7.808H62.9771ZM63.931 11.5909L64.971 11.6389L65.0632 9.64106L64.0232 9.59306L63.931 11.5909ZM64.0171 10.64V12H66.0171V10.64H64.0171ZM65.0171 11H61.0331V13H65.0171V11ZM63.9771 7.288H65.3691V5.288H63.9771V7.288ZM65.3691 7.288C66.1534 7.288 66.9284 7.11507 67.5117 6.5934C68.1163 6.05272 68.3371 5.2995 68.3371 4.528H66.3371C66.3371 4.92983 66.2299 5.05662 66.1785 5.1026C66.1058 5.1676 65.8968 5.288 65.3691 5.288V7.288ZM68.3371 4.528C68.3371 3.7423 68.1353 2.82566 67.3081 2.34938L66.3101 4.08262C66.2618 4.05477 66.259 4.0236 66.2774 4.06934C66.3019 4.1303 66.3371 4.26977 66.3371 4.528H68.3371ZM67.3196 2.35614C66.7367 2.01004 65.9532 1.912 65.1451 1.912V3.912C65.873 3.912 66.1988 4.01663 66.2986 4.07585L67.3196 2.35614ZM65.1451 1.912H63.9771V3.912H65.1451V1.912ZM62.9771 2.912V6.288H64.9771V2.912H62.9771Z" fill="black" mask="url(#path-1-outside-1_129_127)"/>
<mask id="path-3-outside-2_129_127" maskUnits="userSpaceOnUse" x="1" y="0" width="70" height="13" fill="black">
<rect fill="white" x="1" width="70" height="13"/>
<path d="M4.67928 3.232V8.544C4.67928 9.29067 4.85528 9.81867 5.20728 10.128C5.56995 10.4267 6.08195 10.576 6.74328 10.576C7.41528 10.576 7.93261 10.4107 8.29528 10.08C8.66861 9.74933 8.85528 9.264 8.85528 8.624V2.768L7.92728 2.72V1.36H11.7193V2.656L11.1913 2.704C10.8819 2.736 10.7273 2.896 10.7273 3.184V8.896C10.7273 9.93067 10.3646 10.7413 9.63928 11.328C8.91395 11.9147 7.91128 12.208 6.63128 12.208C5.35128 12.208 4.38061 11.9253 3.71928 11.36C3.06861 10.784 2.74328 9.87733 2.74328 8.64V2.768L1.81528 2.72V1.36H5.68728V2.656L5.15928 2.704C4.98861 2.72533 4.86595 2.77333 4.79128 2.848C4.71661 2.912 4.67928 3.04 4.67928 3.232ZM15.7862 4.02L17.8262 9.444H17.8502L19.9022 4.02H22.2782V4.992L21.8822 5.028C21.6422 5.052 21.5262 5.192 21.5342 5.448L21.8342 10.944L22.5782 10.98V12H19.6862V11.028L20.1182 10.992C20.3342 10.976 20.4382 10.872 20.4302 10.68L20.2022 6.444H20.1782L18.3302 11.232H17.1902L15.3662 6.492H15.3422L15.1022 10.944L15.8822 10.98V12H13.0502V11.028L13.4822 10.992C13.6662 10.976 13.7662 10.868 13.7822 10.668L14.1062 5.088L13.3742 5.04V4.02H15.7862ZM24.234 10.656L26.166 5.064L25.41 4.992V4.02H28.158L30.606 10.944H30.618L31.302 10.98V12H28.206V11.028L28.662 10.992C28.798 10.976 28.89 10.944 28.938 10.896C28.986 10.848 28.99 10.76 28.95 10.632L28.698 9.888H25.89L25.53 10.944L26.25 10.98V12H23.478V11.028L23.874 10.992C24.042 10.976 24.162 10.864 24.234 10.656ZM27.294 5.364L26.178 8.784H28.41L27.33 5.364H27.294ZM34.8553 10.92C35.8153 10.92 36.2953 10.536 36.2953 9.768C36.2953 9.368 36.0833 9.072 35.6593 8.88C35.4353 8.768 35.1433 8.664 34.7833 8.568C34.4313 8.472 34.1353 8.376 33.8953 8.28C33.6633 8.176 33.4273 8.036 33.1873 7.86C32.7153 7.508 32.4793 6.968 32.4793 6.24C32.4793 5.504 32.7313 4.928 33.2353 4.512C33.7473 4.088 34.4113 3.876 35.2273 3.876C36.0513 3.876 36.8153 4.04 37.5193 4.368V6.168L36.2953 6.252V5.556C36.2953 5.436 36.2793 5.348 36.2473 5.292C36.1593 5.14 35.8753 5.064 35.3953 5.064C34.9233 5.064 34.5713 5.148 34.3393 5.316C34.1153 5.484 34.0033 5.744 34.0033 6.096C34.0033 6.352 34.0993 6.576 34.2913 6.768C34.4193 6.896 34.6073 7.004 34.8553 7.092C35.1113 7.172 35.3793 7.256 35.6593 7.344C35.9473 7.432 36.1993 7.528 36.4153 7.632C36.6393 7.736 36.8713 7.88 37.1113 8.064C37.5993 8.424 37.8433 8.98 37.8433 9.732C37.8433 10.484 37.5713 11.076 37.0273 11.508C36.4913 11.94 35.7793 12.156 34.8913 12.156C34.0113 12.156 33.2193 11.992 32.5153 11.664V9.768L33.7393 9.684V10.416C33.7393 10.536 33.7553 10.624 33.7873 10.68C33.8193 10.736 33.9153 10.792 34.0753 10.848C34.2433 10.896 34.5033 10.92 34.8553 10.92ZM41.7248 10.92C42.6848 10.92 43.1648 10.536 43.1648 9.768C43.1648 9.368 42.9528 9.072 42.5288 8.88C42.3048 8.768 42.0128 8.664 41.6528 8.568C41.3008 8.472 41.0048 8.376 40.7648 8.28C40.5328 8.176 40.2968 8.036 40.0568 7.86C39.5848 7.508 39.3488 6.968 39.3488 6.24C39.3488 5.504 39.6008 4.928 40.1048 4.512C40.6168 4.088 41.2808 3.876 42.0968 3.876C42.9208 3.876 43.6848 4.04 44.3888 4.368V6.168L43.1648 6.252V5.556C43.1648 5.436 43.1488 5.348 43.1168 5.292C43.0288 5.14 42.7448 5.064 42.2648 5.064C41.7928 5.064 41.4408 5.148 41.2088 5.316C40.9848 5.484 40.8728 5.744 40.8728 6.096C40.8728 6.352 40.9688 6.576 41.1608 6.768C41.2888 6.896 41.4768 7.004 41.7248 7.092C41.9808 7.172 42.2488 7.256 42.5288 7.344C42.8168 7.432 43.0688 7.528 43.2848 7.632C43.5088 7.736 43.7408 7.88 43.9808 8.064C44.4688 8.424 44.7128 8.98 44.7128 9.732C44.7128 10.484 44.4408 11.076 43.8968 11.508C43.3608 11.94 42.6488 12.156 41.7608 12.156C40.8808 12.156 40.0888 11.992 39.3848 11.664V9.768L40.6088 9.684V10.416C40.6088 10.536 40.6248 10.624 40.6568 10.68C40.6888 10.736 40.7848 10.792 40.9448 10.848C41.1128 10.896 41.3728 10.92 41.7248 10.92Z"/>
<path d="M50.2175 12V10.704L50.7455 10.656C51.0548 10.624 51.2095 10.4747 51.2095 10.208V2.768L50.2975 2.72V1.36H54.6655C55.9028 1.36 56.8521 1.58933 57.5135 2.048C58.1748 2.50667 58.5055 3.25867 58.5055 4.304C58.5055 5.02933 58.3135 5.62667 57.9295 6.096C57.5561 6.56533 57.1081 6.90667 56.5855 7.12C56.9695 7.25867 57.2735 7.584 57.4975 8.096L58.6495 10.608L59.5615 10.64V12H55.6095V10.704L56.0735 10.656C56.3188 10.624 56.4415 10.528 56.4415 10.368C56.4415 10.304 56.4201 10.2293 56.3775 10.144L55.6255 8.544C55.5081 8.27733 55.3748 8.09067 55.2255 7.984C55.0868 7.86667 54.8841 7.808 54.6175 7.808H53.1615V10.592L54.2015 10.64V12H50.2175ZM53.1615 6.288H54.5535C55.8655 6.288 56.5215 5.70133 56.5215 4.528C56.5215 3.856 56.3455 3.41867 55.9935 3.216C55.6521 3.01333 55.0975 2.912 54.3295 2.912H53.1615V6.288ZM61.0331 12V10.704L61.5611 10.656C61.8704 10.624 62.0251 10.4747 62.0251 10.208V2.768L61.1131 2.72V1.36H65.4811C66.7184 1.36 67.6678 1.58933 68.3291 2.048C68.9904 2.50667 69.3211 3.25867 69.3211 4.304C69.3211 5.02933 69.1291 5.62667 68.7451 6.096C68.3718 6.56533 67.9238 6.90667 67.4011 7.12C67.7851 7.25867 68.0891 7.584 68.3131 8.096L69.4651 10.608L70.3771 10.64V12H66.4251V10.704L66.8891 10.656C67.1344 10.624 67.2571 10.528 67.2571 10.368C67.2571 10.304 67.2358 10.2293 67.1931 10.144L66.4411 8.544C66.3238 8.27733 66.1904 8.09067 66.0411 7.984C65.9024 7.86667 65.6998 7.808 65.4331 7.808H63.9771V10.592L65.0171 10.64V12H61.0331ZM63.9771 6.288H65.3691C66.6811 6.288 67.3371 5.70133 67.3371 4.528C67.3371 3.856 67.1611 3.41867 66.8091 3.216C66.4678 3.01333 65.9131 2.912 65.1451 2.912H63.9771V6.288Z"/>
</mask>
<path d="M4.67928 3.232V8.544C4.67928 9.29067 4.85528 9.81867 5.20728 10.128C5.56995 10.4267 6.08195 10.576 6.74328 10.576C7.41528 10.576 7.93261 10.4107 8.29528 10.08C8.66861 9.74933 8.85528 9.264 8.85528 8.624V2.768L7.92728 2.72V1.36H11.7193V2.656L11.1913 2.704C10.8819 2.736 10.7273 2.896 10.7273 3.184V8.896C10.7273 9.93067 10.3646 10.7413 9.63928 11.328C8.91395 11.9147 7.91128 12.208 6.63128 12.208C5.35128 12.208 4.38061 11.9253 3.71928 11.36C3.06861 10.784 2.74328 9.87733 2.74328 8.64V2.768L1.81528 2.72V1.36H5.68728V2.656L5.15928 2.704C4.98861 2.72533 4.86595 2.77333 4.79128 2.848C4.71661 2.912 4.67928 3.04 4.67928 3.232ZM15.7862 4.02L17.8262 9.444H17.8502L19.9022 4.02H22.2782V4.992L21.8822 5.028C21.6422 5.052 21.5262 5.192 21.5342 5.448L21.8342 10.944L22.5782 10.98V12H19.6862V11.028L20.1182 10.992C20.3342 10.976 20.4382 10.872 20.4302 10.68L20.2022 6.444H20.1782L18.3302 11.232H17.1902L15.3662 6.492H15.3422L15.1022 10.944L15.8822 10.98V12H13.0502V11.028L13.4822 10.992C13.6662 10.976 13.7662 10.868 13.7822 10.668L14.1062 5.088L13.3742 5.04V4.02H15.7862ZM24.234 10.656L26.166 5.064L25.41 4.992V4.02H28.158L30.606 10.944H30.618L31.302 10.98V12H28.206V11.028L28.662 10.992C28.798 10.976 28.89 10.944 28.938 10.896C28.986 10.848 28.99 10.76 28.95 10.632L28.698 9.888H25.89L25.53 10.944L26.25 10.98V12H23.478V11.028L23.874 10.992C24.042 10.976 24.162 10.864 24.234 10.656ZM27.294 5.364L26.178 8.784H28.41L27.33 5.364H27.294ZM34.8553 10.92C35.8153 10.92 36.2953 10.536 36.2953 9.768C36.2953 9.368 36.0833 9.072 35.6593 8.88C35.4353 8.768 35.1433 8.664 34.7833 8.568C34.4313 8.472 34.1353 8.376 33.8953 8.28C33.6633 8.176 33.4273 8.036 33.1873 7.86C32.7153 7.508 32.4793 6.968 32.4793 6.24C32.4793 5.504 32.7313 4.928 33.2353 4.512C33.7473 4.088 34.4113 3.876 35.2273 3.876C36.0513 3.876 36.8153 4.04 37.5193 4.368V6.168L36.2953 6.252V5.556C36.2953 5.436 36.2793 5.348 36.2473 5.292C36.1593 5.14 35.8753 5.064 35.3953 5.064C34.9233 5.064 34.5713 5.148 34.3393 5.316C34.1153 5.484 34.0033 5.744 34.0033 6.096C34.0033 6.352 34.0993 6.576 34.2913 6.768C34.4193 6.896 34.6073 7.004 34.8553 7.092C35.1113 7.172 35.3793 7.256 35.6593 7.344C35.9473 7.432 36.1993 7.528 36.4153 7.632C36.6393 7.736 36.8713 7.88 37.1113 8.064C37.5993 8.424 37.8433 8.98 37.8433 9.732C37.8433 10.484 37.5713 11.076 37.0273 11.508C36.4913 11.94 35.7793 12.156 34.8913 12.156C34.0113 12.156 33.2193 11.992 32.5153 11.664V9.768L33.7393 9.684V10.416C33.7393 10.536 33.7553 10.624 33.7873 10.68C33.8193 10.736 33.9153 10.792 34.0753 10.848C34.2433 10.896 34.5033 10.92 34.8553 10.92ZM41.7248 10.92C42.6848 10.92 43.1648 10.536 43.1648 9.768C43.1648 9.368 42.9528 9.072 42.5288 8.88C42.3048 8.768 42.0128 8.664 41.6528 8.568C41.3008 8.472 41.0048 8.376 40.7648 8.28C40.5328 8.176 40.2968 8.036 40.0568 7.86C39.5848 7.508 39.3488 6.968 39.3488 6.24C39.3488 5.504 39.6008 4.928 40.1048 4.512C40.6168 4.088 41.2808 3.876 42.0968 3.876C42.9208 3.876 43.6848 4.04 44.3888 4.368V6.168L43.1648 6.252V5.556C43.1648 5.436 43.1488 5.348 43.1168 5.292C43.0288 5.14 42.7448 5.064 42.2648 5.064C41.7928 5.064 41.4408 5.148 41.2088 5.316C40.9848 5.484 40.8728 5.744 40.8728 6.096C40.8728 6.352 40.9688 6.576 41.1608 6.768C41.2888 6.896 41.4768 7.004 41.7248 7.092C41.9808 7.172 42.2488 7.256 42.5288 7.344C42.8168 7.432 43.0688 7.528 43.2848 7.632C43.5088 7.736 43.7408 7.88 43.9808 8.064C44.4688 8.424 44.7128 8.98 44.7128 9.732C44.7128 10.484 44.4408 11.076 43.8968 11.508C43.3608 11.94 42.6488 12.156 41.7608 12.156C40.8808 12.156 40.0888 11.992 39.3848 11.664V9.768L40.6088 9.684V10.416C40.6088 10.536 40.6248 10.624 40.6568 10.68C40.6888 10.736 40.7848 10.792 40.9448 10.848C41.1128 10.896 41.3728 10.92 41.7248 10.92Z" fill="#881C1C"/>
<path d="M50.2175 12V10.704L50.7455 10.656C51.0548 10.624 51.2095 10.4747 51.2095 10.208V2.768L50.2975 2.72V1.36H54.6655C55.9028 1.36 56.8521 1.58933 57.5135 2.048C58.1748 2.50667 58.5055 3.25867 58.5055 4.304C58.5055 5.02933 58.3135 5.62667 57.9295 6.096C57.5561 6.56533 57.1081 6.90667 56.5855 7.12C56.9695 7.25867 57.2735 7.584 57.4975 8.096L58.6495 10.608L59.5615 10.64V12H55.6095V10.704L56.0735 10.656C56.3188 10.624 56.4415 10.528 56.4415 10.368C56.4415 10.304 56.4201 10.2293 56.3775 10.144L55.6255 8.544C55.5081 8.27733 55.3748 8.09067 55.2255 7.984C55.0868 7.86667 54.8841 7.808 54.6175 7.808H53.1615V10.592L54.2015 10.64V12H50.2175ZM53.1615 6.288H54.5535C55.8655 6.288 56.5215 5.70133 56.5215 4.528C56.5215 3.856 56.3455 3.41867 55.9935 3.216C55.6521 3.01333 55.0975 2.912 54.3295 2.912H53.1615V6.288ZM61.0331 12V10.704L61.5611 10.656C61.8704 10.624 62.0251 10.4747 62.0251 10.208V2.768L61.1131 2.72V1.36H65.4811C66.7184 1.36 67.6678 1.58933 68.3291 2.048C68.9904 2.50667 69.3211 3.25867 69.3211 4.304C69.3211 5.02933 69.1291 5.62667 68.7451 6.096C68.3718 6.56533 67.9238 6.90667 67.4011 7.12C67.7851 7.25867 68.0891 7.584 68.3131 8.096L69.4651 10.608L70.3771 10.64V12H66.4251V10.704L66.8891 10.656C67.1344 10.624 67.2571 10.528 67.2571 10.368C67.2571 10.304 67.2358 10.2293 67.1931 10.144L66.4411 8.544C66.3238 8.27733 66.1904 8.09067 66.0411 7.984C65.9024 7.86667 65.6998 7.808 65.4331 7.808H63.9771V10.592L65.0171 10.64V12H61.0331ZM63.9771 6.288H65.3691C66.6811 6.288 67.3371 5.70133 67.3371 4.528C67.3371 3.856 67.1611 3.41867 66.8091 3.216C66.4678 3.01333 65.9131 2.912 65.1451 2.912H63.9771V6.288Z" fill="#1C875F"/>
<path d="M5.20728 10.128L4.87722 10.5036L4.88324 10.5089L4.88943 10.514L5.20728 10.128ZM8.29528 10.08L7.96373 9.70567L7.9584 9.71052L8.29528 10.08ZM8.85528 2.768H9.35528V2.29319L8.88111 2.26867L8.85528 2.768ZM7.92728 2.72H7.42728V3.19481L7.90145 3.21933L7.92728 2.72ZM7.92728 1.36V0.86H7.42728V1.36H7.92728ZM11.7193 1.36H12.2193V0.86H11.7193V1.36ZM11.7193 2.656L11.7645 3.15395L12.2193 3.11261V2.656H11.7193ZM11.1913 2.704L11.146 2.20601L11.1398 2.20665L11.1913 2.704ZM9.63928 11.328L9.32485 10.9392L9.32485 10.9392L9.63928 11.328ZM3.71928 11.36L3.38781 11.7344L3.39439 11.7401L3.71928 11.36ZM2.74328 2.768H3.24328V2.29319L2.76911 2.26867L2.74328 2.768ZM1.81528 2.72H1.31528V3.19481L1.78945 3.21933L1.81528 2.72ZM1.81528 1.36V0.86H1.31528V1.36H1.81528ZM5.68728 1.36H6.18728V0.86H5.68728V1.36ZM5.68728 2.656L5.73255 3.15395L6.18728 3.11261V2.656H5.68728ZM5.15928 2.704L5.11401 2.20605L5.10562 2.20682L5.09726 2.20786L5.15928 2.704ZM4.79128 2.848L5.11667 3.22763L5.13126 3.21513L5.14483 3.20155L4.79128 2.848ZM4.17928 3.232V8.544H5.17928V3.232H4.17928ZM4.17928 8.544C4.17928 9.35052 4.36705 10.0553 4.87722 10.5036L5.53734 9.75242C5.34351 9.58208 5.17928 9.23081 5.17928 8.544H4.17928ZM4.88943 10.514C5.37196 10.9113 6.01255 11.076 6.74328 11.076V10.076C6.15134 10.076 5.76793 9.94199 5.52513 9.74203L4.88943 10.514ZM6.74328 11.076C7.49347 11.076 8.14803 10.8909 8.63216 10.4495L7.9584 9.71052C7.7172 9.93044 7.33709 10.076 6.74328 10.076V11.076ZM8.6268 10.4543C9.1359 10.0034 9.35528 9.36383 9.35528 8.624H8.35528C8.35528 9.16417 8.20132 9.49529 7.96376 9.70571L8.6268 10.4543ZM9.35528 8.624V2.768H8.35528V8.624H9.35528ZM8.88111 2.26867L7.95311 2.22067L7.90145 3.21933L8.82945 3.26733L8.88111 2.26867ZM8.42728 2.72V1.36H7.42728V2.72H8.42728ZM7.92728 1.86H11.7193V0.86H7.92728V1.86ZM11.2193 1.36V2.656H12.2193V1.36H11.2193ZM11.674 2.15805L11.146 2.20605L11.2365 3.20195L11.7645 3.15395L11.674 2.15805ZM11.1398 2.20665C10.9142 2.23 10.6702 2.3076 10.4838 2.50049C10.2921 2.69878 10.2273 2.94994 10.2273 3.184H11.2273C11.2273 3.15598 11.2311 3.14876 11.2289 3.15517C11.2277 3.15858 11.2252 3.16478 11.2205 3.17256C11.2157 3.18042 11.2097 3.18831 11.2028 3.19551C11.1959 3.20267 11.1894 3.20771 11.1846 3.21091C11.1798 3.21402 11.1777 3.21474 11.1795 3.21401C11.1813 3.21324 11.187 3.21108 11.1976 3.20858C11.2082 3.20607 11.223 3.20339 11.2427 3.20135L11.1398 2.20665ZM10.2273 3.184V8.896H11.2273V3.184H10.2273ZM10.2273 8.896C10.2273 9.79842 9.919 10.4587 9.32485 10.9392L9.95371 11.7168C10.8102 11.024 11.2273 10.0629 11.2273 8.896H10.2273ZM9.32485 10.9392C8.71658 11.4312 7.83908 11.708 6.63128 11.708V12.708C7.98348 12.708 9.11131 12.3981 9.95371 11.7168L9.32485 10.9392ZM6.63128 11.708C5.41575 11.708 4.58063 11.4385 4.04417 10.9799L3.39439 11.7401C4.18059 12.4121 5.2868 12.708 6.63128 12.708V11.708ZM4.0507 10.9856C3.54646 10.5392 3.24328 9.79657 3.24328 8.64H2.24328C2.24328 9.9581 2.59077 11.0288 3.38786 11.7344L4.0507 10.9856ZM3.24328 8.64V2.768H2.24328V8.64H3.24328ZM2.76911 2.26867L1.84111 2.22067L1.78945 3.21933L2.71745 3.26733L2.76911 2.26867ZM2.31528 2.72V1.36H1.31528V2.72H2.31528ZM1.81528 1.86H5.68728V0.86H1.81528V1.86ZM5.18728 1.36V2.656H6.18728V1.36H5.18728ZM5.64201 2.15805L5.11401 2.20605L5.20455 3.20195L5.73255 3.15395L5.64201 2.15805ZM5.09726 2.20786C4.8803 2.23498 4.62691 2.30526 4.43773 2.49445L5.14483 3.20155C5.12291 3.22347 5.10898 3.22651 5.12148 3.22162C5.1345 3.21653 5.16536 3.20713 5.2213 3.20014L5.09726 2.20786ZM4.46588 2.46837C4.21174 2.6862 4.17928 3.019 4.17928 3.232H5.17928C5.17928 3.19981 5.18087 3.17548 5.18291 3.15794C5.18392 3.1493 5.18497 3.14288 5.18584 3.13843C5.1867 3.13398 5.18729 3.13195 5.18728 3.132C5.18727 3.13205 5.18651 3.13465 5.18457 3.13931C5.18262 3.14398 5.17933 3.15109 5.17417 3.15994C5.16366 3.17795 5.14551 3.20291 5.11667 3.22763L4.46588 2.46837ZM15.7862 4.02L16.2541 3.84398L16.1323 3.52H15.7862V4.02ZM17.8262 9.444L17.3582 9.62002L17.48 9.944H17.8262V9.444ZM17.8502 9.444V9.944H18.1956L18.3178 9.62092L17.8502 9.444ZM19.9022 4.02V3.52H19.5567L19.4345 3.84308L19.9022 4.02ZM22.2782 4.02H22.7782V3.52H22.2782V4.02ZM22.2782 4.992L22.3234 5.48995L22.7782 5.44861V4.992H22.2782ZM21.8822 5.028L21.8369 4.53003L21.8324 4.53048L21.8822 5.028ZM21.5342 5.448L21.0343 5.46362L21.0349 5.47525L21.5342 5.448ZM21.8342 10.944L21.3349 10.9713L21.3595 11.4216L21.81 11.4434L21.8342 10.944ZM22.5782 10.98H23.0782V10.5036L22.6023 10.4806L22.5782 10.98ZM22.5782 12V12.5H23.0782V12H22.5782ZM19.6862 12H19.1862V12.5H19.6862V12ZM19.6862 11.028L19.6446 10.5297L19.1862 10.5679V11.028H19.6862ZM20.1182 10.992L20.0812 10.4933L20.0766 10.4937L20.1182 10.992ZM20.4302 10.68L20.9298 10.6592L20.9294 10.6531L20.4302 10.68ZM20.2022 6.444L20.7014 6.41713L20.676 5.944H20.2022V6.444ZM20.1782 6.444V5.944H19.8352L19.7117 6.26396L20.1782 6.444ZM18.3302 11.232V11.732H18.6731L18.7966 11.412L18.3302 11.232ZM17.1902 11.232L16.7235 11.4116L16.8468 11.732H17.1902V11.232ZM15.3662 6.492L15.8328 6.31243L15.7095 5.992H15.3662V6.492ZM15.3422 6.492V5.992H14.8684L14.8429 6.46508L15.3422 6.492ZM15.1022 10.944L14.6029 10.9171L14.5758 11.4202L15.0791 11.4435L15.1022 10.944ZM15.8822 10.98H16.3822V10.5025L15.9052 10.4805L15.8822 10.98ZM15.8822 12V12.5H16.3822V12H15.8822ZM13.0502 12H12.5502V12.5H13.0502V12ZM13.0502 11.028L13.0086 10.5297L12.5502 10.5679V11.028H13.0502ZM13.4822 10.992L13.5237 11.4903L13.5255 11.4901L13.4822 10.992ZM13.7822 10.668L14.2807 10.7079L14.2813 10.697L13.7822 10.668ZM14.1062 5.088L14.6053 5.11698L14.6341 4.62154L14.1389 4.58907L14.1062 5.088ZM13.3742 5.04H12.8742V5.50829L13.3414 5.53893L13.3742 5.04ZM13.3742 4.02V3.52H12.8742V4.02H13.3742ZM15.3182 4.19602L17.3582 9.62002L18.2941 9.26798L16.2541 3.84398L15.3182 4.19602ZM17.8262 9.944H17.8502V8.944H17.8262V9.944ZM18.3178 9.62092L20.3698 4.19692L19.4345 3.84308L17.3825 9.26708L18.3178 9.62092ZM19.9022 4.52H22.2782V3.52H19.9022V4.52ZM21.7782 4.02V4.992H22.7782V4.02H21.7782ZM22.2329 4.49405L21.8369 4.53005L21.9274 5.52595L22.3234 5.48995L22.2329 4.49405ZM21.8324 4.53048C21.6257 4.55115 21.3967 4.63101 21.2301 4.83199C21.0677 5.028 21.0281 5.26331 21.0344 5.46362L22.0339 5.43238C22.0322 5.37669 22.0466 5.414 22.0002 5.47001C21.9778 5.49704 21.9527 5.51355 21.9346 5.52188C21.9186 5.52923 21.9148 5.52722 21.9319 5.52552L21.8324 4.53048ZM21.0349 5.47525L21.3349 10.9713L22.3334 10.9167L22.0334 5.42075L21.0349 5.47525ZM21.81 11.4434L22.554 11.4794L22.6023 10.4806L21.8583 10.4446L21.81 11.4434ZM22.0782 10.98V12H23.0782V10.98H22.0782ZM22.5782 11.5H19.6862V12.5H22.5782V11.5ZM20.1862 12V11.028H19.1862V12H20.1862ZM19.7277 11.5263L20.1597 11.4903L20.0766 10.4937L19.6446 10.5297L19.7277 11.5263ZM20.1551 11.4906C20.3276 11.4779 20.5427 11.4245 20.7117 11.2556C20.8906 11.0767 20.9377 10.8497 20.9297 10.6592L19.9306 10.7008C19.9307 10.7029 19.9295 10.6842 19.9395 10.6532C19.9505 10.6196 19.9715 10.5815 20.0046 10.5484C20.0696 10.4835 20.1247 10.4901 20.0812 10.4934L20.1551 11.4906ZM20.9294 10.6531L20.7014 6.41713L19.7029 6.47087L19.9309 10.7069L20.9294 10.6531ZM20.2022 5.944H20.1782V6.944H20.2022V5.944ZM19.7117 6.26396L17.8637 11.052L18.7966 11.412L20.6446 6.62404L19.7117 6.26396ZM18.3302 10.732H17.1902V11.732H18.3302V10.732ZM17.6568 11.0524L15.8328 6.31243L14.8995 6.67157L16.7235 11.4116L17.6568 11.0524ZM15.3662 5.992H15.3422V6.992H15.3662V5.992ZM14.8429 6.46508L14.6029 10.9171L15.6014 10.9709L15.8414 6.51891L14.8429 6.46508ZM15.0791 11.4435L15.8591 11.4795L15.9052 10.4805L15.1252 10.4445L15.0791 11.4435ZM15.3822 10.98V12H16.3822V10.98H15.3822ZM15.8822 11.5H13.0502V12.5H15.8822V11.5ZM13.5502 12V11.028H12.5502V12H13.5502ZM13.0917 11.5263L13.5237 11.4903L13.4406 10.4937L13.0086 10.5297L13.0917 11.5263ZM13.5255 11.4901C13.7085 11.4742 13.9076 11.4055 14.062 11.2387C14.2118 11.0769 14.2668 10.8795 14.2806 10.7079L13.2837 10.6281C13.2815 10.6565 13.2785 10.6131 13.3283 10.5593C13.3827 10.5005 13.4398 10.4938 13.4388 10.4939L13.5255 11.4901ZM14.2813 10.697L14.6053 5.11698L13.607 5.05902L13.283 10.639L14.2813 10.697ZM14.1389 4.58907L13.4069 4.54107L13.3414 5.53893L14.0734 5.58693L14.1389 4.58907ZM13.8742 5.04V4.02H12.8742V5.04H13.8742ZM13.3742 4.52H15.7862V3.52H13.3742V4.52ZM24.234 10.656L24.7065 10.8196L24.7066 10.8193L24.234 10.656ZM26.166 5.064L26.6386 5.22728L26.8461 4.62651L26.2134 4.56625L26.166 5.064ZM25.41 4.992H24.91V5.44664L25.3626 5.48975L25.41 4.992ZM25.41 4.02V3.52H24.91V4.02H25.41ZM28.158 4.02L28.6294 3.85333L28.5115 3.52H28.158V4.02ZM30.606 10.944L30.1346 11.1107L30.2524 11.444H30.606V10.944ZM30.618 10.944L30.6442 10.4447L30.6311 10.444H30.618V10.944ZM31.302 10.98H31.802V10.5056L31.3282 10.4807L31.302 10.98ZM31.302 12V12.5H31.802V12H31.302ZM28.206 12H27.706V12.5H28.206V12ZM28.206 11.028L28.1666 10.5296L27.706 10.5659V11.028H28.206ZM28.662 10.992L28.7013 11.4904L28.7109 11.4897L28.7204 11.4886L28.662 10.992ZM28.938 10.896L28.5844 10.5424L28.5844 10.5424L28.938 10.896ZM28.95 10.632L29.4273 10.4828L29.4235 10.4716L28.95 10.632ZM28.698 9.888L29.1715 9.7276L29.0565 9.388H28.698V9.888ZM25.89 9.888V9.388H25.5322L25.4167 9.72666L25.89 9.888ZM25.53 10.944L25.0567 10.7827L24.8428 11.4103L25.505 11.4434L25.53 10.944ZM26.25 10.98H26.75V10.5044L26.2749 10.4806L26.25 10.98ZM26.25 12V12.5H26.75V12H26.25ZM23.478 12H22.978V12.5H23.478V12ZM23.478 11.028L23.4327 10.5301L22.978 10.5714V11.028H23.478ZM23.874 10.992L23.9192 11.49L23.9214 11.4897L23.874 10.992ZM27.294 5.364V4.864H26.9312L26.8186 5.20889L27.294 5.364ZM26.178 8.784L25.7026 8.62889L25.4889 9.284H26.178V8.784ZM28.41 8.784V9.284H29.0922L28.8868 8.63343L28.41 8.784ZM27.33 5.364L27.8068 5.21343L27.6964 4.864H27.33V5.364ZM24.7066 10.8193L26.6386 5.22728L25.6934 4.90072L23.7614 10.4927L24.7066 10.8193ZM26.2134 4.56625L25.4574 4.49425L25.3626 5.48975L26.1186 5.56175L26.2134 4.56625ZM25.91 4.992V4.02H24.91V4.992H25.91ZM25.41 4.52H28.158V3.52H25.41V4.52ZM27.6866 4.18667L30.1346 11.1107L31.0774 10.7773L28.6294 3.85333L27.6866 4.18667ZM30.606 11.444H30.618V10.444H30.606V11.444ZM30.5917 11.4433L31.2757 11.4793L31.3282 10.4807L30.6442 10.4447L30.5917 11.4433ZM30.802 10.98V12H31.802V10.98H30.802ZM31.302 11.5H28.206V12.5H31.302V11.5ZM28.706 12V11.028H27.706V12H28.706ZM28.2453 11.5264L28.7013 11.4904L28.6226 10.4936L28.1666 10.5296L28.2453 11.5264ZM28.7204 11.4886C28.8729 11.4706 29.1158 11.4253 29.2915 11.2496L28.5844 10.5424C28.6091 10.5178 28.6316 10.5029 28.6456 10.4949C28.6597 10.4869 28.6684 10.4838 28.6687 10.4838C28.6692 10.4836 28.6643 10.4853 28.6527 10.4877C28.6412 10.4901 28.6251 10.4929 28.6035 10.4954L28.7204 11.4886ZM29.2915 11.2496C29.4275 11.1136 29.4705 10.9472 29.4765 10.8167C29.4821 10.6925 29.4565 10.5765 29.4272 10.4829L28.4727 10.7811C28.4835 10.8155 28.4758 10.8075 28.4775 10.7713C28.4794 10.7288 28.4965 10.6304 28.5844 10.5424L29.2915 11.2496ZM29.4235 10.4716L29.1715 9.7276L28.2244 10.0484L28.4764 10.7924L29.4235 10.4716ZM28.698 9.388H25.89V10.388H28.698V9.388ZM25.4167 9.72666L25.0567 10.7827L26.0032 11.1053L26.3632 10.0493L25.4167 9.72666ZM25.505 11.4434L26.225 11.4794L26.2749 10.4806L25.5549 10.4446L25.505 11.4434ZM25.75 10.98V12H26.75V10.98H25.75ZM26.25 11.5H23.478V12.5H26.25V11.5ZM23.978 12V11.028H22.978V12H23.978ZM23.5232 11.5259L23.9192 11.4899L23.8287 10.4941L23.4327 10.5301L23.5232 11.5259ZM23.9214 11.4897C24.1119 11.4716 24.2881 11.3951 24.4311 11.2615C24.5675 11.1342 24.6525 10.9754 24.7065 10.8196L23.7615 10.4924C23.7434 10.5446 23.7324 10.5458 23.7488 10.5305C23.7577 10.5221 23.771 10.5126 23.7879 10.5051C23.8046 10.4977 23.8186 10.495 23.8266 10.4943L23.9214 11.4897ZM26.8186 5.20889L25.7026 8.62889L26.6533 8.93911L27.7693 5.51911L26.8186 5.20889ZM26.178 9.284H28.41V8.284H26.178V9.284ZM28.8868 8.63343L27.8068 5.21343L26.8532 5.51457L27.9332 8.93457L28.8868 8.63343ZM27.33 4.864H27.294V5.864H27.33V4.864ZM35.6593 8.88L35.4357 9.32721L35.4443 9.33151L35.453 9.33548L35.6593 8.88ZM34.7833 8.568L34.6517 9.05039L34.6544 9.05112L34.7833 8.568ZM33.8953 8.28L33.6908 8.73625L33.7001 8.74044L33.7096 8.74424L33.8953 8.28ZM33.1873 7.86L32.8884 8.26083L32.8916 8.2632L33.1873 7.86ZM33.2353 4.512L33.5536 4.89761L33.5542 4.89709L33.2353 4.512ZM37.5193 4.368H38.0193V4.04935L37.7304 3.91478L37.5193 4.368ZM37.5193 6.168L37.5535 6.66683L38.0193 6.63486V6.168H37.5193ZM36.2953 6.252H35.7953V6.78749L36.3295 6.75083L36.2953 6.252ZM36.2473 5.292L36.6814 5.04393L36.68 5.04148L36.2473 5.292ZM34.3393 5.316L34.046 4.91097L34.0393 4.916L34.3393 5.316ZM34.2913 6.768L34.6448 6.41445L34.6448 6.41445L34.2913 6.768ZM34.8553 7.092L34.6881 7.56321L34.6971 7.5664L34.7061 7.56924L34.8553 7.092ZM35.6593 7.344L35.5094 7.82101L35.5132 7.82218L35.6593 7.344ZM36.4153 7.632L36.1984 8.08255L36.2047 8.0855L36.4153 7.632ZM37.1113 8.064L36.807 8.46087L36.8145 8.46636L37.1113 8.064ZM37.0273 11.508L36.7163 11.1164L36.7135 11.1187L37.0273 11.508ZM32.5153 11.664H32.0153V11.9827L32.3041 12.1172L32.5153 11.664ZM32.5153 9.768L32.481 9.26917L32.0153 9.30114V9.768H32.5153ZM33.7393 9.684H34.2393V9.14851L33.705 9.18517L33.7393 9.684ZM33.7873 10.68L34.2214 10.4319L34.2214 10.4319L33.7873 10.68ZM34.0753 10.848L33.9101 11.3199L33.9239 11.3248L33.9379 11.3288L34.0753 10.848ZM34.8553 11.42C35.3887 11.42 35.8813 11.3155 36.2476 11.0224C36.6353 10.7123 36.7953 10.2624 36.7953 9.768H35.7953C35.7953 10.0416 35.7153 10.1677 35.6229 10.2416C35.5093 10.3325 35.2819 10.42 34.8553 10.42V11.42ZM36.7953 9.768C36.7953 9.47439 36.7156 9.19615 36.5428 8.95486C36.3733 8.71819 36.1357 8.54687 35.8655 8.42452L35.453 9.33548C35.6069 9.40513 35.6873 9.47781 35.7298 9.53714C35.769 9.59185 35.7953 9.66161 35.7953 9.768H36.7953ZM35.8829 8.43279C35.6178 8.30024 35.2906 8.18582 34.9121 8.08488L34.6544 9.05112C34.9959 9.14218 35.2528 9.23576 35.4357 9.32721L35.8829 8.43279ZM34.9148 8.08562C34.5744 7.99277 34.2978 7.90247 34.081 7.81576L33.7096 8.74424C33.9728 8.84953 34.2882 8.95123 34.6517 9.05038L34.9148 8.08562ZM34.0998 7.82375C33.9049 7.73636 33.6992 7.61538 33.483 7.4568L32.8916 8.2632C33.1553 8.45662 33.4217 8.61564 33.6908 8.73625L34.0998 7.82375ZM33.4862 7.45919C33.1707 7.22392 32.9793 6.85173 32.9793 6.24H31.9793C31.9793 7.08427 32.2598 7.79208 32.8884 8.26081L33.4862 7.45919ZM32.9793 6.24C32.9793 5.63199 33.1801 5.2059 33.5536 4.89761L32.917 4.12639C32.2825 4.6501 31.9793 5.37601 31.9793 6.24H32.9793ZM33.5542 4.89709C33.9575 4.56313 34.5003 4.376 35.2273 4.376V3.376C34.3222 3.376 33.5371 3.61287 32.9164 4.1269L33.5542 4.89709ZM35.2273 4.376C35.9829 4.376 36.6742 4.5259 37.3081 4.82122L37.7304 3.91478C36.9563 3.5541 36.1197 3.376 35.2273 3.376V4.376ZM37.0193 4.368V6.168H38.0193V4.368H37.0193ZM37.485 5.66917L36.261 5.75317L36.3295 6.75083L37.5535 6.66683L37.485 5.66917ZM36.7953 6.252V5.556H35.7953V6.252H36.7953ZM36.7953 5.556C36.7953 5.41217 36.7797 5.21601 36.6814 5.04393L35.8132 5.54007C35.8023 5.521 35.7966 5.50603 35.7939 5.49811C35.7913 5.49013 35.7909 5.48673 35.7913 5.48944C35.7918 5.49204 35.7929 5.49875 35.7938 5.51035C35.7946 5.52186 35.7953 5.53694 35.7953 5.556H36.7953ZM36.68 5.04148C36.5369 4.79424 36.2861 4.68847 36.0975 4.638C35.8953 4.58388 35.6551 4.564 35.3953 4.564V5.564C35.6154 5.564 35.7572 5.58212 35.839 5.604C35.9344 5.62953 35.8697 5.63776 35.8146 5.54252L36.68 5.04148ZM35.3953 4.564C34.8801 4.564 34.4027 4.65274 34.046 4.91103L34.6325 5.72097C34.7399 5.64326 34.9664 5.564 35.3953 5.564V4.564ZM34.0393 4.916C33.6574 5.20241 33.5033 5.63142 33.5033 6.096H34.5033C34.5033 5.85658 34.5732 5.76559 34.6393 5.716L34.0393 4.916ZM33.5033 6.096C33.5033 6.49328 33.6583 6.8421 33.9377 7.12155L34.6448 6.41445C34.5403 6.3099 34.5033 6.21072 34.5033 6.096H33.5033ZM33.9377 7.12155C34.1366 7.32045 34.3994 7.46076 34.6881 7.56321L35.0225 6.62079C34.8152 6.54724 34.7019 6.47155 34.6448 6.41445L33.9377 7.12155ZM34.7061 7.56924C34.9619 7.64915 35.2296 7.73307 35.5094 7.821L35.8092 6.867C35.529 6.77893 35.2607 6.69485 35.0044 6.61476L34.7061 7.56924ZM35.5132 7.82218C35.7828 7.90455 36.0102 7.99188 36.1984 8.0825L36.6322 7.1815C36.3884 7.06412 36.1118 6.95945 35.8054 6.86582L35.5132 7.82218ZM36.2047 8.0855C36.3891 8.17111 36.5899 8.29431 36.8071 8.4608L37.4155 7.6672C37.1527 7.46569 36.8895 7.30089 36.6258 7.1785L36.2047 8.0855ZM36.8145 8.46636C37.144 8.70943 37.3433 9.09625 37.3433 9.732H38.3433C38.3433 8.86375 38.0546 8.13857 37.4081 7.66164L36.8145 8.46636ZM37.3433 9.732C37.3433 10.3459 37.13 10.7879 36.7163 11.1164L37.3382 11.8996C38.0125 11.3641 38.3433 10.6221 38.3433 9.732H37.3433ZM36.7135 11.1187C36.2894 11.4605 35.6987 11.656 34.8913 11.656V12.656C35.8599 12.656 36.6932 12.4195 37.341 11.8973L36.7135 11.1187ZM34.8913 11.656C34.0745 11.656 33.356 11.5041 32.7264 11.2108L32.3041 12.1172C33.0825 12.4799 33.9481 12.656 34.8913 12.656V11.656ZM33.0153 11.664V9.768H32.0153V11.664H33.0153ZM32.5495 10.2668L33.7735 10.1828L33.705 9.18517L32.481 9.26917L32.5495 10.2668ZM33.2393 9.684V10.416H34.2393V9.684H33.2393ZM33.2393 10.416C33.2393 10.5598 33.2548 10.756 33.3532 10.9281L34.2214 10.4319C34.2323 10.451 34.238 10.466 34.2406 10.4739C34.2433 10.4819 34.2437 10.4853 34.2432 10.4826C34.2427 10.48 34.2417 10.4733 34.2408 10.4617C34.2399 10.4501 34.2393 10.4351 34.2393 10.416H33.2393ZM33.3532 10.9281C33.4338 11.0692 33.5555 11.1516 33.6313 11.1959C33.7173 11.246 33.8139 11.2863 33.9101 11.3199L34.2405 10.3761C34.21 10.3654 34.186 10.3559 34.1677 10.3479C34.1491 10.3398 34.139 10.3343 34.1352 10.3321C34.1308 10.3296 34.1386 10.3335 34.1525 10.3457C34.1658 10.3573 34.1946 10.385 34.2214 10.4319L33.3532 10.9281ZM33.9379 11.3288C34.1759 11.3968 34.4938 11.42 34.8553 11.42V10.42C34.5127 10.42 34.3106 10.3952 34.2126 10.3672L33.9379 11.3288ZM42.5288 8.88L42.3052 9.32721L42.3138 9.33151L42.3226 9.33548L42.5288 8.88ZM41.6528 8.568L41.5212 9.05039L41.524 9.05112L41.6528 8.568ZM40.7648 8.28L40.5603 8.73625L40.5696 8.74044L40.5791 8.74424L40.7648 8.28ZM40.0568 7.86L39.7579 8.26083L39.7611 8.2632L40.0568 7.86ZM40.1048 4.512L40.4231 4.89761L40.4237 4.89709L40.1048 4.512ZM44.3888 4.368H44.8888V4.04935L44.6 3.91478L44.3888 4.368ZM44.3888 6.168L44.423 6.66683L44.8888 6.63486V6.168H44.3888ZM43.1648 6.252H42.6648V6.78749L43.199 6.75083L43.1648 6.252ZM43.1168 5.292L43.5509 5.04393L43.5495 5.04148L43.1168 5.292ZM41.2088 5.316L40.9155 4.91097L40.9088 4.916L41.2088 5.316ZM41.1608 6.768L41.5144 6.41445L41.5144 6.41445L41.1608 6.768ZM41.7248 7.092L41.5576 7.56321L41.5666 7.5664L41.5757 7.56924L41.7248 7.092ZM42.5288 7.344L42.3789 7.82101L42.3827 7.82218L42.5288 7.344ZM43.2848 7.632L43.0679 8.08255L43.0743 8.0855L43.2848 7.632ZM43.9808 8.064L43.6765 8.46087L43.684 8.46636L43.9808 8.064ZM43.8968 11.508L43.5859 11.1164L43.583 11.1187L43.8968 11.508ZM39.3848 11.664H38.8848V11.9827L39.1736 12.1172L39.3848 11.664ZM39.3848 9.768L39.3506 9.26917L38.8848 9.30114V9.768H39.3848ZM40.6088 9.684H41.1088V9.14851L40.5746 9.18517L40.6088 9.684ZM40.6568 10.68L41.0909 10.4319L41.0909 10.4319L40.6568 10.68ZM40.9448 10.848L40.7796 11.3199L40.7934 11.3248L40.8074 11.3288L40.9448 10.848ZM41.7248 11.42C42.2582 11.42 42.7508 11.3155 43.1172 11.0224C43.5048 10.7123 43.6648 10.2624 43.6648 9.768H42.6648C42.6648 10.0416 42.5848 10.1677 42.4925 10.2416C42.3788 10.3325 42.1514 10.42 41.7248 10.42V11.42ZM43.6648 9.768C43.6648 9.47439 43.5851 9.19615 43.4123 8.95486C43.2428 8.71819 43.0052 8.54687 42.7351 8.42452L42.3226 9.33548C42.4764 9.40513 42.5568 9.47781 42.5993 9.53714C42.6385 9.59185 42.6648 9.66161 42.6648 9.768H43.6648ZM42.7524 8.43279C42.4873 8.30024 42.1602 8.18582 41.7816 8.08488L41.524 9.05112C41.8654 9.14218 42.1223 9.23576 42.3052 9.32721L42.7524 8.43279ZM41.7844 8.08562C41.4439 7.99277 41.1673 7.90247 40.9505 7.81576L40.5791 8.74424C40.8423 8.84953 41.1577 8.95123 41.5213 9.05038L41.7844 8.08562ZM40.9693 7.82375C40.7744 7.73636 40.5687 7.61538 40.3525 7.4568L39.7611 8.2632C40.0249 8.45662 40.2912 8.61564 40.5603 8.73625L40.9693 7.82375ZM40.3557 7.45919C40.0403 7.22392 39.8488 6.85173 39.8488 6.24H38.8488C38.8488 7.08427 39.1294 7.79208 39.7579 8.26081L40.3557 7.45919ZM39.8488 6.24C39.8488 5.63199 40.0496 5.2059 40.4231 4.89761L39.7865 4.12639C39.152 4.6501 38.8488 5.37601 38.8488 6.24H39.8488ZM40.4237 4.89709C40.827 4.56313 41.3699 4.376 42.0968 4.376V3.376C41.1918 3.376 40.4066 3.61287 39.7859 4.1269L40.4237 4.89709ZM42.0968 4.376C42.8524 4.376 43.5438 4.5259 44.1776 4.82122L44.6 3.91478C43.8258 3.5541 42.9892 3.376 42.0968 3.376V4.376ZM43.8888 4.368V6.168H44.8888V4.368H43.8888ZM44.3546 5.66917L43.1306 5.75317L43.199 6.75083L44.423 6.66683L44.3546 5.66917ZM43.6648 6.252V5.556H42.6648V6.252H43.6648ZM43.6648 5.556C43.6648 5.41217 43.6493 5.21601 43.5509 5.04393L42.6827 5.54007C42.6718 5.521 42.6661 5.50603 42.6635 5.49811C42.6608 5.49013 42.6604 5.48673 42.6609 5.48944C42.6613 5.49204 42.6624 5.49875 42.6633 5.51035C42.6642 5.52186 42.6648 5.53694 42.6648 5.556H43.6648ZM43.5495 5.04148C43.4064 4.79424 43.1557 4.68847 42.9671 4.638C42.7649 4.58388 42.5247 4.564 42.2648 4.564V5.564C42.485 5.564 42.6268 5.58212 42.7086 5.604C42.804 5.62953 42.7392 5.63776 42.6841 5.54252L43.5495 5.04148ZM42.2648 4.564C41.7496 4.564 41.2722 4.65274 40.9156 4.91103L41.5021 5.72097C41.6094 5.64326 41.836 5.564 42.2648 5.564V4.564ZM40.9088 4.916C40.5269 5.20241 40.3728 5.63142 40.3728 6.096H41.3728C41.3728 5.85658 41.4427 5.76559 41.5088 5.716L40.9088 4.916ZM40.3728 6.096C40.3728 6.49328 40.5278 6.8421 40.8073 7.12155L41.5144 6.41445C41.4098 6.3099 41.3728 6.21072 41.3728 6.096H40.3728ZM40.8073 7.12155C41.0062 7.32045 41.2689 7.46076 41.5576 7.56321L41.892 6.62079C41.6847 6.54724 41.5715 6.47155 41.5144 6.41445L40.8073 7.12155ZM41.5757 7.56924C41.8314 7.64915 42.0991 7.73307 42.3789 7.821L42.6787 6.867C42.3985 6.77893 42.1302 6.69485 41.8739 6.61476L41.5757 7.56924ZM42.3827 7.82218C42.6523 7.90455 42.8797 7.99188 43.0679 8.0825L43.5017 7.1815C43.2579 7.06412 42.9813 6.95945 42.6749 6.86582L42.3827 7.82218ZM43.0743 8.0855C43.2586 8.17111 43.4594 8.29431 43.6766 8.4608L44.285 7.6672C44.0222 7.46569 43.759 7.30089 43.4954 7.1785L43.0743 8.0855ZM43.684 8.46636C44.0135 8.70943 44.2128 9.09625 44.2128 9.732H45.2128C45.2128 8.86375 44.9241 8.13857 44.2776 7.66164L43.684 8.46636ZM44.2128 9.732C44.2128 10.3459 43.9996 10.7879 43.5859 11.1164L44.2078 11.8996C44.8821 11.3641 45.2128 10.6221 45.2128 9.732H44.2128ZM43.583 11.1187C43.1589 11.4605 42.5682 11.656 41.7608 11.656V12.656C42.7294 12.656 43.5627 12.4195 44.2106 11.8973L43.583 11.1187ZM41.7608 11.656C40.944 11.656 40.2256 11.5041 39.596 11.2108L39.1736 12.1172C39.9521 12.4799 40.8176 12.656 41.7608 12.656V11.656ZM39.8848 11.664V9.768H38.8848V11.664H39.8848ZM39.419 10.2668L40.643 10.1828L40.5746 9.18517L39.3506 9.26917L39.419 10.2668ZM40.1088 9.684V10.416H41.1088V9.684H40.1088ZM40.1088 10.416C40.1088 10.5598 40.1244 10.756 40.2227 10.9281L41.0909 10.4319C41.1018 10.451 41.1075 10.466 41.1102 10.4739C41.1128 10.4819 41.1132 10.4853 41.1127 10.4826C41.1123 10.48 41.1112 10.4733 41.1103 10.4617C41.1095 10.4501 41.1088 10.4351 41.1088 10.416H40.1088ZM40.2227 10.9281C40.3033 11.0692 40.425 11.1516 40.5009 11.1959C40.5868 11.246 40.6834 11.2863 40.7796 11.3199L41.11 10.3761C41.0795 10.3654 41.0555 10.3559 41.0372 10.3479C41.0186 10.3398 41.0085 10.3343 41.0047 10.3321C41.0004 10.3296 41.0081 10.3335 41.0221 10.3457C41.0354 10.3573 41.0641 10.385 41.0909 10.4319L40.2227 10.9281ZM40.8074 11.3288C41.0455 11.3968 41.3634 11.42 41.7248 11.42V10.42C41.3822 10.42 41.1801 10.3952 41.0822 10.3672L40.8074 11.3288ZM50.2175 12H49.7175V12.5H50.2175V12ZM50.2175 10.704L50.1722 10.2061L49.7175 10.2474V10.704H50.2175ZM50.7455 10.656L50.7907 11.154L50.7969 11.1533L50.7455 10.656ZM51.2095 2.768H51.7095V2.29362L51.2357 2.26869L51.2095 2.768ZM50.2975 2.72H49.7975V3.19438L50.2712 3.21931L50.2975 2.72ZM50.2975 1.36V0.86H49.7975V1.36H50.2975ZM57.5135 2.048L57.7984 1.63714L57.7984 1.63714L57.5135 2.048ZM57.9295 6.096L57.5425 5.77935L57.5382 5.78474L57.9295 6.096ZM56.5855 7.12L56.3965 6.65708L55.1924 7.14855L56.4156 7.59028L56.5855 7.12ZM57.4975 8.096L57.0393 8.29644L57.043 8.30443L57.4975 8.096ZM58.6495 10.608L58.195 10.8164L58.3236 11.0969L58.6319 11.1077L58.6495 10.608ZM59.5615 10.64H60.0615V10.1572L59.579 10.1403L59.5615 10.64ZM59.5615 12V12.5H60.0615V12H59.5615ZM55.6095 12H55.1095V12.5H55.6095V12ZM55.6095 10.704L55.558 10.2067L55.1095 10.2531V10.704H55.6095ZM56.0735 10.656L56.1249 11.1535L56.1381 11.1518L56.0735 10.656ZM56.3775 10.144L55.9248 10.3567L55.9303 10.3676L56.3775 10.144ZM55.6255 8.544L55.1677 8.74543L55.173 8.75668L55.6255 8.544ZM55.2255 7.984L54.9025 8.36569L54.9182 8.37894L54.9348 8.39087L55.2255 7.984ZM53.1615 7.808V7.308H52.6615V7.808H53.1615ZM53.1615 10.592H52.6615V11.0695L53.1384 11.0915L53.1615 10.592ZM54.2015 10.64H54.7015V10.1625L54.2245 10.1405L54.2015 10.64ZM54.2015 12V12.5H54.7015V12H54.2015ZM53.1615 6.288H52.6615V6.788H53.1615V6.288ZM55.9935 3.216L55.7382 3.64597L55.744 3.64931L55.9935 3.216ZM53.1615 2.912V2.412H52.6615V2.912H53.1615ZM50.7175 12V10.704H49.7175V12H50.7175ZM50.2627 11.2019L50.7907 11.1539L50.7002 10.1581L50.1722 10.2061L50.2627 11.2019ZM50.7969 11.1533C51.0147 11.1308 51.254 11.06 51.4408 10.8797C51.6381 10.6892 51.7095 10.4423 51.7095 10.208H50.7095C50.7095 10.2269 50.7067 10.2255 50.7118 10.2118C50.7144 10.2048 50.7186 10.1959 50.7249 10.1862C50.7312 10.1765 50.7385 10.1677 50.7462 10.1603C50.762 10.145 50.7726 10.1419 50.7665 10.1443C50.7592 10.1471 50.7372 10.1542 50.694 10.1587L50.7969 11.1533ZM51.7095 10.208V2.768H50.7095V10.208H51.7095ZM51.2357 2.26869L50.3237 2.22069L50.2712 3.21931L51.1832 3.26731L51.2357 2.26869ZM50.7975 2.72V1.36H49.7975V2.72H50.7975ZM50.2975 1.86H54.6655V0.86H50.2975V1.86ZM54.6655 1.86C55.852 1.86 56.6848 2.08177 57.2285 2.45886L57.7984 1.63714C57.0195 1.0969 55.9536 0.86 54.6655 0.86V1.86ZM57.2285 2.45886C57.7159 2.79688 58.0055 3.36819 58.0055 4.304H59.0055C59.0055 3.14914 58.6337 2.21645 57.7984 1.63714L57.2285 2.45886ZM58.0055 4.304C58.0055 4.93747 57.8398 5.41605 57.5425 5.77938L58.3164 6.41262C58.7872 5.83728 59.0055 5.12119 59.0055 4.304H58.0055ZM57.5382 5.78474C57.2147 6.19134 56.8349 6.47815 56.3965 6.65708L56.7744 7.58292C57.3814 7.33518 57.8975 6.93933 58.3208 6.40726L57.5382 5.78474ZM56.4156 7.59028C56.6286 7.66717 56.8494 7.86226 57.0394 8.29641L57.9555 7.89559C57.6975 7.30574 57.3104 6.85016 56.7553 6.64972L56.4156 7.59028ZM57.043 8.30443L58.195 10.8164L59.104 10.3996L57.952 7.88757L57.043 8.30443ZM58.6319 11.1077L59.5439 11.1397L59.579 10.1403L58.667 10.1083L58.6319 11.1077ZM59.0615 10.64V12H60.0615V10.64H59.0615ZM59.5615 11.5H55.6095V12.5H59.5615V11.5ZM56.1095 12V10.704H55.1095V12H56.1095ZM55.6609 11.2013L56.1249 11.1533L56.022 10.1587L55.558 10.2067L55.6609 11.2013ZM56.1381 11.1518C56.3022 11.1304 56.4958 11.0804 56.6576 10.9538C56.8438 10.808 56.9415 10.5969 56.9415 10.368H55.9415C55.9415 10.3428 55.9467 10.3035 55.9676 10.2599C55.9886 10.2159 56.0173 10.185 56.0413 10.1662C56.0633 10.1491 56.0767 10.1455 56.0702 10.1478C56.0638 10.15 56.0448 10.1555 56.0088 10.1602L56.1381 11.1518ZM56.9415 10.368C56.9415 10.1977 56.8864 10.0439 56.8247 9.92039L55.9303 10.3676C55.9408 10.3886 55.9442 10.3996 55.9447 10.4014C55.9452 10.4032 55.9415 10.3911 55.9415 10.368H56.9415ZM56.83 9.93132L56.078 8.33132L55.173 8.75668L55.925 10.3567L56.83 9.93132ZM56.0831 8.34263C55.9489 8.03755 55.7696 7.75821 55.5161 7.57713L54.9348 8.39087C54.98 8.42312 55.0674 8.51712 55.1678 8.74537L56.0831 8.34263ZM55.5484 7.60231C55.2855 7.37981 54.9485 7.308 54.6175 7.308V8.308C54.8197 8.308 54.8881 8.35352 54.9025 8.36569L55.5484 7.60231ZM54.6175 7.308H53.1615V8.308H54.6175V7.308ZM52.6615 7.808V10.592H53.6615V7.808H52.6615ZM53.1384 11.0915L54.1784 11.1395L54.2245 10.1405L53.1845 10.0925L53.1384 11.0915ZM53.7015 10.64V12H54.7015V10.64H53.7015ZM54.2015 11.5H50.2175V12.5H54.2015V11.5ZM53.1615 6.788H54.5535V5.788H53.1615V6.788ZM54.5535 6.788C55.2736 6.788 55.9071 6.6282 56.3628 6.2207C56.8291 5.80369 57.0215 5.20708 57.0215 4.528H56.0215C56.0215 5.02225 55.8859 5.30564 55.6962 5.4753C55.4958 5.65447 55.1453 5.788 54.5535 5.788V6.788ZM57.0215 4.528C57.0215 3.79915 56.8326 3.12216 56.2429 2.78269L55.744 3.64931C55.8584 3.71517 56.0215 3.91285 56.0215 4.528H57.0215ZM56.2487 2.78607C55.7866 2.51168 55.1175 2.412 54.3295 2.412V3.412C55.0774 3.412 55.5177 3.51498 55.7382 3.64593L56.2487 2.78607ZM54.3295 2.412H53.1615V3.412H54.3295V2.412ZM52.6615 2.912V6.288H53.6615V2.912H52.6615ZM61.0331 12H60.5331V12.5H61.0331V12ZM61.0331 10.704L60.9878 10.2061L60.5331 10.2474V10.704H61.0331ZM61.5611 10.656L61.6064 11.154L61.6125 11.1533L61.5611 10.656ZM62.0251 2.768H62.5251V2.29362L62.0514 2.26869L62.0251 2.768ZM61.1131 2.72H60.6131V3.19438L61.0868 3.21931L61.1131 2.72ZM61.1131 1.36V0.86H60.6131V1.36H61.1131ZM68.3291 2.048L68.614 1.63714L68.614 1.63714L68.3291 2.048ZM68.7451 6.096L68.3581 5.77935L68.3538 5.78474L68.7451 6.096ZM67.4011 7.12L67.2121 6.65708L66.008 7.14855L67.2313 7.59028L67.4011 7.12ZM68.3131 8.096L67.8549 8.29644L67.8586 8.30443L68.3131 8.096ZM69.4651 10.608L69.0106 10.8164L69.1392 11.0969L69.4476 11.1077L69.4651 10.608ZM70.3771 10.64H70.8771V10.1572L70.3946 10.1403L70.3771 10.64ZM70.3771 12V12.5H70.8771V12H70.3771ZM66.4251 12H65.9251V12.5H66.4251V12ZM66.4251 10.704L66.3736 10.2067L65.9251 10.2531V10.704H66.4251ZM66.8891 10.656L66.9406 11.1535L66.9538 11.1518L66.8891 10.656ZM67.1931 10.144L66.7404 10.3567L66.7459 10.3676L67.1931 10.144ZM66.4411 8.544L65.9833 8.74543L65.9886 8.75668L66.4411 8.544ZM66.0411 7.984L65.7181 8.36569L65.7338 8.37894L65.7505 8.39087L66.0411 7.984ZM63.9771 7.808V7.308H63.4771V7.808H63.9771ZM63.9771 10.592H63.4771V11.0695L63.954 11.0915L63.9771 10.592ZM65.0171 10.64H65.5171V10.1625L65.0401 10.1405L65.0171 10.64ZM65.0171 12V12.5H65.5171V12H65.0171ZM63.9771 6.288H63.4771V6.788H63.9771V6.288ZM66.8091 3.216L66.5538 3.64597L66.5596 3.64931L66.8091 3.216ZM63.9771 2.912V2.412H63.4771V2.912H63.9771ZM61.5331 12V10.704H60.5331V12H61.5331ZM61.0784 11.2019L61.6064 11.1539L61.5158 10.1581L60.9878 10.2061L61.0784 11.2019ZM61.6125 11.1533C61.8303 11.1308 62.0696 11.06 62.2564 10.8797C62.4537 10.6892 62.5251 10.4423 62.5251 10.208H61.5251C61.5251 10.2269 61.5223 10.2255 61.5274 10.2118C61.53 10.2048 61.5342 10.1959 61.5405 10.1862C61.5468 10.1765 61.5541 10.1677 61.5618 10.1603C61.5776 10.145 61.5882 10.1419 61.5821 10.1443C61.5749 10.1471 61.5528 10.1542 61.5096 10.1587L61.6125 11.1533ZM62.5251 10.208V2.768H61.5251V10.208H62.5251ZM62.0514 2.26869L61.1394 2.22069L61.0868 3.21931L61.9988 3.26731L62.0514 2.26869ZM61.6131 2.72V1.36H60.6131V2.72H61.6131ZM61.1131 1.86H65.4811V0.86H61.1131V1.86ZM65.4811 1.86C66.6676 1.86 67.5004 2.08177 68.0441 2.45886L68.614 1.63714C67.8351 1.0969 66.7692 0.86 65.4811 0.86V1.86ZM68.0441 2.45886C68.5315 2.79688 68.8211 3.36819 68.8211 4.304H69.8211C69.8211 3.14914 69.4493 2.21645 68.614 1.63714L68.0441 2.45886ZM68.8211 4.304C68.8211 4.93747 68.6554 5.41605 68.3581 5.77938L69.1321 6.41262C69.6028 5.83728 69.8211 5.12119 69.8211 4.304H68.8211ZM68.3538 5.78474C68.0304 6.19134 67.6505 6.47815 67.2121 6.65708L67.59 7.58292C68.197 7.33518 68.7132 6.93933 69.1364 6.40726L68.3538 5.78474ZM67.2313 7.59028C67.4442 7.66717 67.6651 7.86226 67.855 8.29641L68.7712 7.89559C68.5131 7.30574 68.126 6.85016 67.5709 6.64972L67.2313 7.59028ZM67.8586 8.30443L69.0106 10.8164L69.9196 10.3996L68.7676 7.88757L67.8586 8.30443ZM69.4476 11.1077L70.3596 11.1397L70.3946 10.1403L69.4826 10.1083L69.4476 11.1077ZM69.8771 10.64V12H70.8771V10.64H69.8771ZM70.3771 11.5H66.4251V12.5H70.3771V11.5ZM66.9251 12V10.704H65.9251V12H66.9251ZM66.4765 11.2013L66.9405 11.1533L66.8376 10.1587L66.3736 10.2067L66.4765 11.2013ZM66.9538 11.1518C67.1179 11.1304 67.3114 11.0804 67.4732 10.9538C67.6595 10.808 67.7571 10.5969 67.7571 10.368H66.7571C66.7571 10.3428 66.7623 10.3035 66.7832 10.2599C66.8043 10.2159 66.833 10.185 66.8569 10.1662C66.8789 10.1491 66.8923 10.1455 66.8858 10.1478C66.8794 10.15 66.8605 10.1555 66.8244 10.1602L66.9538 11.1518ZM67.7571 10.368C67.7571 10.1977 67.7021 10.0439 67.6403 9.92039L66.7459 10.3676C66.7564 10.3886 66.7598 10.3996 66.7603 10.4014C66.7609 10.4032 66.7571 10.3911 66.7571 10.368H67.7571ZM67.6456 9.93132L66.8936 8.33132L65.9886 8.75668L66.7406 10.3567L67.6456 9.93132ZM66.8987 8.34263C66.7645 8.03755 66.5852 7.75821 66.3317 7.57713L65.7505 8.39087C65.7956 8.42312 65.883 8.51712 65.9834 8.74537L66.8987 8.34263ZM66.3641 7.60231C66.1011 7.37981 65.7642 7.308 65.4331 7.308V8.308C65.6354 8.308 65.7037 8.35352 65.7181 8.36569L66.3641 7.60231ZM65.4331 7.308H63.9771V8.308H65.4331V7.308ZM63.4771 7.808V10.592H64.4771V7.808H63.4771ZM63.954 11.0915L64.994 11.1395L65.0401 10.1405L64.0001 10.0925L63.954 11.0915ZM64.5171 10.64V12H65.5171V10.64H64.5171ZM65.0171 11.5H61.0331V12.5H65.0171V11.5ZM63.9771 6.788H65.3691V5.788H63.9771V6.788ZM65.3691 6.788C66.0892 6.788 66.7227 6.6282 67.1784 6.2207C67.6447 5.80369 67.8371 5.20708 67.8371 4.528H66.8371C66.8371 5.02225 66.7015 5.30564 66.5118 5.4753C66.3114 5.65447 65.9609 5.788 65.3691 5.788V6.788ZM67.8371 4.528C67.8371 3.79915 67.6482 3.12216 67.0586 2.78269L66.5596 3.64931C66.674 3.71517 66.8371 3.91285 66.8371 4.528H67.8371ZM67.0644 2.78607C66.6022 2.51168 65.9331 2.412 65.1451 2.412V3.412C65.893 3.412 66.3333 3.51498 66.5538 3.64593L67.0644 2.78607ZM65.1451 2.412H63.9771V3.412H65.1451V2.412ZM63.4771 2.912V6.288H64.4771V2.912H63.4771Z" fill="white" mask="url(#path-3-outside-2_129_127)"/>
</svg>
