<svg width="18" height="19" viewBox="0 0 18 19" fill="none" xmlns="http://www.w3.org/2000/svg">
<mask id="path-1-outside-1_126_122" maskUnits="userSpaceOnUse" x="8" y="8" width="10" height="11" fill="black">
<rect fill="white" x="8" y="8" width="10" height="11"/>
<path d="M9.48765 18V16.9875L9.90015 16.95C10.1418 16.925 10.2626 16.8083 10.2626 16.6V10.7875L9.55015 10.75V9.6875H12.9626C13.9293 9.6875 14.671 9.86667 15.1876 10.225C15.7043 10.5833 15.9626 11.1708 15.9626 11.9875C15.9626 12.5542 15.8126 13.0208 15.5126 13.3875C15.221 13.7542 14.871 14.0208 14.4626 14.1875C14.7626 14.2958 15.0001 14.55 15.1751 14.95L16.0751 16.9125L16.7876 16.9375V18H13.7001V16.9875L14.0626 16.95C14.2543 16.925 14.3501 16.85 14.3501 16.725C14.3501 16.675 14.3335 16.6167 14.3001 16.55L13.7126 15.3C13.621 15.0917 13.5168 14.9458 13.4001 14.8625C13.2918 14.7708 13.1335 14.725 12.9251 14.725H11.7876V16.9L12.6001 16.9375V18H9.48765ZM11.7876 13.5375H12.8751C13.9001 13.5375 14.4126 13.0792 14.4126 12.1625C14.4126 11.6375 14.2751 11.2958 14.0001 11.1375C13.7335 10.9792 13.3001 10.9 12.7001 10.9H11.7876V13.5375Z"/>
</mask>
<path d="M9.48765 18V16.9875L9.90015 16.95C10.1418 16.925 10.2626 16.8083 10.2626 16.6V10.7875L9.55015 10.75V9.6875H12.9626C13.9293 9.6875 14.671 9.86667 15.1876 10.225C15.7043 10.5833 15.9626 11.1708 15.9626 11.9875C15.9626 12.5542 15.8126 13.0208 15.5126 13.3875C15.221 13.7542 14.871 14.0208 14.4626 14.1875C14.7626 14.2958 15.0001 14.55 15.1751 14.95L16.0751 16.9125L16.7876 16.9375V18H13.7001V16.9875L14.0626 16.95C14.2543 16.925 14.3501 16.85 14.3501 16.725C14.3501 16.675 14.3335 16.6167 14.3001 16.55L13.7126 15.3C13.621 15.0917 13.5168 14.9458 13.4001 14.8625C13.2918 14.7708 13.1335 14.725 12.9251 14.725H11.7876V16.9L12.6001 16.9375V18H9.48765ZM11.7876 13.5375H12.8751C13.9001 13.5375 14.4126 13.0792 14.4126 12.1625C14.4126 11.6375 14.2751 11.2958 14.0001 11.1375C13.7335 10.9792 13.3001 10.9 12.7001 10.9H11.7876V13.5375Z" fill="#881C1C"/>
<path d="M9.48765 18H8.48765V19H9.48765V18ZM9.48765 16.9875L9.39711 15.9916L8.48765 16.0743V16.9875H9.48765ZM9.90015 16.95L9.99069 17.946L10.003 17.9447L9.90015 16.95ZM10.2626 10.7875H11.2626V9.83875L10.3152 9.78888L10.2626 10.7875ZM9.55015 10.75H8.55015V11.6988L9.49759 11.7486L9.55015 10.75ZM9.55015 9.6875V8.6875H8.55015V9.6875H9.55015ZM15.1876 10.225L15.7575 9.40328L15.7575 9.40328L15.1876 10.225ZM15.5126 13.3875L14.7386 12.7542L14.73 12.765L15.5126 13.3875ZM14.4626 14.1875L14.0847 13.2617L11.6765 14.2446L14.123 15.1281L14.4626 14.1875ZM15.1751 14.95L14.259 15.3508L14.2625 15.3589L14.2662 15.3669L15.1751 14.95ZM16.0751 16.9125L15.1662 17.3294L15.4234 17.8902L16.0401 17.9119L16.0751 16.9125ZM16.7876 16.9375H17.7876V15.972L16.8227 15.9381L16.7876 16.9375ZM16.7876 18V19H17.7876V18H16.7876ZM13.7001 18H12.7001V19H13.7001V18ZM13.7001 16.9875L13.5972 15.9928L12.7001 16.0856V16.9875H13.7001ZM14.0626 16.95L14.1655 17.9447L14.1788 17.9433L14.192 17.9416L14.0626 16.95ZM14.3001 16.55L13.3951 16.9754L13.4003 16.9864L13.4057 16.9972L14.3001 16.55ZM13.7126 15.3L12.7973 15.7027L12.8023 15.7141L12.8076 15.7254L13.7126 15.3ZM13.4001 14.8625L12.7542 15.6259L12.7855 15.6524L12.8189 15.6762L13.4001 14.8625ZM11.7876 14.725V13.725H10.7876V14.725H11.7876ZM11.7876 16.9H10.7876V17.8549L11.7415 17.8989L11.7876 16.9ZM12.6001 16.9375H13.6001V15.9826L12.6463 15.9386L12.6001 16.9375ZM12.6001 18V19H13.6001V18H12.6001ZM11.7876 13.5375H10.7876V14.5375H11.7876V13.5375ZM14.0001 11.1375L13.4896 11.9974L13.5012 12.0041L14.0001 11.1375ZM11.7876 10.9V9.9H10.7876V10.9H11.7876ZM10.4876 18V16.9875H8.48765V18H10.4876ZM9.57818 17.9834L9.99068 17.9459L9.80961 15.9541L9.39711 15.9916L9.57818 17.9834ZM10.003 17.9447C10.2501 17.9191 10.5873 17.8328 10.8666 17.5632C11.1671 17.2731 11.2626 16.906 11.2626 16.6H9.26265C9.26265 16.5023 9.2978 16.2978 9.47743 16.1243C9.63589 15.9713 9.79187 15.9559 9.79725 15.9553L10.003 17.9447ZM11.2626 16.6V10.7875H9.26265V16.6H11.2626ZM10.3152 9.78888L9.60271 9.75138L9.49759 11.7486L10.2101 11.7861L10.3152 9.78888ZM10.5501 10.75V9.6875H8.55015V10.75H10.5501ZM9.55015 10.6875H12.9626V8.6875H9.55015V10.6875ZM12.9626 10.6875C13.8278 10.6875 14.3363 10.8515 14.6177 11.0467L15.7575 9.40328C15.0056 8.8818 14.0309 8.6875 12.9626 8.6875V10.6875ZM14.6177 11.0467C14.7865 11.1638 14.9626 11.3899 14.9626 11.9875H16.9626C16.9626 10.9518 16.6221 10.0029 15.7575 9.40328L14.6177 11.0467ZM14.9626 11.9875C14.9626 12.3704 14.8652 12.5996 14.7387 12.7543L16.2866 14.0207C16.7601 13.4421 16.9626 12.7379 16.9626 11.9875H14.9626ZM14.73 12.765C14.5382 13.0062 14.3245 13.1638 14.0847 13.2617L14.8405 15.1133C15.4175 14.8779 15.9038 14.5022 16.2952 14.01L14.73 12.765ZM14.123 15.1281C14.1109 15.1237 14.1145 15.12 14.1351 15.1421C14.1596 15.1684 14.2058 15.2293 14.259 15.3508L16.0913 14.5492C15.8482 13.9935 15.4444 13.4788 14.8023 13.2469L14.123 15.1281ZM14.2662 15.3669L15.1662 17.3294L16.9841 16.4956L16.0841 14.5331L14.2662 15.3669ZM16.0401 17.9119L16.7526 17.9369L16.8227 15.9381L16.1102 15.9131L16.0401 17.9119ZM15.7876 16.9375V18H17.7876V16.9375H15.7876ZM16.7876 17H13.7001V19H16.7876V17ZM14.7001 18V16.9875H12.7001V18H14.7001ZM13.803 17.9822L14.1655 17.9447L13.9597 15.9553L13.5972 15.9928L13.803 17.9822ZM14.192 17.9416C14.3707 17.9183 14.6456 17.8573 14.8946 17.6625C15.1923 17.4295 15.3501 17.0853 15.3501 16.725H13.3501C13.3501 16.6258 13.3699 16.5034 13.4304 16.3773C13.4912 16.2503 13.5767 16.1543 13.662 16.0875C13.7432 16.0239 13.8169 15.9923 13.8599 15.9774C13.9031 15.9623 13.9306 15.9587 13.9333 15.9584L14.192 17.9416ZM15.3501 16.725C15.3501 16.4624 15.2661 16.2458 15.1946 16.1028L13.4057 16.9972C13.4007 16.9873 13.3881 16.9604 13.3761 16.9185C13.3642 16.8766 13.3501 16.8102 13.3501 16.725H15.3501ZM15.2052 16.1246L14.6177 14.8746L12.8076 15.7254L13.3951 16.9754L15.2052 16.1246ZM14.628 14.8973C14.5025 14.6121 14.3064 14.2809 13.9814 14.0488L12.8189 15.6762C12.7931 15.6578 12.7756 15.6413 12.7652 15.6306C12.755 15.62 12.7509 15.6141 12.752 15.6156C12.7531 15.6171 12.7582 15.6245 12.7664 15.6394C12.7746 15.6542 12.7851 15.675 12.7973 15.7027L14.628 14.8973ZM14.0461 14.0991C13.6892 13.7971 13.2623 13.725 12.9251 13.725V15.725C12.9588 15.725 12.9534 15.729 12.9221 15.7199C12.8878 15.71 12.8234 15.6844 12.7542 15.6259L14.0461 14.0991ZM12.9251 13.725H11.7876V15.725H12.9251V13.725ZM10.7876 14.725V16.9H12.7876V14.725H10.7876ZM11.7415 17.8989L12.554 17.9364L12.6463 15.9386L11.8338 15.9011L11.7415 17.8989ZM11.6001 16.9375V18H13.6001V16.9375H11.6001ZM12.6001 17H9.48765V19H12.6001V17ZM11.7876 14.5375H12.8751V12.5375H11.7876V14.5375ZM12.8751 14.5375C13.516 14.5375 14.1833 14.3967 14.6949 13.9391C15.2277 13.4626 15.4126 12.8057 15.4126 12.1625H13.4126C13.4126 12.301 13.393 12.3786 13.3795 12.4148C13.3731 12.4321 13.3679 12.4405 13.366 12.4433C13.3643 12.4458 13.3633 12.4469 13.3617 12.4483C13.3607 12.4492 13.2593 12.5375 12.8751 12.5375V14.5375ZM15.4126 12.1625C15.4126 11.5238 15.2493 10.7028 14.4991 10.2709L13.5012 12.0041C13.4638 11.9826 13.4323 11.9549 13.4092 11.927C13.3873 11.9004 13.3806 11.8828 13.3818 11.8858C13.3834 11.8898 13.3916 11.9121 13.3992 11.9598C13.4068 12.0074 13.4126 12.0739 13.4126 12.1625H15.4126ZM14.5107 10.2776C14.0024 9.97587 13.3403 9.9 12.7001 9.9V11.9C12.9599 11.9 13.1549 11.9174 13.2954 11.9431C13.4405 11.9696 13.4915 11.9985 13.4896 11.9974L14.5107 10.2776ZM12.7001 9.9H11.7876V11.9H12.7001V9.9ZM10.7876 10.9V13.5375H12.7876V10.9H10.7876Z" fill="black" mask="url(#path-1-outside-1_126_122)"/>
<mask id="path-3-outside-2_126_122" maskUnits="userSpaceOnUse" x="8" y="9" width="10" height="10" fill="black">
<rect fill="white" x="8" y="9" width="10" height="10"/>
<path d="M9.48765 18V16.9875L9.90015 16.95C10.1418 16.925 10.2626 16.8083 10.2626 16.6V10.7875L9.55015 10.75V9.6875H12.9626C13.9293 9.6875 14.671 9.86667 15.1876 10.225C15.7043 10.5833 15.9626 11.1708 15.9626 11.9875C15.9626 12.5542 15.8126 13.0208 15.5126 13.3875C15.221 13.7542 14.871 14.0208 14.4626 14.1875C14.7626 14.2958 15.0001 14.55 15.1751 14.95L16.0751 16.9125L16.7876 16.9375V18H13.7001V16.9875L14.0626 16.95C14.2543 16.925 14.3501 16.85 14.3501 16.725C14.3501 16.675 14.3335 16.6167 14.3001 16.55L13.7126 15.3C13.621 15.0917 13.5168 14.9458 13.4001 14.8625C13.2918 14.7708 13.1335 14.725 12.9251 14.725H11.7876V16.9L12.6001 16.9375V18H9.48765ZM11.7876 13.5375H12.8751C13.9001 13.5375 14.4126 13.0792 14.4126 12.1625C14.4126 11.6375 14.2751 11.2958 14.0001 11.1375C13.7335 10.9792 13.3001 10.9 12.7001 10.9H11.7876V13.5375Z"/>
</mask>
<path d="M9.48765 18V16.9875L9.90015 16.95C10.1418 16.925 10.2626 16.8083 10.2626 16.6V10.7875L9.55015 10.75V9.6875H12.9626C13.9293 9.6875 14.671 9.86667 15.1876 10.225C15.7043 10.5833 15.9626 11.1708 15.9626 11.9875C15.9626 12.5542 15.8126 13.0208 15.5126 13.3875C15.221 13.7542 14.871 14.0208 14.4626 14.1875C14.7626 14.2958 15.0001 14.55 15.1751 14.95L16.0751 16.9125L16.7876 16.9375V18H13.7001V16.9875L14.0626 16.95C14.2543 16.925 14.3501 16.85 14.3501 16.725C14.3501 16.675 14.3335 16.6167 14.3001 16.55L13.7126 15.3C13.621 15.0917 13.5168 14.9458 13.4001 14.8625C13.2918 14.7708 13.1335 14.725 12.9251 14.725H11.7876V16.9L12.6001 16.9375V18H9.48765ZM11.7876 13.5375H12.8751C13.9001 13.5375 14.4126 13.0792 14.4126 12.1625C14.4126 11.6375 14.2751 11.2958 14.0001 11.1375C13.7335 10.9792 13.3001 10.9 12.7001 10.9H11.7876V13.5375Z" fill="#1C875F"/>
<path d="M9.48765 18H8.98765V18.5H9.48765V18ZM9.48765 16.9875L9.44238 16.4896L8.98765 16.5309V16.9875H9.48765ZM9.90015 16.95L9.94542 17.448L9.9516 17.4473L9.90015 16.95ZM10.2626 10.7875H10.7626V10.3131L10.2889 10.2882L10.2626 10.7875ZM9.55015 10.75H9.05015V11.2244L9.52387 11.2493L9.55015 10.75ZM9.55015 9.6875V9.1875H9.05015V9.6875H9.55015ZM15.1876 10.225L15.4726 9.81414L15.4726 9.81414L15.1876 10.225ZM15.5126 13.3875L15.1256 13.0709L15.1213 13.0762L15.5126 13.3875ZM14.4626 14.1875L14.2737 13.7246L13.0696 14.2161L14.2928 14.6578L14.4626 14.1875ZM15.1751 14.95L14.717 15.1504L14.7207 15.1584L15.1751 14.95ZM16.0751 16.9125L15.6207 17.1209L15.7493 17.4014L16.0576 17.4122L16.0751 16.9125ZM16.7876 16.9375H17.2876V16.4547L16.8052 16.4378L16.7876 16.9375ZM16.7876 18V18.5H17.2876V18H16.7876ZM13.7001 18H13.2001V18.5H13.7001V18ZM13.7001 16.9875L13.6487 16.4902L13.2001 16.5366V16.9875H13.7001ZM14.0626 16.95L14.1141 17.4475L14.1273 17.4458L14.0626 16.95ZM14.3001 16.55L13.8475 16.7627L13.8529 16.7736L14.3001 16.55ZM13.7126 15.3L13.2548 15.5014L13.2601 15.5127L13.7126 15.3ZM13.4001 14.8625L13.0772 15.2442L13.0928 15.2574L13.1095 15.2694L13.4001 14.8625ZM11.7876 14.725V14.225H11.2876V14.725H11.7876ZM11.7876 16.9H11.2876V17.3775L11.7646 17.3995L11.7876 16.9ZM12.6001 16.9375H13.1001V16.46L12.6232 16.438L12.6001 16.9375ZM12.6001 18V18.5H13.1001V18H12.6001ZM11.7876 13.5375H11.2876V14.0375H11.7876V13.5375ZM14.0001 11.1375L13.7449 11.5675L13.7507 11.5708L14.0001 11.1375ZM11.7876 10.9V10.4H11.2876V10.9H11.7876ZM9.98765 18V16.9875H8.98765V18H9.98765ZM9.53291 17.4854L9.94541 17.4479L9.85488 16.4521L9.44238 16.4896L9.53291 17.4854ZM9.9516 17.4473C10.1355 17.4283 10.3495 17.3675 10.5193 17.2035C10.6998 17.0292 10.7626 16.8051 10.7626 16.6H9.76265C9.76265 16.6043 9.762 16.5899 9.77133 16.5648C9.78144 16.5376 9.79936 16.5085 9.82472 16.484C9.87375 16.4367 9.90642 16.4467 9.8487 16.4527L9.9516 17.4473ZM10.7626 16.6V10.7875H9.76265V16.6H10.7626ZM10.2889 10.2882L9.57643 10.2507L9.52387 11.2493L10.2364 11.2868L10.2889 10.2882ZM10.0501 10.75V9.6875H9.05015V10.75H10.0501ZM9.55015 10.1875H12.9626V9.1875H9.55015V10.1875ZM12.9626 10.1875C13.8785 10.1875 14.5037 10.3591 14.9027 10.6359L15.4726 9.81414C14.8383 9.37423 13.9801 9.1875 12.9626 9.1875V10.1875ZM14.9027 10.6359C15.2454 10.8735 15.4626 11.2804 15.4626 11.9875H16.4626C16.4626 11.0613 16.1632 10.2931 15.4726 9.81414L14.9027 10.6359ZM15.4626 11.9875C15.4626 12.4623 15.3389 12.8102 15.1257 13.0709L15.8996 13.7041C16.2864 13.2314 16.4626 12.646 16.4626 11.9875H15.4626ZM15.1213 13.0762C14.8796 13.3802 14.5977 13.5923 14.2737 13.7246L14.6516 14.6504C15.1442 14.4494 15.5624 14.1282 15.9039 13.6988L15.1213 13.0762ZM14.2928 14.6578C14.4218 14.7043 14.5761 14.8283 14.7171 15.1504L15.6332 14.7496C15.4242 14.2717 15.1035 13.8873 14.6325 13.7172L14.2928 14.6578ZM14.7207 15.1584L15.6207 17.1209L16.5296 16.7041L15.6296 14.7416L14.7207 15.1584ZM16.0576 17.4122L16.7701 17.4372L16.8052 16.4378L16.0927 16.4128L16.0576 17.4122ZM16.2876 16.9375V18H17.2876V16.9375H16.2876ZM16.7876 17.5H13.7001V18.5H16.7876V17.5ZM14.2001 18V16.9875H13.2001V18H14.2001ZM13.7516 17.4848L14.1141 17.4473L14.0112 16.4527L13.6487 16.4902L13.7516 17.4848ZM14.1273 17.4458C14.2646 17.4279 14.438 17.3849 14.5864 17.2688C14.7592 17.1335 14.8501 16.9364 14.8501 16.725H13.8501C13.8501 16.691 13.857 16.6439 13.8813 16.5933C13.9057 16.5423 13.9394 16.5053 13.9701 16.4812C14.0227 16.4401 14.0524 16.4471 13.998 16.4542L14.1273 17.4458ZM14.8501 16.725C14.8501 16.5687 14.7998 16.4312 14.7474 16.3264L13.8529 16.7736C13.8588 16.7853 13.8587 16.7875 13.8569 16.7811C13.8551 16.7748 13.8501 16.7551 13.8501 16.725H14.8501ZM14.7527 16.3373L14.1652 15.0873L13.2601 15.5127L13.8476 16.7627L14.7527 16.3373ZM14.1703 15.0986C14.0617 14.8519 13.9116 14.6134 13.6908 14.4556L13.1095 15.2694C13.122 15.2783 13.1802 15.3315 13.255 15.5014L14.1703 15.0986ZM13.7231 14.4808C13.4905 14.284 13.1979 14.225 12.9251 14.225V15.225C13.0691 15.225 13.0931 15.2577 13.0772 15.2442L13.7231 14.4808ZM12.9251 14.225H11.7876V15.225H12.9251V14.225ZM11.2876 14.725V16.9H12.2876V14.725H11.2876ZM11.7646 17.3995L12.5771 17.437L12.6232 16.438L11.8107 16.4005L11.7646 17.3995ZM12.1001 16.9375V18H13.1001V16.9375H12.1001ZM12.6001 17.5H9.48765V18.5H12.6001V17.5ZM11.7876 14.0375H12.8751V13.0375H11.7876V14.0375ZM12.8751 14.0375C13.4518 14.0375 13.9777 13.9098 14.3616 13.5664C14.7561 13.2136 14.9126 12.7132 14.9126 12.1625H13.9126C13.9126 12.5284 13.8129 12.7156 13.695 12.821C13.5664 12.936 13.3235 13.0375 12.8751 13.0375V14.0375ZM14.9126 12.1625C14.9126 11.5807 14.7622 10.9993 14.2496 10.7042L13.7507 11.5708C13.788 11.5923 13.9126 11.6943 13.9126 12.1625H14.9126ZM14.2554 10.7076C13.868 10.4775 13.3202 10.4 12.7001 10.4V11.4C13.2801 11.4 13.599 11.4808 13.7449 11.5674L14.2554 10.7076ZM12.7001 10.4H11.7876V11.4H12.7001V10.4ZM11.2876 10.9V13.5375H12.2876V10.9H11.2876Z" fill="white" mask="url(#path-3-outside-2_126_122)"/>
<mask id="path-5-outside-3_126_122" maskUnits="userSpaceOnUse" x="0" y="0" width="18" height="19" fill="black">
<rect fill="white" width="18" height="19"/>
<path d="M5.91384 3.848V11.816C5.91384 12.936 6.17784 13.728 6.70584 14.192C7.24984 14.64 8.01784 14.864 9.00984 14.864C10.0178 14.864 10.7938 14.616 11.3378 14.12C11.8978 13.624 12.1778 12.896 12.1778 11.936V3.152L10.7858 3.08V1.04H16.4738V2.984L15.6818 3.056C15.2178 3.104 14.9858 3.344 14.9858 3.776V12.344C14.9858 13.896 14.4418 15.112 13.3538 15.992C12.2658 16.872 10.7618 17.312 8.84184 17.312C6.92184 17.312 5.46584 16.888 4.47384 16.04C3.49784 15.176 3.00984 13.816 3.00984 11.96V3.152L1.61784 3.08V1.04H7.42584V2.984L6.63384 3.056C6.37784 3.088 6.19384 3.16 6.08184 3.272C5.96984 3.368 5.91384 3.56 5.91384 3.848Z"/>
</mask>
<path d="M5.91384 3.848V11.816C5.91384 12.936 6.17784 13.728 6.70584 14.192C7.24984 14.64 8.01784 14.864 9.00984 14.864C10.0178 14.864 10.7938 14.616 11.3378 14.12C11.8978 13.624 12.1778 12.896 12.1778 11.936V3.152L10.7858 3.08V1.04H16.4738V2.984L15.6818 3.056C15.2178 3.104 14.9858 3.344 14.9858 3.776V12.344C14.9858 13.896 14.4418 15.112 13.3538 15.992C12.2658 16.872 10.7618 17.312 8.84184 17.312C6.92184 17.312 5.46584 16.888 4.47384 16.04C3.49784 15.176 3.00984 13.816 3.00984 11.96V3.152L1.61784 3.08V1.04H7.42584V2.984L6.63384 3.056C6.37784 3.088 6.19384 3.16 6.08184 3.272C5.96984 3.368 5.91384 3.56 5.91384 3.848Z" fill="#881C1C"/>
<path d="M6.70584 14.192L6.04573 14.9432L6.05777 14.9537L6.07014 14.9639L6.70584 14.192ZM11.3378 14.12L10.6748 13.3714L10.6694 13.3762L10.6641 13.381L11.3378 14.12ZM12.1778 3.152H13.1778V2.20239L12.2295 2.15333L12.1778 3.152ZM10.7858 3.08H9.78584V4.02961L10.7342 4.07866L10.7858 3.08ZM10.7858 1.04V0.0399995H9.78584V1.04H10.7858ZM16.4738 1.04H17.4738V0.0399995H16.4738V1.04ZM16.4738 2.984L16.5644 3.97989L17.4738 3.89721V2.984H16.4738ZM15.6818 3.056L15.5913 2.06003L15.5789 2.06131L15.6818 3.056ZM13.3538 15.992L12.725 15.2145L12.725 15.2145L13.3538 15.992ZM4.47384 16.04L3.81101 16.7888L3.81748 16.7945L3.82406 16.8001L4.47384 16.04ZM3.00984 3.152H4.00984V2.20239L3.0615 2.15333L3.00984 3.152ZM1.61784 3.08H0.617844V4.02961L1.56619 4.07866L1.61784 3.08ZM1.61784 1.04V0.0399995H0.617844V1.04H1.61784ZM7.42584 1.04H8.42584V0.0399995H7.42584V1.04ZM7.42584 2.984L7.51638 3.97989L8.42584 3.89721V2.984H7.42584ZM6.63384 3.056L6.54331 2.06011L6.52653 2.06163L6.50981 2.06372L6.63384 3.056ZM6.08184 3.272L6.73263 4.03126L6.76179 4.00626L6.78895 3.9791L6.08184 3.272ZM4.91384 3.848V11.816H6.91384V3.848H4.91384ZM4.91384 11.816C4.91384 13.0557 5.20139 14.2012 6.04573 14.9432L7.36596 13.4408C7.15429 13.2548 6.91384 12.8163 6.91384 11.816H4.91384ZM6.07014 14.9639C6.85387 15.6094 7.87905 15.864 9.00984 15.864V13.864C8.15663 13.864 7.64582 13.6706 7.34155 13.4201L6.07014 14.9639ZM9.00984 15.864C10.1742 15.864 11.2247 15.5764 12.0116 14.859L10.6641 13.381C10.363 13.6556 9.86147 13.864 9.00984 13.864V15.864ZM12.0009 14.8686C12.8324 14.1321 13.1778 13.0957 13.1778 11.936H11.1778C11.1778 12.6963 10.9633 13.1159 10.6748 13.3714L12.0009 14.8686ZM13.1778 11.936V3.152H11.1778V11.936H13.1778ZM12.2295 2.15333L10.8375 2.08133L10.7342 4.07866L12.1262 4.15066L12.2295 2.15333ZM11.7858 3.08V1.04H9.78584V3.08H11.7858ZM10.7858 2.04H16.4738V0.0399995H10.7858V2.04ZM15.4738 1.04V2.984H17.4738V1.04H15.4738ZM16.3833 1.98811L15.5913 2.06011L15.7724 4.05189L16.5644 3.97989L16.3833 1.98811ZM15.5789 2.06131C15.2049 2.1 14.7751 2.23119 14.4409 2.57698C14.0962 2.93356 13.9858 3.37989 13.9858 3.776H15.9858C15.9858 3.75595 15.9887 3.77353 15.9746 3.81434C15.9591 3.85914 15.9288 3.91538 15.8788 3.96702C15.7766 4.07281 15.6948 4.06 15.7847 4.05069L15.5789 2.06131ZM13.9858 3.776V12.344H15.9858V3.776H13.9858ZM13.9858 12.344C13.9858 13.6315 13.5506 14.5467 12.725 15.2145L13.9827 16.7695C15.3331 15.6773 15.9858 14.1605 15.9858 12.344H13.9858ZM12.725 15.2145C11.8711 15.9051 10.6174 16.312 8.84184 16.312V18.312C10.9062 18.312 12.6606 17.8389 13.9827 16.7695L12.725 15.2145ZM8.84184 16.312C7.05079 16.312 5.86589 15.9144 5.12362 15.2799L3.82406 16.8001C5.0658 17.8616 6.79289 18.312 8.84184 18.312V16.312ZM5.13668 15.2912C4.45354 14.6865 4.00984 13.6545 4.00984 11.96H2.00984C2.00984 13.9775 2.54215 15.6655 3.81101 16.7888L5.13668 15.2912ZM4.00984 11.96V3.152H2.00984V11.96H4.00984ZM3.0615 2.15333L1.6695 2.08133L1.56619 4.07866L2.95819 4.15066L3.0615 2.15333ZM2.61784 3.08V1.04H0.617844V3.08H2.61784ZM1.61784 2.04H7.42584V0.0399995H1.61784V2.04ZM6.42584 1.04V2.984H8.42584V1.04H6.42584ZM7.33531 1.98811L6.54331 2.06011L6.72438 4.05189L7.51638 3.97989L7.33531 1.98811ZM6.50981 2.06372C6.16123 2.10729 5.71578 2.22385 5.37474 2.56489L6.78895 3.9791C6.72644 4.04161 6.6739 4.06303 6.66824 4.06524C6.66479 4.06659 6.66971 4.06438 6.68537 4.06068C6.70094 4.057 6.72466 4.05243 6.75788 4.04828L6.50981 2.06372ZM5.43105 2.51274C4.96011 2.91641 4.91384 3.51801 4.91384 3.848H6.91384C6.91384 3.76094 6.92321 3.74274 6.91584 3.768C6.90829 3.7939 6.86788 3.91533 6.73263 4.03126L5.43105 2.51274Z" fill="black" mask="url(#path-5-outside-3_126_122)"/>
<mask id="path-7-outside-4_126_122" maskUnits="userSpaceOnUse" x="1" y="0" width="16" height="18" fill="black">
<rect fill="white" x="1" width="16" height="18"/>
<path d="M5.91384 3.848V11.816C5.91384 12.936 6.17784 13.728 6.70584 14.192C7.24984 14.64 8.01784 14.864 9.00984 14.864C10.0178 14.864 10.7938 14.616 11.3378 14.12C11.8978 13.624 12.1778 12.896 12.1778 11.936V3.152L10.7858 3.08V1.04H16.4738V2.984L15.6818 3.056C15.2178 3.104 14.9858 3.344 14.9858 3.776V12.344C14.9858 13.896 14.4418 15.112 13.3538 15.992C12.2658 16.872 10.7618 17.312 8.84184 17.312C6.92184 17.312 5.46584 16.888 4.47384 16.04C3.49784 15.176 3.00984 13.816 3.00984 11.96V3.152L1.61784 3.08V1.04H7.42584V2.984L6.63384 3.056C6.37784 3.088 6.19384 3.16 6.08184 3.272C5.96984 3.368 5.91384 3.56 5.91384 3.848Z"/>
</mask>
<path d="M5.91384 3.848V11.816C5.91384 12.936 6.17784 13.728 6.70584 14.192C7.24984 14.64 8.01784 14.864 9.00984 14.864C10.0178 14.864 10.7938 14.616 11.3378 14.12C11.8978 13.624 12.1778 12.896 12.1778 11.936V3.152L10.7858 3.08V1.04H16.4738V2.984L15.6818 3.056C15.2178 3.104 14.9858 3.344 14.9858 3.776V12.344C14.9858 13.896 14.4418 15.112 13.3538 15.992C12.2658 16.872 10.7618 17.312 8.84184 17.312C6.92184 17.312 5.46584 16.888 4.47384 16.04C3.49784 15.176 3.00984 13.816 3.00984 11.96V3.152L1.61784 3.08V1.04H7.42584V2.984L6.63384 3.056C6.37784 3.088 6.19384 3.16 6.08184 3.272C5.96984 3.368 5.91384 3.56 5.91384 3.848Z" fill="#881C1C"/>
<path d="M6.70584 14.192L6.37579 14.5676L6.38181 14.5729L6.38799 14.578L6.70584 14.192ZM11.3378 14.12L11.0063 13.7457L11.001 13.7505L11.3378 14.12ZM12.1778 3.152H12.6778V2.67719L12.2037 2.65267L12.1778 3.152ZM10.7858 3.08H10.2858V3.55481L10.76 3.57933L10.7858 3.08ZM10.7858 1.04V0.539999H10.2858V1.04H10.7858ZM16.4738 1.04H16.9738V0.539999H16.4738V1.04ZM16.4738 2.984L16.5191 3.48195L16.9738 3.44061V2.984H16.4738ZM15.6818 3.056L15.6366 2.55801L15.6304 2.55865L15.6818 3.056ZM13.3538 15.992L13.0394 15.6032L13.0394 15.6032L13.3538 15.992ZM4.47384 16.04L4.14237 16.4144L4.14895 16.4201L4.47384 16.04ZM3.00984 3.152H3.50984V2.67719L3.03567 2.65267L3.00984 3.152ZM1.61784 3.08H1.11784V3.55481L1.59202 3.57933L1.61784 3.08ZM1.61784 1.04V0.539999H1.11784V1.04H1.61784ZM7.42584 1.04H7.92584V0.539999H7.42584V1.04ZM7.42584 2.984L7.47111 3.48195L7.92584 3.44061V2.984H7.42584ZM6.63384 3.056L6.58858 2.55805L6.58019 2.55882L6.57183 2.55986L6.63384 3.056ZM6.08184 3.272L6.40724 3.65163L6.42182 3.63913L6.4354 3.62555L6.08184 3.272ZM5.41384 3.848V11.816H6.41384V3.848H5.41384ZM5.41384 11.816C5.41384 12.9959 5.68962 13.9646 6.37579 14.5676L7.0359 13.8164C6.66607 13.4914 6.41384 12.8761 6.41384 11.816H5.41384ZM6.38799 14.578C7.05186 15.1247 7.94845 15.364 9.00984 15.364V14.364C8.08724 14.364 7.44783 14.1553 7.0237 13.806L6.38799 14.578ZM9.00984 15.364C10.096 15.364 11.0093 15.0962 11.6747 14.4895L11.001 13.7505C10.5784 14.1358 9.93966 14.364 9.00984 14.364V15.364ZM11.6694 14.4943C12.3651 13.878 12.6778 12.9958 12.6778 11.936H11.6778C11.6778 12.7962 11.4306 13.37 11.0063 13.7457L11.6694 14.4943ZM12.6778 11.936V3.152H11.6778V11.936H12.6778ZM12.2037 2.65267L10.8117 2.58067L10.76 3.57933L12.152 3.65133L12.2037 2.65267ZM11.2858 3.08V1.04H10.2858V3.08H11.2858ZM10.7858 1.54H16.4738V0.539999H10.7858V1.54ZM15.9738 1.04V2.984H16.9738V1.04H15.9738ZM16.4286 2.48605L15.6366 2.55805L15.7271 3.55395L16.5191 3.48195L16.4286 2.48605ZM15.6304 2.55865C15.3274 2.59 15.0255 2.6916 14.8004 2.92449C14.57 3.16278 14.4858 3.46994 14.4858 3.776H15.4858C15.4858 3.65006 15.5177 3.62122 15.5193 3.61951C15.5262 3.6124 15.5723 3.57 15.7333 3.55335L15.6304 2.55865ZM14.4858 3.776V12.344H15.4858V3.776H14.4858ZM14.4858 12.344C14.4858 13.7638 13.9962 14.8293 13.0394 15.6032L13.6683 16.3808C14.8875 15.3947 15.4858 14.0282 15.4858 12.344H14.4858ZM13.0394 15.6032C12.0685 16.3886 10.6896 16.812 8.84184 16.812V17.812C10.834 17.812 12.4632 17.3554 13.6683 16.3808L13.0394 15.6032ZM8.84184 16.812C6.98632 16.812 5.66587 16.4012 4.79873 15.6599L4.14895 16.4201C5.26582 17.3748 6.85737 17.812 8.84184 17.812V16.812ZM4.80526 15.6656C3.97569 14.9312 3.50984 13.7352 3.50984 11.96H2.50984C2.50984 13.8968 3.02 15.4208 4.14242 16.4144L4.80526 15.6656ZM3.50984 11.96V3.152H2.50984V11.96H3.50984ZM3.03567 2.65267L1.64367 2.58067L1.59202 3.57933L2.98402 3.65133L3.03567 2.65267ZM2.11784 3.08V1.04H1.11784V3.08H2.11784ZM1.61784 1.54H7.42584V0.539999H1.61784V1.54ZM6.92584 1.04V2.984H7.92584V1.04H6.92584ZM7.38058 2.48605L6.58858 2.55805L6.67911 3.55395L7.47111 3.48195L7.38058 2.48605ZM6.57183 2.55986C6.26953 2.59765 5.95481 2.69193 5.72829 2.91845L6.4354 3.62555C6.43214 3.62881 6.44287 3.61651 6.48604 3.59962C6.52973 3.58253 6.59726 3.56446 6.69586 3.55214L6.57183 2.55986ZM5.75645 2.89237C5.46498 3.1422 5.41384 3.539 5.41384 3.848H6.41384C6.41384 3.73247 6.42553 3.66337 6.43584 3.628C6.44607 3.59295 6.44686 3.61767 6.40724 3.65163L5.75645 2.89237Z" fill="white" mask="url(#path-7-outside-4_126_122)"/>
<mask id="path-9-outside-5_126_122" maskUnits="userSpaceOnUse" x="0" y="8" width="10" height="11" fill="black">
<rect fill="white" y="8" width="10" height="11"/>
<path d="M1.48765 18V16.9875L1.90015 16.95C2.14181 16.925 2.26265 16.8083 2.26265 16.6V10.7875L1.55015 10.75V9.6875H4.96265C5.92931 9.6875 6.67098 9.86667 7.18765 10.225C7.70431 10.5833 7.96265 11.1708 7.96265 11.9875C7.96265 12.5542 7.81265 13.0208 7.51265 13.3875C7.22098 13.7542 6.87098 14.0208 6.46265 14.1875C6.76265 14.2958 7.00015 14.55 7.17515 14.95L8.07515 16.9125L8.78765 16.9375V18H5.70015V16.9875L6.06265 16.95C6.25431 16.925 6.35015 16.85 6.35015 16.725C6.35015 16.675 6.33348 16.6167 6.30015 16.55L5.71265 15.3C5.62098 15.0917 5.51681 14.9458 5.40015 14.8625C5.29181 14.7708 5.13348 14.725 4.92515 14.725H3.78765V16.9L4.60015 16.9375V18H1.48765ZM3.78765 13.5375H4.87515C5.90015 13.5375 6.41265 13.0792 6.41265 12.1625C6.41265 11.6375 6.27515 11.2958 6.00015 11.1375C5.73348 10.9792 5.30015 10.9 4.70015 10.9H3.78765V13.5375Z"/>
</mask>
<path d="M1.48765 18V16.9875L1.90015 16.95C2.14181 16.925 2.26265 16.8083 2.26265 16.6V10.7875L1.55015 10.75V9.6875H4.96265C5.92931 9.6875 6.67098 9.86667 7.18765 10.225C7.70431 10.5833 7.96265 11.1708 7.96265 11.9875C7.96265 12.5542 7.81265 13.0208 7.51265 13.3875C7.22098 13.7542 6.87098 14.0208 6.46265 14.1875C6.76265 14.2958 7.00015 14.55 7.17515 14.95L8.07515 16.9125L8.78765 16.9375V18H5.70015V16.9875L6.06265 16.95C6.25431 16.925 6.35015 16.85 6.35015 16.725C6.35015 16.675 6.33348 16.6167 6.30015 16.55L5.71265 15.3C5.62098 15.0917 5.51681 14.9458 5.40015 14.8625C5.29181 14.7708 5.13348 14.725 4.92515 14.725H3.78765V16.9L4.60015 16.9375V18H1.48765ZM3.78765 13.5375H4.87515C5.90015 13.5375 6.41265 13.0792 6.41265 12.1625C6.41265 11.6375 6.27515 11.2958 6.00015 11.1375C5.73348 10.9792 5.30015 10.9 4.70015 10.9H3.78765V13.5375Z" fill="#881C1C"/>
<path d="M1.48765 18H0.487647V19H1.48765V18ZM1.48765 16.9875L1.39711 15.9916L0.487647 16.0743V16.9875H1.48765ZM1.90015 16.95L1.99069 17.946L2.00305 17.9447L1.90015 16.95ZM2.26265 10.7875H3.26265V9.83875L2.31521 9.78888L2.26265 10.7875ZM1.55015 10.75H0.550146V11.6988L1.49759 11.7486L1.55015 10.75ZM1.55015 9.6875V8.6875H0.550146V9.6875H1.55015ZM7.18765 10.225L7.75755 9.40328L7.75755 9.40328L7.18765 10.225ZM7.51265 13.3875L6.73862 12.7542L6.73005 12.765L7.51265 13.3875ZM6.46265 14.1875L6.08475 13.2617L3.67652 14.2446L6.123 15.1281L6.46265 14.1875ZM7.17515 14.95L6.25899 15.3508L6.26251 15.3589L6.26617 15.3669L7.17515 14.95ZM8.07515 16.9125L7.16617 17.3294L7.4234 17.8902L8.04008 17.9119L8.07515 16.9125ZM8.78765 16.9375H9.78765V15.972L8.82271 15.9381L8.78765 16.9375ZM8.78765 18V19H9.78765V18H8.78765ZM5.70015 18H4.70015V19H5.70015V18ZM5.70015 16.9875L5.59725 15.9928L4.70015 16.0856V16.9875H5.70015ZM6.06265 16.95L6.16555 17.9447L6.17879 17.9433L6.19199 17.9416L6.06265 16.95ZM6.30015 16.55L5.39512 16.9754L5.40029 16.9864L5.40572 16.9972L6.30015 16.55ZM5.71265 15.3L4.79733 15.7027L4.80234 15.7141L4.80762 15.7254L5.71265 15.3ZM5.40015 14.8625L4.7542 15.6259L4.78552 15.6524L4.81891 15.6762L5.40015 14.8625ZM3.78765 14.725V13.725H2.78765V14.725H3.78765ZM3.78765 16.9H2.78765V17.8549L3.74154 17.8989L3.78765 16.9ZM4.60015 16.9375H5.60015V15.9826L4.64625 15.9386L4.60015 16.9375ZM4.60015 18V19H5.60015V18H4.60015ZM3.78765 13.5375H2.78765V14.5375H3.78765V13.5375ZM6.00015 11.1375L5.48956 11.9974L5.50118 12.0041L6.00015 11.1375ZM3.78765 10.9V9.9H2.78765V10.9H3.78765ZM2.48765 18V16.9875H0.487647V18H2.48765ZM1.57818 17.9834L1.99068 17.9459L1.80961 15.9541L1.39711 15.9916L1.57818 17.9834ZM2.00305 17.9447C2.25009 17.9191 2.58732 17.8328 2.86662 17.5632C3.16708 17.2731 3.26265 16.906 3.26265 16.6H1.26265C1.26265 16.5023 1.2978 16.2978 1.47743 16.1243C1.63589 15.9713 1.79187 15.9559 1.79725 15.9553L2.00305 17.9447ZM3.26265 16.6V10.7875H1.26265V16.6H3.26265ZM2.31521 9.78888L1.60271 9.75138L1.49759 11.7486L2.21009 11.7861L2.31521 9.78888ZM2.55015 10.75V9.6875H0.550146V10.75H2.55015ZM1.55015 10.6875H4.96265V8.6875H1.55015V10.6875ZM4.96265 10.6875C5.82775 10.6875 6.33632 10.8515 6.61775 11.0467L7.75755 9.40328C7.00564 8.8818 6.03087 8.6875 4.96265 8.6875V10.6875ZM6.61775 11.0467C6.78652 11.1638 6.96265 11.3899 6.96265 11.9875H8.96265C8.96265 10.9518 8.62211 10.0029 7.75755 9.40328L6.61775 11.0467ZM6.96265 11.9875C6.96265 12.3704 6.86522 12.5996 6.73869 12.7543L8.2866 14.0207C8.76007 13.4421 8.96265 12.7379 8.96265 11.9875H6.96265ZM6.73005 12.765C6.53818 13.0062 6.32449 13.1638 6.08475 13.2617L6.84054 15.1133C7.41747 14.8779 7.90378 14.5022 8.29525 14.01L6.73005 12.765ZM6.123 15.1281C6.11092 15.1237 6.11447 15.12 6.13511 15.1421C6.15963 15.1684 6.20581 15.2293 6.25899 15.3508L8.0913 14.5492C7.84818 13.9935 7.44443 13.4788 6.80229 13.2469L6.123 15.1281ZM6.26617 15.3669L7.16617 17.3294L8.98412 16.4956L8.08412 14.5331L6.26617 15.3669ZM8.04008 17.9119L8.75258 17.9369L8.82271 15.9381L8.11021 15.9131L8.04008 17.9119ZM7.78765 16.9375V18H9.78765V16.9375H7.78765ZM8.78765 17H5.70015V19H8.78765V17ZM6.70015 18V16.9875H4.70015V18H6.70015ZM5.80305 17.9822L6.16555 17.9447L5.95975 15.9553L5.59725 15.9928L5.80305 17.9822ZM6.19199 17.9416C6.37071 17.9183 6.64563 17.8573 6.89458 17.6625C7.19226 17.4295 7.35015 17.0853 7.35015 16.725H5.35015C5.35015 16.6258 5.36992 16.5034 5.43036 16.3773C5.49121 16.2503 5.57666 16.1543 5.66196 16.0875C5.74324 16.0239 5.81687 15.9923 5.85991 15.9774C5.90315 15.9623 5.93062 15.9587 5.93331 15.9584L6.19199 17.9416ZM7.35015 16.725C7.35015 16.4624 7.26607 16.2458 7.19457 16.1028L5.40572 16.9972C5.40074 16.9873 5.3881 16.9604 5.37612 16.9185C5.36416 16.8766 5.35015 16.8102 5.35015 16.725H7.35015ZM7.20517 16.1246L6.61767 14.8746L4.80762 15.7254L5.39512 16.9754L7.20517 16.1246ZM6.62796 14.8973C6.50249 14.6121 6.30641 14.2809 5.98139 14.0488L4.81891 15.6762C4.79313 15.6578 4.77556 15.6413 4.76522 15.6306C4.75497 15.62 4.75093 15.6141 4.75204 15.6156C4.75313 15.6171 4.7582 15.6245 4.76643 15.6394C4.77462 15.6542 4.7851 15.675 4.79733 15.7027L6.62796 14.8973ZM6.04609 14.0991C5.68919 13.7971 5.26228 13.725 4.92515 13.725V15.725C4.95879 15.725 4.95343 15.729 4.92209 15.7199C4.88778 15.71 4.82341 15.6844 4.7542 15.6259L6.04609 14.0991ZM4.92515 13.725H3.78765V15.725H4.92515V13.725ZM2.78765 14.725V16.9H4.78765V14.725H2.78765ZM3.74154 17.8989L4.55404 17.9364L4.64625 15.9386L3.83375 15.9011L3.74154 17.8989ZM3.60015 16.9375V18H5.60015V16.9375H3.60015ZM4.60015 17H1.48765V19H4.60015V17ZM3.78765 14.5375H4.87515V12.5375H3.78765V14.5375ZM4.87515 14.5375C5.51595 14.5375 6.18332 14.3967 6.69489 13.9391C7.22772 13.4626 7.41265 12.8057 7.41265 12.1625H5.41265C5.41265 12.301 5.39301 12.3786 5.37953 12.4148C5.37306 12.4321 5.36786 12.4405 5.36602 12.4433C5.36433 12.4458 5.36325 12.4469 5.36165 12.4483C5.36072 12.4492 5.25934 12.5375 4.87515 12.5375V14.5375ZM7.41265 12.1625C7.41265 11.5238 7.24934 10.7028 6.49911 10.2709L5.50118 12.0041C5.46383 11.9826 5.43229 11.9549 5.40924 11.927C5.3873 11.9004 5.38062 11.8828 5.38183 11.8858C5.38341 11.8898 5.39164 11.9121 5.39922 11.9598C5.40677 12.0074 5.41265 12.0739 5.41265 12.1625H7.41265ZM6.51069 10.2776C6.00243 9.97587 5.34026 9.9 4.70015 9.9V11.9C4.95989 11.9 5.15494 11.9174 5.29543 11.9431C5.44046 11.9696 5.49146 11.9985 5.48961 11.9974L6.51069 10.2776ZM4.70015 9.9H3.78765V11.9H4.70015V9.9ZM2.78765 10.9V13.5375H4.78765V10.9H2.78765Z" fill="black" mask="url(#path-9-outside-5_126_122)"/>
<mask id="path-11-outside-6_126_122" maskUnits="userSpaceOnUse" x="0" y="9" width="10" height="10" fill="black">
<rect fill="white" y="9" width="10" height="10"/>
<path d="M1.48765 18V16.9875L1.90015 16.95C2.14181 16.925 2.26265 16.8083 2.26265 16.6V10.7875L1.55015 10.75V9.6875H4.96265C5.92931 9.6875 6.67098 9.86667 7.18765 10.225C7.70431 10.5833 7.96265 11.1708 7.96265 11.9875C7.96265 12.5542 7.81265 13.0208 7.51265 13.3875C7.22098 13.7542 6.87098 14.0208 6.46265 14.1875C6.76265 14.2958 7.00015 14.55 7.17515 14.95L8.07515 16.9125L8.78765 16.9375V18H5.70015V16.9875L6.06265 16.95C6.25431 16.925 6.35015 16.85 6.35015 16.725C6.35015 16.675 6.33348 16.6167 6.30015 16.55L5.71265 15.3C5.62098 15.0917 5.51681 14.9458 5.40015 14.8625C5.29181 14.7708 5.13348 14.725 4.92515 14.725H3.78765V16.9L4.60015 16.9375V18H1.48765ZM3.78765 13.5375H4.87515C5.90015 13.5375 6.41265 13.0792 6.41265 12.1625C6.41265 11.6375 6.27515 11.2958 6.00015 11.1375C5.73348 10.9792 5.30015 10.9 4.70015 10.9H3.78765V13.5375Z"/>
</mask>
<path d="M1.48765 18V16.9875L1.90015 16.95C2.14181 16.925 2.26265 16.8083 2.26265 16.6V10.7875L1.55015 10.75V9.6875H4.96265C5.92931 9.6875 6.67098 9.86667 7.18765 10.225C7.70431 10.5833 7.96265 11.1708 7.96265 11.9875C7.96265 12.5542 7.81265 13.0208 7.51265 13.3875C7.22098 13.7542 6.87098 14.0208 6.46265 14.1875C6.76265 14.2958 7.00015 14.55 7.17515 14.95L8.07515 16.9125L8.78765 16.9375V18H5.70015V16.9875L6.06265 16.95C6.25431 16.925 6.35015 16.85 6.35015 16.725C6.35015 16.675 6.33348 16.6167 6.30015 16.55L5.71265 15.3C5.62098 15.0917 5.51681 14.9458 5.40015 14.8625C5.29181 14.7708 5.13348 14.725 4.92515 14.725H3.78765V16.9L4.60015 16.9375V18H1.48765ZM3.78765 13.5375H4.87515C5.90015 13.5375 6.41265 13.0792 6.41265 12.1625C6.41265 11.6375 6.27515 11.2958 6.00015 11.1375C5.73348 10.9792 5.30015 10.9 4.70015 10.9H3.78765V13.5375Z" fill="#1C875F"/>
<path d="M1.48765 18H0.987647V18.5H1.48765V18ZM1.48765 16.9875L1.44238 16.4896L0.987647 16.5309V16.9875H1.48765ZM1.90015 16.95L1.94542 17.448L1.9516 17.4473L1.90015 16.95ZM2.26265 10.7875H2.76265V10.3131L2.28893 10.2882L2.26265 10.7875ZM1.55015 10.75H1.05015V11.2244L1.52387 11.2493L1.55015 10.75ZM1.55015 9.6875V9.1875H1.05015V9.6875H1.55015ZM7.18765 10.225L7.4726 9.81414L7.4726 9.81414L7.18765 10.225ZM7.51265 13.3875L7.12563 13.0709L7.12135 13.0762L7.51265 13.3875ZM6.46265 14.1875L6.2737 13.7246L5.06958 14.2161L6.29282 14.6578L6.46265 14.1875ZM7.17515 14.95L6.717 15.1504L6.72066 15.1584L7.17515 14.95ZM8.07515 16.9125L7.62066 17.1209L7.74927 17.4014L8.05761 17.4122L8.07515 16.9125ZM8.78765 16.9375H9.28765V16.4547L8.80518 16.4378L8.78765 16.9375ZM8.78765 18V18.5H9.28765V18H8.78765ZM5.70015 18H5.20015V18.5H5.70015V18ZM5.70015 16.9875L5.6487 16.4902L5.20015 16.5366V16.9875H5.70015ZM6.06265 16.95L6.11411 17.4475L6.12732 17.4458L6.06265 16.95ZM6.30015 16.55L5.8475 16.7627L5.85293 16.7736L6.30015 16.55ZM5.71265 15.3L5.25485 15.5014L5.26013 15.5127L5.71265 15.3ZM5.40015 14.8625L5.07718 15.2442L5.09284 15.2574L5.10953 15.2694L5.40015 14.8625ZM3.78765 14.725V14.225H3.28765V14.725H3.78765ZM3.78765 16.9H3.28765V17.3775L3.76459 17.3995L3.78765 16.9ZM4.60015 16.9375H5.10015V16.46L4.6232 16.438L4.60015 16.9375ZM4.60015 18V18.5H5.10015V18H4.60015ZM3.78765 13.5375H3.28765V14.0375H3.78765V13.5375ZM6.00015 11.1375L5.74485 11.5675L5.75066 11.5708L6.00015 11.1375ZM3.78765 10.9V10.4H3.28765V10.9H3.78765ZM1.98765 18V16.9875H0.987647V18H1.98765ZM1.53291 17.4854L1.94541 17.4479L1.85488 16.4521L1.44238 16.4896L1.53291 17.4854ZM1.9516 17.4473C2.13554 17.4283 2.34946 17.3675 2.51932 17.2035C2.69976 17.0292 2.76265 16.8051 2.76265 16.6H1.76265C1.76265 16.6043 1.762 16.5899 1.77133 16.5648C1.78144 16.5376 1.79936 16.5085 1.82472 16.484C1.87375 16.4367 1.90642 16.4467 1.8487 16.4527L1.9516 17.4473ZM2.76265 16.6V10.7875H1.76265V16.6H2.76265ZM2.28893 10.2882L1.57643 10.2507L1.52387 11.2493L2.23637 11.2868L2.28893 10.2882ZM2.05015 10.75V9.6875H1.05015V10.75H2.05015ZM1.55015 10.1875H4.96265V9.1875H1.55015V10.1875ZM4.96265 10.1875C5.87853 10.1875 6.50365 10.3591 6.9027 10.6359L7.4726 9.81414C6.83831 9.37423 5.98009 9.1875 4.96265 9.1875V10.1875ZM6.9027 10.6359C7.24542 10.8735 7.46265 11.2804 7.46265 11.9875H8.46265C8.46265 11.0613 8.16321 10.2931 7.4726 9.81414L6.9027 10.6359ZM7.46265 11.9875C7.46265 12.4623 7.33893 12.8102 7.12567 13.0709L7.89963 13.7041C8.28636 13.2314 8.46265 12.646 8.46265 11.9875H7.46265ZM7.12135 13.0762C6.87958 13.3802 6.59774 13.5923 6.2737 13.7246L6.6516 14.6504C7.14422 14.4494 7.56238 14.1282 7.90395 13.6988L7.12135 13.0762ZM6.29282 14.6578C6.42176 14.7043 6.57613 14.8283 6.71707 15.1504L7.63323 14.7496C7.42416 14.2717 7.10354 13.8873 6.63247 13.7172L6.29282 14.6578ZM6.72066 15.1584L7.62066 17.1209L8.52963 16.7041L7.62963 14.7416L6.72066 15.1584ZM8.05761 17.4122L8.77011 17.4372L8.80518 16.4378L8.09268 16.4128L8.05761 17.4122ZM8.28765 16.9375V18H9.28765V16.9375H8.28765ZM8.78765 17.5H5.70015V18.5H8.78765V17.5ZM6.20015 18V16.9875H5.20015V18H6.20015ZM5.7516 17.4848L6.1141 17.4473L6.0112 16.4527L5.6487 16.4902L5.7516 17.4848ZM6.12732 17.4458C6.26459 17.4279 6.43799 17.3849 6.58643 17.2688C6.75923 17.1335 6.85015 16.9364 6.85015 16.725H5.85015C5.85015 16.691 5.85704 16.6439 5.88127 16.5933C5.9057 16.5423 5.93945 16.5053 5.97012 16.4812C6.02272 16.4401 6.05237 16.4471 5.99798 16.4542L6.12732 17.4458ZM6.85015 16.725C6.85015 16.5687 6.79977 16.4312 6.74736 16.3264L5.85293 16.7736C5.85878 16.7853 5.85871 16.7875 5.85688 16.7811C5.85507 16.7748 5.85015 16.7551 5.85015 16.725H6.85015ZM6.75266 16.3373L6.16516 15.0873L5.26013 15.5127L5.84763 16.7627L6.75266 16.3373ZM6.1703 15.0986C6.06173 14.8519 5.91161 14.6134 5.69077 14.4556L5.10953 15.2694C5.12202 15.2783 5.18023 15.3315 5.25499 15.5014L6.1703 15.0986ZM5.72312 14.4808C5.4905 14.284 5.19788 14.225 4.92515 14.225V15.225C5.06908 15.225 5.09312 15.2577 5.07718 15.2442L5.72312 14.4808ZM4.92515 14.225H3.78765V15.225H4.92515V14.225ZM3.28765 14.725V16.9H4.28765V14.725H3.28765ZM3.76459 17.3995L4.57709 17.437L4.6232 16.438L3.8107 16.4005L3.76459 17.3995ZM4.10015 16.9375V18H5.10015V16.9375H4.10015ZM4.60015 17.5H1.48765V18.5H4.60015V17.5ZM3.78765 14.0375H4.87515V13.0375H3.78765V14.0375ZM4.87515 14.0375C5.4518 14.0375 5.97767 13.9098 6.36158 13.5664C6.75612 13.2136 6.91265 12.7132 6.91265 12.1625H5.91265C5.91265 12.5284 5.81292 12.7156 5.69496 12.821C5.56637 12.936 5.32349 13.0375 4.87515 13.0375V14.0375ZM6.91265 12.1625C6.91265 11.5807 6.76225 10.9993 6.24963 10.7042L5.75066 11.5708C5.78805 11.5923 5.91265 11.6943 5.91265 12.1625H6.91265ZM6.25542 10.7076C5.86796 10.4775 5.3202 10.4 4.70015 10.4V11.4C5.28009 11.4 5.599 11.4808 5.74488 11.5674L6.25542 10.7076ZM4.70015 10.4H3.78765V11.4H4.70015V10.4ZM3.28765 10.9V13.5375H4.28765V10.9H3.28765Z" fill="white" mask="url(#path-11-outside-6_126_122)"/>
</svg>
